M48
;DRILL file {KiCad (5.0.2)-1} date 10/17/2019 9:42:58 PM
;FORMAT={-:-/ absolute / metric / decimal}
FMAT,2
METRIC,TZ
T1C0.300
T2C0.400
T3C0.600
T4C1.470
T5C0.650
T6C1.750
T7C3.048
T8C3.988
%
G90
G05
T1
X213.011Y-52.171
X361.911Y-91.771
X307.4Y-68.3
X158.211Y-88.371
X334.911Y-87.571
X347.611Y-86.471
X285.Y-67.
X335.611Y-93.071
T2
X46.771Y-67.961
X66.151Y-63.1
X108.168Y-126.281
X130.585Y-124.219
X151.541Y-89.631
X171.383Y-88.751
X181.011Y-104.471
X189.551Y-88.281
X195.311Y-56.971
X196.15Y-102.35
X204.33Y-95.12
X205.28Y-61.36
X209.05Y-103.05
X209.22Y-61.33
X209.83Y-101.681
X210.01Y-54.4
X212.041Y-57.301
X216.881Y-67.366
X235.316Y-68.131
X255.881Y-66.616
X266.001Y-82.
X286.762Y-123.171
X289.08Y-106.11
X311.22Y-108.3
X312.881Y-85.657
X313.911Y-122.411
X314.206Y-112.916
X315.241Y-94.601
X322.399Y-86.334
X323.471Y-87.021
X324.441Y-87.827
X324.891Y-116.821
X325.141Y-88.681
X327.911Y-64.166
X328.371Y-90.957
X328.701Y-84.871
X333.211Y-121.316
X334.336Y-92.81
X334.393Y-91.811
X334.611Y-81.461
X335.311Y-90.821
X335.321Y-82.271
X335.811Y-94.371
X335.951Y-84.266
X336.691Y-84.991
X341.881Y-82.271
X343.631Y-81.461
X349.327Y-84.355
X349.401Y-69.147
X350.441Y-84.321
X352.161Y-84.261
X352.211Y-117.871
X352.451Y-70.531
X353.336Y-82.171
X353.361Y-84.301
X353.6Y-72.7
X354.583Y-84.134
X355.581Y-84.07
X358.661Y-98.426
X360.951Y-140.366
X362.3Y-62.7
X366.241Y-99.995
T4
X53.29Y-95.36
X59.64Y-92.82
X185.579Y-141.046
X191.929Y-138.506
X193.834Y-95.326
X200.184Y-92.786
X155.734Y-95.326
X162.084Y-92.786
X336.709Y-114.376
X343.059Y-111.836
X74.771Y-76.276
X81.121Y-73.736
X246.221Y-76.276
X252.571Y-73.736
X231.934Y-95.326
X238.284Y-92.786
X96.19Y-133.46
X102.54Y-130.92
X141.446Y-57.226
X147.796Y-54.686
X198.596Y-57.226
X204.946Y-54.686
X217.646Y-57.226
X223.996Y-54.686
X72.39Y-133.46
X78.74Y-130.92
X58.102Y-114.376
X64.453Y-111.836
X336.709Y-57.226
X343.059Y-54.686
X355.759Y-76.276
X362.109Y-73.736
X286.702Y-114.376
X293.053Y-111.836
X274.796Y-57.226
X281.146Y-54.686
X355.759Y-133.426
X362.109Y-130.886
X265.271Y-76.276
X271.621Y-73.736
X103.346Y-57.226
X109.696Y-54.686
X79.534Y-95.326
X85.884Y-92.786
X89.059Y-114.376
X95.409Y-111.836
X270.034Y-95.326
X276.384Y-92.786
X312.896Y-114.376
X319.246Y-111.836
X112.871Y-76.276
X119.221Y-73.736
X250.984Y-95.326
X257.334Y-92.786
X174.784Y-95.326
X181.134Y-92.786
X317.659Y-133.426
X324.009Y-130.886
X222.409Y-114.376
X228.759Y-111.836
X291.465Y-133.426
X297.815Y-130.886
X265.271Y-133.426
X271.621Y-130.886
X179.546Y-57.226
X185.896Y-54.686
X108.109Y-114.376
X114.459Y-111.836
X227.171Y-76.276
X233.521Y-73.736
X336.709Y-133.426
X343.059Y-130.886
X336.709Y-76.276
X343.059Y-73.736
X355.759Y-57.226
X362.109Y-54.686
X284.321Y-76.276
X290.671Y-73.736
X136.684Y-95.326
X143.034Y-92.786
X127.159Y-114.376
X133.509Y-111.836
X262.89Y-133.46
X269.24Y-130.92
X46.196Y-57.226
X52.546Y-54.686
X160.496Y-57.226
X166.846Y-54.686
X77.153Y-133.426
X83.502Y-130.886
X98.584Y-95.326
X104.934Y-92.786
X117.634Y-95.326
X123.984Y-92.786
X241.459Y-114.376
X247.809Y-111.836
X300.99Y-95.326
X307.34Y-92.786
X208.121Y-76.276
X214.471Y-73.736
X184.309Y-114.376
X190.659Y-111.836
X293.846Y-57.226
X300.196Y-54.686
X48.578Y-95.326
X54.927Y-92.786
X308.134Y-76.276
X314.484Y-73.736
X236.696Y-57.226
X243.046Y-54.686
X122.396Y-57.226
X128.746Y-54.686
X93.821Y-76.276
X100.171Y-73.736
X189.071Y-76.276
X195.421Y-73.736
X239.09Y-133.46
X245.44Y-130.92
X48.59Y-133.46
X54.94Y-130.92
X131.921Y-76.276
X138.271Y-73.736
X168.96Y-141.08
X175.31Y-138.54
X146.209Y-114.376
X152.559Y-111.836
X255.746Y-57.226
X262.096Y-54.686
X303.39Y-57.26
X309.74Y-54.72
X312.896Y-57.226
X319.246Y-54.686
X65.246Y-57.226
X71.596Y-54.686
X103.346Y-133.426
X109.696Y-130.886
X84.296Y-57.226
X90.646Y-54.686
X150.971Y-76.276
X157.321Y-73.736
X203.359Y-114.376
X209.709Y-111.836
X212.884Y-95.326
X219.234Y-92.786
X170.021Y-76.276
X176.371Y-73.736
X260.509Y-114.376
X266.859Y-111.836
X50.959Y-76.276
X57.309Y-73.736
X286.69Y-133.46
X293.04Y-130.92
X50.959Y-133.426
X57.309Y-130.886
X165.259Y-114.376
X171.609Y-111.836
T5
X204.38Y-47.95
X210.16Y-47.95
T6
X354.489Y-78.816
X364.649Y-78.816
X285.433Y-116.916
X295.592Y-116.916
X273.526Y-59.766
X283.686Y-59.766
X354.489Y-135.966
X364.649Y-135.966
X264.001Y-78.816
X274.161Y-78.816
X102.076Y-59.766
X112.236Y-59.766
X78.264Y-97.866
X88.424Y-97.866
X87.789Y-116.916
X97.949Y-116.916
X268.764Y-97.866
X278.924Y-97.866
X311.626Y-116.916
X321.786Y-116.916
X111.601Y-78.816
X121.761Y-78.816
X249.714Y-97.866
X259.874Y-97.866
X173.514Y-97.866
X183.674Y-97.866
X316.389Y-135.966
X326.549Y-135.966
X221.139Y-116.916
X231.299Y-116.916
X290.195Y-135.966
X300.355Y-135.966
X264.001Y-135.966
X274.161Y-135.966
X178.276Y-59.766
X188.436Y-59.766
X106.839Y-116.916
X116.999Y-116.916
X225.901Y-78.816
X236.061Y-78.816
X335.439Y-135.966
X345.599Y-135.966
X335.439Y-78.816
X345.599Y-78.816
X354.489Y-59.766
X364.649Y-59.766
X283.051Y-78.816
X293.211Y-78.816
X135.414Y-97.866
X145.574Y-97.866
X125.889Y-116.916
X136.049Y-116.916
X261.62Y-136.
X271.78Y-136.
X44.926Y-59.766
X55.086Y-59.766
X159.226Y-59.766
X169.386Y-59.766
X75.882Y-135.966
X86.042Y-135.966
X97.314Y-97.866
X107.474Y-97.866
X116.364Y-97.866
X126.524Y-97.866
X240.189Y-116.916
X250.349Y-116.916
X299.72Y-97.866
X309.88Y-97.866
X206.851Y-78.816
X217.011Y-78.816
X183.039Y-116.916
X193.199Y-116.916
X292.576Y-59.766
X302.736Y-59.766
X47.307Y-97.866
X57.467Y-97.866
X306.864Y-78.816
X317.024Y-78.816
X235.426Y-59.766
X245.586Y-59.766
X121.126Y-59.766
X131.286Y-59.766
X92.551Y-78.816
X102.711Y-78.816
X187.801Y-78.816
X197.961Y-78.816
X237.82Y-136.
X247.98Y-136.
X47.32Y-136.
X57.48Y-136.
X130.651Y-78.816
X140.811Y-78.816
X166.42Y-136.
X176.58Y-136.
X144.939Y-116.916
X155.099Y-116.916
X254.476Y-59.766
X264.636Y-59.766
X302.12Y-59.8
X312.28Y-59.8
X311.626Y-59.766
X321.786Y-59.766
X63.976Y-59.766
X74.136Y-59.766
X102.076Y-135.966
X112.236Y-135.966
X83.026Y-59.766
X93.186Y-59.766
X149.701Y-78.816
X159.861Y-78.816
X202.089Y-116.916
X212.249Y-116.916
X211.614Y-97.866
X221.774Y-97.866
X168.751Y-78.816
X178.911Y-78.816
X259.239Y-116.916
X269.399Y-116.916
X49.689Y-78.816
X59.849Y-78.816
X285.42Y-136.
X295.58Y-136.
X49.689Y-135.966
X59.849Y-135.966
X163.989Y-116.916
X174.149Y-116.916
X52.02Y-97.9
X62.18Y-97.9
X183.039Y-135.966
X193.199Y-135.966
X192.564Y-97.866
X202.724Y-97.866
X154.464Y-97.866
X164.624Y-97.866
X335.439Y-116.916
X345.599Y-116.916
X73.501Y-78.816
X83.661Y-78.816
X244.951Y-78.816
X255.111Y-78.816
X230.664Y-97.866
X240.824Y-97.866
X94.92Y-136.
X105.08Y-136.
X140.176Y-59.766
X150.336Y-59.766
X197.326Y-59.766
X207.486Y-59.766
X216.376Y-59.766
X226.536Y-59.766
X71.12Y-136.
X81.28Y-136.
X56.832Y-116.916
X66.992Y-116.916
X335.439Y-59.766
X345.599Y-59.766
T7
X292.894Y-90.881
X316.706Y-90.881
X121.5Y-142.985
X221.5Y-142.985
X295.294Y-52.815
X319.106Y-52.815
X130.969Y-142.951
X245.269Y-142.951
X50.006Y-109.931
X73.819Y-109.931
T8
X92.869Y-116.916
X273.844Y-97.866
X316.706Y-116.916
X116.681Y-78.816
X254.794Y-97.866
X178.594Y-97.866
X321.469Y-135.966
X226.219Y-116.916
X295.275Y-135.966
X269.081Y-135.966
X183.356Y-59.766
X111.919Y-116.916
X230.981Y-78.816
X340.519Y-135.966
X340.519Y-78.816
X359.569Y-59.766
X288.131Y-78.816
X140.494Y-97.866
X130.969Y-116.916
X266.7Y-136.
X50.006Y-59.766
X164.306Y-59.766
X80.962Y-135.966
X102.394Y-97.866
X121.444Y-97.866
X245.269Y-116.916
X292.894Y-106.121
X304.8Y-97.866
X316.706Y-106.121
X211.931Y-78.816
X188.119Y-116.916
X297.656Y-59.766
X52.387Y-97.866
X311.944Y-78.816
X240.506Y-59.766
X126.206Y-59.766
X97.631Y-78.816
X192.881Y-78.816
X242.9Y-136.
X52.4Y-136.
X135.731Y-78.816
X121.5Y-127.745
X171.5Y-136.
X221.5Y-127.745
X150.019Y-116.916
X259.556Y-59.766
X295.294Y-68.055
X307.2Y-59.8
X319.106Y-68.055
X316.706Y-59.766
X69.056Y-59.766
X107.156Y-135.966
X88.106Y-59.766
X154.781Y-78.816
X207.169Y-116.916
X216.694Y-97.866
X173.831Y-78.816
X264.319Y-116.916
X54.769Y-78.816
X290.5Y-136.
X54.769Y-135.966
X169.069Y-116.916
X57.1Y-97.9
X130.969Y-127.711
X188.119Y-135.966
X245.269Y-127.711
X197.644Y-97.866
X159.544Y-97.866
X340.519Y-116.916
X78.581Y-78.816
X250.031Y-78.816
X235.744Y-97.866
X100.Y-136.
X145.256Y-59.766
X202.406Y-59.766
X221.456Y-59.766
X76.2Y-136.
X50.006Y-125.171
X61.912Y-116.916
X73.819Y-125.171
X340.519Y-59.766
X359.569Y-78.816
X290.512Y-116.916
X278.606Y-59.766
X359.569Y-135.966
X269.081Y-78.816
X107.156Y-59.766
X83.344Y-97.866
T3
X202.95Y-44.G85X202.95Y-44.6
G05
X202.95Y-47.93G85X202.95Y-49.03
G05
X211.59Y-44.G85X211.59Y-44.6
G05
X211.59Y-47.93G85X211.59Y-49.03
G05
T0
M30
