G04 #@! TF.GenerationSoftware,KiCad,Pcbnew,(5.0.2)-1*
G04 #@! TF.CreationDate,2019-10-17T21:42:54+05:30*
G04 #@! TF.ProjectId,keyboard,6b657962-6f61-4726-942e-6b696361645f,rev?*
G04 #@! TF.SameCoordinates,Original*
G04 #@! TF.FileFunction,Legend,Bot*
G04 #@! TF.FilePolarity,Positive*
%FSLAX46Y46*%
G04 Gerber Fmt 4.6, Leading zero omitted, Abs format (unit mm)*
G04 Created by KiCad (PCBNEW (5.0.2)-1) date 10/17/2019 9:42:54 PM*
%MOMM*%
%LPD*%
G01*
G04 APERTURE LIST*
%ADD10C,0.120000*%
%ADD11C,0.150000*%
%ADD12C,0.100000*%
%ADD13C,0.200000*%
G04 APERTURE END LIST*
D10*
G04 #@! TO.C,C1*
X339351250Y-87199998D02*
X339351250Y-87722502D01*
X337931250Y-87199998D02*
X337931250Y-87722502D01*
G04 #@! TO.C,C2*
X346871250Y-87842502D02*
X346871250Y-87319998D01*
X348291250Y-87842502D02*
X348291250Y-87319998D01*
G04 #@! TO.C,R1*
X330501250Y-94779998D02*
X330501250Y-95302502D01*
X329081250Y-94779998D02*
X329081250Y-95302502D01*
G04 #@! TO.C,RESET1*
X326671250Y-95451250D02*
X327121250Y-95901250D01*
X326671250Y-98851250D02*
X327121250Y-98401250D01*
X322071250Y-98851250D02*
X321621250Y-98401250D01*
X322071250Y-95451250D02*
X321621250Y-95901250D01*
X323371250Y-99901250D02*
X325371250Y-99901250D01*
X327121250Y-95901250D02*
X327121250Y-98401250D01*
X323371250Y-94401250D02*
X325371250Y-94401250D01*
X321621250Y-95901250D02*
X321621250Y-98401250D01*
G04 #@! TO.C,R2*
X350821250Y-103942502D02*
X350821250Y-103419998D01*
X352241250Y-103942502D02*
X352241250Y-103419998D01*
G04 #@! TO.C,R3*
X331172502Y-102641250D02*
X330649998Y-102641250D01*
X331172502Y-101221250D02*
X330649998Y-101221250D01*
G04 #@! TO.C,R4*
X329632502Y-100661250D02*
X329109998Y-100661250D01*
X329632502Y-99241250D02*
X329109998Y-99241250D01*
G04 #@! TO.C,C3*
X331301250Y-95302502D02*
X331301250Y-94779998D01*
X332721250Y-95302502D02*
X332721250Y-94779998D01*
D11*
G04 #@! TO.C,U1*
X338636250Y-103536250D02*
X338636250Y-102961250D01*
X348986250Y-103536250D02*
X348986250Y-102861250D01*
X348986250Y-93186250D02*
X348986250Y-93861250D01*
X338636250Y-93186250D02*
X338636250Y-93861250D01*
X338636250Y-103536250D02*
X339311250Y-103536250D01*
X338636250Y-93186250D02*
X339311250Y-93186250D01*
X348986250Y-93186250D02*
X348311250Y-93186250D01*
X348986250Y-103536250D02*
X348311250Y-103536250D01*
X338636250Y-102961250D02*
X337361250Y-102961250D01*
D10*
G04 #@! TO.C,C4*
X350871250Y-94037502D02*
X350871250Y-93514998D01*
X352291250Y-94037502D02*
X352291250Y-93514998D01*
G04 #@! TO.C,C5*
X337749998Y-105761250D02*
X338272502Y-105761250D01*
X337749998Y-107181250D02*
X338272502Y-107181250D01*
G04 #@! TO.C,C6*
X335981250Y-87722502D02*
X335981250Y-87199998D01*
X337401250Y-87722502D02*
X337401250Y-87199998D01*
G04 #@! TO.C,C7*
X347552502Y-107811250D02*
X347029998Y-107811250D01*
X347552502Y-106391250D02*
X347029998Y-106391250D01*
G04 #@! TO.C,C8*
X331382502Y-97191250D02*
X330859998Y-97191250D01*
X331382502Y-98611250D02*
X330859998Y-98611250D01*
D11*
G04 #@! TO.C,D_0*
X251111250Y-63881250D02*
G75*
G03X250611250Y-63381250I-500000J0D01*
G01*
X250611250Y-63381250D02*
X249811250Y-63381250D01*
X251111250Y-64381212D02*
X251111250Y-63881250D01*
X250611250Y-64881250D02*
G75*
G03X251111250Y-64381250I0J500000D01*
G01*
X250611250Y-64881250D02*
X249811250Y-64881250D01*
X249311250Y-64381250D02*
G75*
G03X249811250Y-64881250I500000J0D01*
G01*
X249811250Y-63381250D02*
G75*
G03X249311250Y-63881250I0J-500000D01*
G01*
X249311250Y-63881288D02*
X249311250Y-64381250D01*
D12*
G36*
X250211250Y-62881250D02*
X250811250Y-62081250D01*
X249611250Y-62081250D01*
X250211250Y-62881250D01*
G37*
X250211250Y-62881250D02*
X250811250Y-62081250D01*
X249611250Y-62081250D01*
X250211250Y-62881250D01*
D11*
G04 #@! TO.C,D_1*
X80141250Y-63881250D02*
G75*
G03X79641250Y-63381250I-500000J0D01*
G01*
X79641250Y-63381250D02*
X78841250Y-63381250D01*
X80141250Y-64381212D02*
X80141250Y-63881250D01*
X79641250Y-64881250D02*
G75*
G03X80141250Y-64381250I0J500000D01*
G01*
X79641250Y-64881250D02*
X78841250Y-64881250D01*
X78341250Y-64381250D02*
G75*
G03X78841250Y-64881250I500000J0D01*
G01*
X78841250Y-63381250D02*
G75*
G03X78341250Y-63881250I0J-500000D01*
G01*
X78341250Y-63881288D02*
X78341250Y-64381250D01*
D12*
G36*
X79241250Y-62881250D02*
X79841250Y-62081250D01*
X78641250Y-62081250D01*
X79241250Y-62881250D01*
G37*
X79241250Y-62881250D02*
X79841250Y-62081250D01*
X78641250Y-62081250D01*
X79241250Y-62881250D01*
D11*
G04 #@! TO.C,D_2*
X98991250Y-63861250D02*
G75*
G03X98491250Y-63361250I-500000J0D01*
G01*
X98491250Y-63361250D02*
X97691250Y-63361250D01*
X98991250Y-64361212D02*
X98991250Y-63861250D01*
X98491250Y-64861250D02*
G75*
G03X98991250Y-64361250I0J500000D01*
G01*
X98491250Y-64861250D02*
X97691250Y-64861250D01*
X97191250Y-64361250D02*
G75*
G03X97691250Y-64861250I500000J0D01*
G01*
X97691250Y-63361250D02*
G75*
G03X97191250Y-63861250I0J-500000D01*
G01*
X97191250Y-63861288D02*
X97191250Y-64361250D01*
D12*
G36*
X98091250Y-62861250D02*
X98691250Y-62061250D01*
X97491250Y-62061250D01*
X98091250Y-62861250D01*
G37*
X98091250Y-62861250D02*
X98691250Y-62061250D01*
X97491250Y-62061250D01*
X98091250Y-62861250D01*
G04 #@! TO.C,D_3*
G36*
X117131250Y-62891250D02*
X117731250Y-62091250D01*
X116531250Y-62091250D01*
X117131250Y-62891250D01*
G37*
X117131250Y-62891250D02*
X117731250Y-62091250D01*
X116531250Y-62091250D01*
X117131250Y-62891250D01*
D11*
X116231250Y-63891288D02*
X116231250Y-64391250D01*
X116731250Y-63391250D02*
G75*
G03X116231250Y-63891250I0J-500000D01*
G01*
X116231250Y-64391250D02*
G75*
G03X116731250Y-64891250I500000J0D01*
G01*
X117531250Y-64891250D02*
X116731250Y-64891250D01*
X117531250Y-64891250D02*
G75*
G03X118031250Y-64391250I0J500000D01*
G01*
X118031250Y-64391212D02*
X118031250Y-63891250D01*
X117531250Y-63391250D02*
X116731250Y-63391250D01*
X118031250Y-63891250D02*
G75*
G03X117531250Y-63391250I-500000J0D01*
G01*
G04 #@! TO.C,D_4*
X137041250Y-63871250D02*
G75*
G03X136541250Y-63371250I-500000J0D01*
G01*
X136541250Y-63371250D02*
X135741250Y-63371250D01*
X137041250Y-64371212D02*
X137041250Y-63871250D01*
X136541250Y-64871250D02*
G75*
G03X137041250Y-64371250I0J500000D01*
G01*
X136541250Y-64871250D02*
X135741250Y-64871250D01*
X135241250Y-64371250D02*
G75*
G03X135741250Y-64871250I500000J0D01*
G01*
X135741250Y-63371250D02*
G75*
G03X135241250Y-63871250I0J-500000D01*
G01*
X135241250Y-63871288D02*
X135241250Y-64371250D01*
D12*
G36*
X136141250Y-62871250D02*
X136741250Y-62071250D01*
X135541250Y-62071250D01*
X136141250Y-62871250D01*
G37*
X136141250Y-62871250D02*
X136741250Y-62071250D01*
X135541250Y-62071250D01*
X136141250Y-62871250D01*
G04 #@! TO.C,D_5*
G36*
X155311250Y-62811250D02*
X155911250Y-62011250D01*
X154711250Y-62011250D01*
X155311250Y-62811250D01*
G37*
X155311250Y-62811250D02*
X155911250Y-62011250D01*
X154711250Y-62011250D01*
X155311250Y-62811250D01*
D11*
X154411250Y-63811288D02*
X154411250Y-64311250D01*
X154911250Y-63311250D02*
G75*
G03X154411250Y-63811250I0J-500000D01*
G01*
X154411250Y-64311250D02*
G75*
G03X154911250Y-64811250I500000J0D01*
G01*
X155711250Y-64811250D02*
X154911250Y-64811250D01*
X155711250Y-64811250D02*
G75*
G03X156211250Y-64311250I0J500000D01*
G01*
X156211250Y-64311212D02*
X156211250Y-63811250D01*
X155711250Y-63311250D02*
X154911250Y-63311250D01*
X156211250Y-63811250D02*
G75*
G03X155711250Y-63311250I-500000J0D01*
G01*
G04 #@! TO.C,D_6*
X175081250Y-63811250D02*
G75*
G03X174581250Y-63311250I-500000J0D01*
G01*
X174581250Y-63311250D02*
X173781250Y-63311250D01*
X175081250Y-64311212D02*
X175081250Y-63811250D01*
X174581250Y-64811250D02*
G75*
G03X175081250Y-64311250I0J500000D01*
G01*
X174581250Y-64811250D02*
X173781250Y-64811250D01*
X173281250Y-64311250D02*
G75*
G03X173781250Y-64811250I500000J0D01*
G01*
X173781250Y-63311250D02*
G75*
G03X173281250Y-63811250I0J-500000D01*
G01*
X173281250Y-63811288D02*
X173281250Y-64311250D01*
D12*
G36*
X174181250Y-62811250D02*
X174781250Y-62011250D01*
X173581250Y-62011250D01*
X174181250Y-62811250D01*
G37*
X174181250Y-62811250D02*
X174781250Y-62011250D01*
X173581250Y-62011250D01*
X174181250Y-62811250D01*
G04 #@! TO.C,D_7*
G36*
X193231250Y-62831250D02*
X193831250Y-62031250D01*
X192631250Y-62031250D01*
X193231250Y-62831250D01*
G37*
X193231250Y-62831250D02*
X193831250Y-62031250D01*
X192631250Y-62031250D01*
X193231250Y-62831250D01*
D11*
X192331250Y-63831288D02*
X192331250Y-64331250D01*
X192831250Y-63331250D02*
G75*
G03X192331250Y-63831250I0J-500000D01*
G01*
X192331250Y-64331250D02*
G75*
G03X192831250Y-64831250I500000J0D01*
G01*
X193631250Y-64831250D02*
X192831250Y-64831250D01*
X193631250Y-64831250D02*
G75*
G03X194131250Y-64331250I0J500000D01*
G01*
X194131250Y-64331212D02*
X194131250Y-63831250D01*
X193631250Y-63331250D02*
X192831250Y-63331250D01*
X194131250Y-63831250D02*
G75*
G03X193631250Y-63331250I-500000J0D01*
G01*
G04 #@! TO.C,D_8*
X212941250Y-63771250D02*
G75*
G03X212441250Y-63271250I-500000J0D01*
G01*
X212441250Y-63271250D02*
X211641250Y-63271250D01*
X212941250Y-64271212D02*
X212941250Y-63771250D01*
X212441250Y-64771250D02*
G75*
G03X212941250Y-64271250I0J500000D01*
G01*
X212441250Y-64771250D02*
X211641250Y-64771250D01*
X211141250Y-64271250D02*
G75*
G03X211641250Y-64771250I500000J0D01*
G01*
X211641250Y-63271250D02*
G75*
G03X211141250Y-63771250I0J-500000D01*
G01*
X211141250Y-63771288D02*
X211141250Y-64271250D01*
D12*
G36*
X212041250Y-62771250D02*
X212641250Y-61971250D01*
X211441250Y-61971250D01*
X212041250Y-62771250D01*
G37*
X212041250Y-62771250D02*
X212641250Y-61971250D01*
X211441250Y-61971250D01*
X212041250Y-62771250D01*
G04 #@! TO.C,D_9*
G36*
X230711250Y-62771250D02*
X231311250Y-61971250D01*
X230111250Y-61971250D01*
X230711250Y-62771250D01*
G37*
X230711250Y-62771250D02*
X231311250Y-61971250D01*
X230111250Y-61971250D01*
X230711250Y-62771250D01*
D11*
X229811250Y-63771288D02*
X229811250Y-64271250D01*
X230311250Y-63271250D02*
G75*
G03X229811250Y-63771250I0J-500000D01*
G01*
X229811250Y-64271250D02*
G75*
G03X230311250Y-64771250I500000J0D01*
G01*
X231111250Y-64771250D02*
X230311250Y-64771250D01*
X231111250Y-64771250D02*
G75*
G03X231611250Y-64271250I0J500000D01*
G01*
X231611250Y-64271212D02*
X231611250Y-63771250D01*
X231111250Y-63271250D02*
X230311250Y-63271250D01*
X231611250Y-63771250D02*
G75*
G03X231111250Y-63271250I-500000J0D01*
G01*
D12*
G04 #@! TO.C,D_&lt;I1*
G36*
X321881250Y-81991250D02*
X322481250Y-81191250D01*
X321281250Y-81191250D01*
X321881250Y-81991250D01*
G37*
X321881250Y-81991250D02*
X322481250Y-81191250D01*
X321281250Y-81191250D01*
X321881250Y-81991250D01*
D11*
X320981250Y-82991288D02*
X320981250Y-83491250D01*
X321481250Y-82491250D02*
G75*
G03X320981250Y-82991250I0J-500000D01*
G01*
X320981250Y-83491250D02*
G75*
G03X321481250Y-83991250I500000J0D01*
G01*
X322281250Y-83991250D02*
X321481250Y-83991250D01*
X322281250Y-83991250D02*
G75*
G03X322781250Y-83491250I0J500000D01*
G01*
X322781250Y-83491212D02*
X322781250Y-82991250D01*
X322281250Y-82491250D02*
X321481250Y-82491250D01*
X322781250Y-82991250D02*
G75*
G03X322281250Y-82491250I-500000J0D01*
G01*
D12*
G04 #@! TO.C,D_&lt;I2*
G36*
X115911250Y-139071250D02*
X116511250Y-138271250D01*
X115311250Y-138271250D01*
X115911250Y-139071250D01*
G37*
X115911250Y-139071250D02*
X116511250Y-138271250D01*
X115311250Y-138271250D01*
X115911250Y-139071250D01*
D11*
X115011250Y-140071288D02*
X115011250Y-140571250D01*
X115511250Y-139571250D02*
G75*
G03X115011250Y-140071250I0J-500000D01*
G01*
X115011250Y-140571250D02*
G75*
G03X115511250Y-141071250I500000J0D01*
G01*
X116311250Y-141071250D02*
X115511250Y-141071250D01*
X116311250Y-141071250D02*
G75*
G03X116811250Y-140571250I0J500000D01*
G01*
X116811250Y-140571212D02*
X116811250Y-140071250D01*
X116311250Y-139571250D02*
X115511250Y-139571250D01*
X116811250Y-140071250D02*
G75*
G03X116311250Y-139571250I-500000J0D01*
G01*
D12*
G04 #@! TO.C,D_&lt;I3*
G36*
X282511250Y-138971250D02*
X283111250Y-138171250D01*
X281911250Y-138171250D01*
X282511250Y-138971250D01*
G37*
X282511250Y-138971250D02*
X283111250Y-138171250D01*
X281911250Y-138171250D01*
X282511250Y-138971250D01*
D11*
X281611250Y-139971288D02*
X281611250Y-140471250D01*
X282111250Y-139471250D02*
G75*
G03X281611250Y-139971250I0J-500000D01*
G01*
X281611250Y-140471250D02*
G75*
G03X282111250Y-140971250I500000J0D01*
G01*
X282911250Y-140971250D02*
X282111250Y-140971250D01*
X282911250Y-140971250D02*
G75*
G03X283411250Y-140471250I0J500000D01*
G01*
X283411250Y-140471212D02*
X283411250Y-139971250D01*
X282911250Y-139471250D02*
X282111250Y-139471250D01*
X283411250Y-139971250D02*
G75*
G03X282911250Y-139471250I-500000J0D01*
G01*
D12*
G04 #@! TO.C,D_&lt;I_E1*
G36*
X60011250Y-62271250D02*
X60611250Y-61471250D01*
X59411250Y-61471250D01*
X60011250Y-62271250D01*
G37*
X60011250Y-62271250D02*
X60611250Y-61471250D01*
X59411250Y-61471250D01*
X60011250Y-62271250D01*
D11*
X59111250Y-63271288D02*
X59111250Y-63771250D01*
X59611250Y-62771250D02*
G75*
G03X59111250Y-63271250I0J-500000D01*
G01*
X59111250Y-63771250D02*
G75*
G03X59611250Y-64271250I500000J0D01*
G01*
X60411250Y-64271250D02*
X59611250Y-64271250D01*
X60411250Y-64271250D02*
G75*
G03X60911250Y-63771250I0J500000D01*
G01*
X60911250Y-63771212D02*
X60911250Y-63271250D01*
X60411250Y-62771250D02*
X59611250Y-62771250D01*
X60911250Y-63271250D02*
G75*
G03X60411250Y-62771250I-500000J0D01*
G01*
G04 #@! TO.C,D_`1*
X326311250Y-63771250D02*
G75*
G03X325811250Y-63271250I-500000J0D01*
G01*
X325811250Y-63271250D02*
X325011250Y-63271250D01*
X326311250Y-64271212D02*
X326311250Y-63771250D01*
X325811250Y-64771250D02*
G75*
G03X326311250Y-64271250I0J500000D01*
G01*
X325811250Y-64771250D02*
X325011250Y-64771250D01*
X324511250Y-64271250D02*
G75*
G03X325011250Y-64771250I500000J0D01*
G01*
X325011250Y-63271250D02*
G75*
G03X324511250Y-63771250I0J-500000D01*
G01*
X324511250Y-63771288D02*
X324511250Y-64271250D01*
D12*
G36*
X325411250Y-62771250D02*
X326011250Y-61971250D01*
X324811250Y-61971250D01*
X325411250Y-62771250D01*
G37*
X325411250Y-62771250D02*
X326011250Y-61971250D01*
X324811250Y-61971250D01*
X325411250Y-62771250D01*
G04 #@! TO.C,D_A1*
G36*
X92811250Y-101171250D02*
X93411250Y-100371250D01*
X92211250Y-100371250D01*
X92811250Y-101171250D01*
G37*
X92811250Y-101171250D02*
X93411250Y-100371250D01*
X92211250Y-100371250D01*
X92811250Y-101171250D01*
D11*
X91911250Y-102171288D02*
X91911250Y-102671250D01*
X92411250Y-101671250D02*
G75*
G03X91911250Y-102171250I0J-500000D01*
G01*
X91911250Y-102671250D02*
G75*
G03X92411250Y-103171250I500000J0D01*
G01*
X93211250Y-103171250D02*
X92411250Y-103171250D01*
X93211250Y-103171250D02*
G75*
G03X93711250Y-102671250I0J500000D01*
G01*
X93711250Y-102671212D02*
X93711250Y-102171250D01*
X93211250Y-101671250D02*
X92411250Y-101671250D01*
X93711250Y-102171250D02*
G75*
G03X93211250Y-101671250I-500000J0D01*
G01*
G04 #@! TO.C,D_ALT1*
X306911250Y-140171250D02*
G75*
G03X306411250Y-139671250I-500000J0D01*
G01*
X306411250Y-139671250D02*
X305611250Y-139671250D01*
X306911250Y-140671212D02*
X306911250Y-140171250D01*
X306411250Y-141171250D02*
G75*
G03X306911250Y-140671250I0J500000D01*
G01*
X306411250Y-141171250D02*
X305611250Y-141171250D01*
X305111250Y-140671250D02*
G75*
G03X305611250Y-141171250I500000J0D01*
G01*
X305611250Y-139671250D02*
G75*
G03X305111250Y-140171250I0J-500000D01*
G01*
X305111250Y-140171288D02*
X305111250Y-140671250D01*
D12*
G36*
X306011250Y-139171250D02*
X306611250Y-138371250D01*
X305411250Y-138371250D01*
X306011250Y-139171250D01*
G37*
X306011250Y-139171250D02*
X306611250Y-138371250D01*
X305411250Y-138371250D01*
X306011250Y-139171250D01*
D11*
G04 #@! TO.C,D_B1*
X179611250Y-120971250D02*
G75*
G03X179111250Y-120471250I-500000J0D01*
G01*
X179111250Y-120471250D02*
X178311250Y-120471250D01*
X179611250Y-121471212D02*
X179611250Y-120971250D01*
X179111250Y-121971250D02*
G75*
G03X179611250Y-121471250I0J500000D01*
G01*
X179111250Y-121971250D02*
X178311250Y-121971250D01*
X177811250Y-121471250D02*
G75*
G03X178311250Y-121971250I500000J0D01*
G01*
X178311250Y-120471250D02*
G75*
G03X177811250Y-120971250I0J-500000D01*
G01*
X177811250Y-120971288D02*
X177811250Y-121471250D01*
D12*
G36*
X178711250Y-119971250D02*
X179311250Y-119171250D01*
X178111250Y-119171250D01*
X178711250Y-119971250D01*
G37*
X178711250Y-119971250D02*
X179311250Y-119171250D01*
X178111250Y-119171250D01*
X178711250Y-119971250D01*
D11*
G04 #@! TO.C,D_BSLSH1*
X305200000Y-64200000D02*
G75*
G03X304700000Y-63700000I-500000J0D01*
G01*
X304700000Y-63700000D02*
X303900000Y-63700000D01*
X305200000Y-64699962D02*
X305200000Y-64200000D01*
X304700000Y-65200000D02*
G75*
G03X305200000Y-64700000I0J500000D01*
G01*
X304700000Y-65200000D02*
X303900000Y-65200000D01*
X303400000Y-64700000D02*
G75*
G03X303900000Y-65200000I500000J0D01*
G01*
X303900000Y-63700000D02*
G75*
G03X303400000Y-64200000I0J-500000D01*
G01*
X303400000Y-64200038D02*
X303400000Y-64700000D01*
D12*
G36*
X304300000Y-63200000D02*
X304900000Y-62400000D01*
X303700000Y-62400000D01*
X304300000Y-63200000D01*
G37*
X304300000Y-63200000D02*
X304900000Y-62400000D01*
X303700000Y-62400000D01*
X304300000Y-63200000D01*
D11*
G04 #@! TO.C,D_C1*
X141811250Y-121171250D02*
G75*
G03X141311250Y-120671250I-500000J0D01*
G01*
X141311250Y-120671250D02*
X140511250Y-120671250D01*
X141811250Y-121671212D02*
X141811250Y-121171250D01*
X141311250Y-122171250D02*
G75*
G03X141811250Y-121671250I0J500000D01*
G01*
X141311250Y-122171250D02*
X140511250Y-122171250D01*
X140011250Y-121671250D02*
G75*
G03X140511250Y-122171250I500000J0D01*
G01*
X140511250Y-120671250D02*
G75*
G03X140011250Y-121171250I0J-500000D01*
G01*
X140011250Y-121171288D02*
X140011250Y-121671250D01*
D12*
G36*
X140911250Y-120171250D02*
X141511250Y-119371250D01*
X140311250Y-119371250D01*
X140911250Y-120171250D01*
G37*
X140911250Y-120171250D02*
X141511250Y-119371250D01*
X140311250Y-119371250D01*
X140911250Y-120171250D01*
D11*
G04 #@! TO.C,D_CAPS1*
X61200000Y-102500000D02*
G75*
G03X60700000Y-102000000I-500000J0D01*
G01*
X60700000Y-102000000D02*
X59900000Y-102000000D01*
X61200000Y-102999962D02*
X61200000Y-102500000D01*
X60700000Y-103500000D02*
G75*
G03X61200000Y-103000000I0J500000D01*
G01*
X60700000Y-103500000D02*
X59900000Y-103500000D01*
X59400000Y-103000000D02*
G75*
G03X59900000Y-103500000I500000J0D01*
G01*
X59900000Y-102000000D02*
G75*
G03X59400000Y-102500000I0J-500000D01*
G01*
X59400000Y-102500038D02*
X59400000Y-103000000D01*
D12*
G36*
X60300000Y-101500000D02*
X60900000Y-100700000D01*
X59700000Y-100700000D01*
X60300000Y-101500000D01*
G37*
X60300000Y-101500000D02*
X60900000Y-100700000D01*
X59700000Y-100700000D01*
X60300000Y-101500000D01*
G04 #@! TO.C,D_CBRAC1*
G36*
X277911250Y-81901250D02*
X278511250Y-81101250D01*
X277311250Y-81101250D01*
X277911250Y-81901250D01*
G37*
X277911250Y-81901250D02*
X278511250Y-81101250D01*
X277311250Y-81101250D01*
X277911250Y-81901250D01*
D11*
X277011250Y-82901288D02*
X277011250Y-83401250D01*
X277511250Y-82401250D02*
G75*
G03X277011250Y-82901250I0J-500000D01*
G01*
X277011250Y-83401250D02*
G75*
G03X277511250Y-83901250I500000J0D01*
G01*
X278311250Y-83901250D02*
X277511250Y-83901250D01*
X278311250Y-83901250D02*
G75*
G03X278811250Y-83401250I0J500000D01*
G01*
X278811250Y-83401212D02*
X278811250Y-82901250D01*
X278311250Y-82401250D02*
X277511250Y-82401250D01*
X278811250Y-82901250D02*
G75*
G03X278311250Y-82401250I-500000J0D01*
G01*
D12*
G04 #@! TO.C,D_COMMA1*
G36*
X236211250Y-119971250D02*
X236811250Y-119171250D01*
X235611250Y-119171250D01*
X236211250Y-119971250D01*
G37*
X236211250Y-119971250D02*
X236811250Y-119171250D01*
X235611250Y-119171250D01*
X236211250Y-119971250D01*
D11*
X235311250Y-120971288D02*
X235311250Y-121471250D01*
X235811250Y-120471250D02*
G75*
G03X235311250Y-120971250I0J-500000D01*
G01*
X235311250Y-121471250D02*
G75*
G03X235811250Y-121971250I500000J0D01*
G01*
X236611250Y-121971250D02*
X235811250Y-121971250D01*
X236611250Y-121971250D02*
G75*
G03X237111250Y-121471250I0J500000D01*
G01*
X237111250Y-121471212D02*
X237111250Y-120971250D01*
X236611250Y-120471250D02*
X235811250Y-120471250D01*
X237111250Y-120971250D02*
G75*
G03X236611250Y-120471250I-500000J0D01*
G01*
D12*
G04 #@! TO.C,D_CTRL1*
G36*
X64211250Y-139171250D02*
X64811250Y-138371250D01*
X63611250Y-138371250D01*
X64211250Y-139171250D01*
G37*
X64211250Y-139171250D02*
X64811250Y-138371250D01*
X63611250Y-138371250D01*
X64211250Y-139171250D01*
D11*
X63311250Y-140171288D02*
X63311250Y-140671250D01*
X63811250Y-139671250D02*
G75*
G03X63311250Y-140171250I0J-500000D01*
G01*
X63311250Y-140671250D02*
G75*
G03X63811250Y-141171250I500000J0D01*
G01*
X64611250Y-141171250D02*
X63811250Y-141171250D01*
X64611250Y-141171250D02*
G75*
G03X65111250Y-140671250I0J500000D01*
G01*
X65111250Y-140671212D02*
X65111250Y-140171250D01*
X64611250Y-139671250D02*
X63811250Y-139671250D01*
X65111250Y-140171250D02*
G75*
G03X64611250Y-139671250I-500000J0D01*
G01*
D12*
G04 #@! TO.C,D_D1*
G36*
X130611250Y-101071250D02*
X131211250Y-100271250D01*
X130011250Y-100271250D01*
X130611250Y-101071250D01*
G37*
X130611250Y-101071250D02*
X131211250Y-100271250D01*
X130011250Y-100271250D01*
X130611250Y-101071250D01*
D11*
X129711250Y-102071288D02*
X129711250Y-102571250D01*
X130211250Y-101571250D02*
G75*
G03X129711250Y-102071250I0J-500000D01*
G01*
X129711250Y-102571250D02*
G75*
G03X130211250Y-103071250I500000J0D01*
G01*
X131011250Y-103071250D02*
X130211250Y-103071250D01*
X131011250Y-103071250D02*
G75*
G03X131511250Y-102571250I0J500000D01*
G01*
X131511250Y-102571212D02*
X131511250Y-102071250D01*
X131011250Y-101571250D02*
X130211250Y-101571250D01*
X131511250Y-102071250D02*
G75*
G03X131011250Y-101571250I-500000J0D01*
G01*
G04 #@! TO.C,D_DELETE1*
X351443750Y-80716250D02*
G75*
G03X350943750Y-80216250I-500000J0D01*
G01*
X350943750Y-80216250D02*
X350143750Y-80216250D01*
X351443750Y-81216212D02*
X351443750Y-80716250D01*
X350943750Y-81716250D02*
G75*
G03X351443750Y-81216250I0J500000D01*
G01*
X350943750Y-81716250D02*
X350143750Y-81716250D01*
X349643750Y-81216250D02*
G75*
G03X350143750Y-81716250I500000J0D01*
G01*
X350143750Y-80216250D02*
G75*
G03X349643750Y-80716250I0J-500000D01*
G01*
X349643750Y-80716288D02*
X349643750Y-81216250D01*
D12*
G36*
X350543750Y-79716250D02*
X351143750Y-78916250D01*
X349943750Y-78916250D01*
X350543750Y-79716250D01*
G37*
X350543750Y-79716250D02*
X351143750Y-78916250D01*
X349943750Y-78916250D01*
X350543750Y-79716250D01*
D11*
G04 #@! TO.C,D_DOT1*
X256193750Y-121071250D02*
G75*
G03X255693750Y-120571250I-500000J0D01*
G01*
X255693750Y-120571250D02*
X254893750Y-120571250D01*
X256193750Y-121571212D02*
X256193750Y-121071250D01*
X255693750Y-122071250D02*
G75*
G03X256193750Y-121571250I0J500000D01*
G01*
X255693750Y-122071250D02*
X254893750Y-122071250D01*
X254393750Y-121571250D02*
G75*
G03X254893750Y-122071250I500000J0D01*
G01*
X254893750Y-120571250D02*
G75*
G03X254393750Y-121071250I0J-500000D01*
G01*
X254393750Y-121071288D02*
X254393750Y-121571250D01*
D12*
G36*
X255293750Y-120071250D02*
X255893750Y-119271250D01*
X254693750Y-119271250D01*
X255293750Y-120071250D01*
G37*
X255293750Y-120071250D02*
X255893750Y-119271250D01*
X254693750Y-119271250D01*
X255293750Y-120071250D01*
D11*
G04 #@! TO.C,D_DOWN1*
X350211250Y-140171250D02*
G75*
G03X349711250Y-139671250I-500000J0D01*
G01*
X349711250Y-139671250D02*
X348911250Y-139671250D01*
X350211250Y-140671212D02*
X350211250Y-140171250D01*
X349711250Y-141171250D02*
G75*
G03X350211250Y-140671250I0J500000D01*
G01*
X349711250Y-141171250D02*
X348911250Y-141171250D01*
X348411250Y-140671250D02*
G75*
G03X348911250Y-141171250I500000J0D01*
G01*
X348911250Y-139671250D02*
G75*
G03X348411250Y-140171250I0J-500000D01*
G01*
X348411250Y-140171288D02*
X348411250Y-140671250D01*
D12*
G36*
X349311250Y-139171250D02*
X349911250Y-138371250D01*
X348711250Y-138371250D01*
X349311250Y-139171250D01*
G37*
X349311250Y-139171250D02*
X349911250Y-138371250D01*
X348711250Y-138371250D01*
X349311250Y-139171250D01*
G04 #@! TO.C,D_E1*
G36*
X127111250Y-81941250D02*
X127711250Y-81141250D01*
X126511250Y-81141250D01*
X127111250Y-81941250D01*
G37*
X127111250Y-81941250D02*
X127711250Y-81141250D01*
X126511250Y-81141250D01*
X127111250Y-81941250D01*
D11*
X126211250Y-82941288D02*
X126211250Y-83441250D01*
X126711250Y-82441250D02*
G75*
G03X126211250Y-82941250I0J-500000D01*
G01*
X126211250Y-83441250D02*
G75*
G03X126711250Y-83941250I500000J0D01*
G01*
X127511250Y-83941250D02*
X126711250Y-83941250D01*
X127511250Y-83941250D02*
G75*
G03X128011250Y-83441250I0J500000D01*
G01*
X128011250Y-83441212D02*
X128011250Y-82941250D01*
X127511250Y-82441250D02*
X126711250Y-82441250D01*
X128011250Y-82941250D02*
G75*
G03X127511250Y-82441250I-500000J0D01*
G01*
D12*
G04 #@! TO.C,D_END1*
G36*
X360561250Y-83181250D02*
X361361250Y-83781250D01*
X361361250Y-82581250D01*
X360561250Y-83181250D01*
G37*
X360561250Y-83181250D02*
X361361250Y-83781250D01*
X361361250Y-82581250D01*
X360561250Y-83181250D01*
D11*
X359561212Y-82281250D02*
X359061250Y-82281250D01*
X360061250Y-82781250D02*
G75*
G03X359561250Y-82281250I-500000J0D01*
G01*
X359061250Y-82281250D02*
G75*
G03X358561250Y-82781250I0J-500000D01*
G01*
X358561250Y-83581250D02*
X358561250Y-82781250D01*
X358561250Y-83581250D02*
G75*
G03X359061250Y-84081250I500000J0D01*
G01*
X359061288Y-84081250D02*
X359561250Y-84081250D01*
X360061250Y-83581250D02*
X360061250Y-82781250D01*
X359561250Y-84081250D02*
G75*
G03X360061250Y-83581250I0J500000D01*
G01*
G04 #@! TO.C,D_ENTER1*
X303491250Y-106161250D02*
G75*
G03X303991250Y-105661250I0J500000D01*
G01*
X303991250Y-105661250D02*
X303991250Y-104861250D01*
X302991288Y-106161250D02*
X303491250Y-106161250D01*
X302491250Y-105661250D02*
G75*
G03X302991250Y-106161250I500000J0D01*
G01*
X302491250Y-105661250D02*
X302491250Y-104861250D01*
X302991250Y-104361250D02*
G75*
G03X302491250Y-104861250I0J-500000D01*
G01*
X303991250Y-104861250D02*
G75*
G03X303491250Y-104361250I-500000J0D01*
G01*
X303491212Y-104361250D02*
X302991250Y-104361250D01*
D12*
G36*
X304491250Y-105261250D02*
X305291250Y-105861250D01*
X305291250Y-104661250D01*
X304491250Y-105261250D01*
G37*
X304491250Y-105261250D02*
X305291250Y-105861250D01*
X305291250Y-104661250D01*
X304491250Y-105261250D01*
G04 #@! TO.C,D_EQUAL1*
G36*
X288381250Y-62871250D02*
X288981250Y-62071250D01*
X287781250Y-62071250D01*
X288381250Y-62871250D01*
G37*
X288381250Y-62871250D02*
X288981250Y-62071250D01*
X287781250Y-62071250D01*
X288381250Y-62871250D01*
D11*
X287481250Y-63871288D02*
X287481250Y-64371250D01*
X287981250Y-63371250D02*
G75*
G03X287481250Y-63871250I0J-500000D01*
G01*
X287481250Y-64371250D02*
G75*
G03X287981250Y-64871250I500000J0D01*
G01*
X288781250Y-64871250D02*
X287981250Y-64871250D01*
X288781250Y-64871250D02*
G75*
G03X289281250Y-64371250I0J500000D01*
G01*
X289281250Y-64371212D02*
X289281250Y-63871250D01*
X288781250Y-63371250D02*
X287981250Y-63371250D01*
X289281250Y-63871250D02*
G75*
G03X288781250Y-63371250I-500000J0D01*
G01*
D12*
G04 #@! TO.C,D_F1*
G36*
X149611250Y-101071250D02*
X150211250Y-100271250D01*
X149011250Y-100271250D01*
X149611250Y-101071250D01*
G37*
X149611250Y-101071250D02*
X150211250Y-100271250D01*
X149011250Y-100271250D01*
X149611250Y-101071250D01*
D11*
X148711250Y-102071288D02*
X148711250Y-102571250D01*
X149211250Y-101571250D02*
G75*
G03X148711250Y-102071250I0J-500000D01*
G01*
X148711250Y-102571250D02*
G75*
G03X149211250Y-103071250I500000J0D01*
G01*
X150011250Y-103071250D02*
X149211250Y-103071250D01*
X150011250Y-103071250D02*
G75*
G03X150511250Y-102571250I0J500000D01*
G01*
X150511250Y-102571212D02*
X150511250Y-102071250D01*
X150011250Y-101571250D02*
X149211250Y-101571250D01*
X150511250Y-102071250D02*
G75*
G03X150011250Y-101571250I-500000J0D01*
G01*
D12*
G04 #@! TO.C,D_FN1*
G36*
X326731250Y-117816250D02*
X327331250Y-117016250D01*
X326131250Y-117016250D01*
X326731250Y-117816250D01*
G37*
X326731250Y-117816250D02*
X327331250Y-117016250D01*
X326131250Y-117016250D01*
X326731250Y-117816250D01*
D11*
X325831250Y-118816288D02*
X325831250Y-119316250D01*
X326331250Y-118316250D02*
G75*
G03X325831250Y-118816250I0J-500000D01*
G01*
X325831250Y-119316250D02*
G75*
G03X326331250Y-119816250I500000J0D01*
G01*
X327131250Y-119816250D02*
X326331250Y-119816250D01*
X327131250Y-119816250D02*
G75*
G03X327631250Y-119316250I0J500000D01*
G01*
X327631250Y-119316212D02*
X327631250Y-118816250D01*
X327131250Y-118316250D02*
X326331250Y-118316250D01*
X327631250Y-118816250D02*
G75*
G03X327131250Y-118316250I-500000J0D01*
G01*
G04 #@! TO.C,D_G1*
X169711250Y-101971250D02*
G75*
G03X169211250Y-101471250I-500000J0D01*
G01*
X169211250Y-101471250D02*
X168411250Y-101471250D01*
X169711250Y-102471212D02*
X169711250Y-101971250D01*
X169211250Y-102971250D02*
G75*
G03X169711250Y-102471250I0J500000D01*
G01*
X169211250Y-102971250D02*
X168411250Y-102971250D01*
X167911250Y-102471250D02*
G75*
G03X168411250Y-102971250I500000J0D01*
G01*
X168411250Y-101471250D02*
G75*
G03X167911250Y-101971250I0J-500000D01*
G01*
X167911250Y-101971288D02*
X167911250Y-102471250D01*
D12*
G36*
X168811250Y-100971250D02*
X169411250Y-100171250D01*
X168211250Y-100171250D01*
X168811250Y-100971250D01*
G37*
X168811250Y-100971250D02*
X169411250Y-100171250D01*
X168211250Y-100171250D01*
X168811250Y-100971250D01*
G04 #@! TO.C,D_H1*
G36*
X188411250Y-101071250D02*
X189011250Y-100271250D01*
X187811250Y-100271250D01*
X188411250Y-101071250D01*
G37*
X188411250Y-101071250D02*
X189011250Y-100271250D01*
X187811250Y-100271250D01*
X188411250Y-101071250D01*
D11*
X187511250Y-102071288D02*
X187511250Y-102571250D01*
X188011250Y-101571250D02*
G75*
G03X187511250Y-102071250I0J-500000D01*
G01*
X187511250Y-102571250D02*
G75*
G03X188011250Y-103071250I500000J0D01*
G01*
X188811250Y-103071250D02*
X188011250Y-103071250D01*
X188811250Y-103071250D02*
G75*
G03X189311250Y-102571250I0J500000D01*
G01*
X189311250Y-102571212D02*
X189311250Y-102071250D01*
X188811250Y-101571250D02*
X188011250Y-101571250D01*
X189311250Y-102071250D02*
G75*
G03X188811250Y-101571250I-500000J0D01*
G01*
D12*
G04 #@! TO.C,D_HOME1*
G36*
X367521250Y-62891250D02*
X368121250Y-62091250D01*
X366921250Y-62091250D01*
X367521250Y-62891250D01*
G37*
X367521250Y-62891250D02*
X368121250Y-62091250D01*
X366921250Y-62091250D01*
X367521250Y-62891250D01*
D11*
X366621250Y-63891288D02*
X366621250Y-64391250D01*
X367121250Y-63391250D02*
G75*
G03X366621250Y-63891250I0J-500000D01*
G01*
X366621250Y-64391250D02*
G75*
G03X367121250Y-64891250I500000J0D01*
G01*
X367921250Y-64891250D02*
X367121250Y-64891250D01*
X367921250Y-64891250D02*
G75*
G03X368421250Y-64391250I0J500000D01*
G01*
X368421250Y-64391212D02*
X368421250Y-63891250D01*
X367921250Y-63391250D02*
X367121250Y-63391250D01*
X368421250Y-63891250D02*
G75*
G03X367921250Y-63391250I-500000J0D01*
G01*
G04 #@! TO.C,D_I1*
X222491250Y-82901250D02*
G75*
G03X221991250Y-82401250I-500000J0D01*
G01*
X221991250Y-82401250D02*
X221191250Y-82401250D01*
X222491250Y-83401212D02*
X222491250Y-82901250D01*
X221991250Y-83901250D02*
G75*
G03X222491250Y-83401250I0J500000D01*
G01*
X221991250Y-83901250D02*
X221191250Y-83901250D01*
X220691250Y-83401250D02*
G75*
G03X221191250Y-83901250I500000J0D01*
G01*
X221191250Y-82401250D02*
G75*
G03X220691250Y-82901250I0J-500000D01*
G01*
X220691250Y-82901288D02*
X220691250Y-83401250D01*
D12*
G36*
X221591250Y-81901250D02*
X222191250Y-81101250D01*
X220991250Y-81101250D01*
X221591250Y-81901250D01*
G37*
X221591250Y-81901250D02*
X222191250Y-81101250D01*
X220991250Y-81101250D01*
X221591250Y-81901250D01*
D11*
G04 #@! TO.C,D_INSERT1*
X349491250Y-63911250D02*
G75*
G03X348991250Y-63411250I-500000J0D01*
G01*
X348991250Y-63411250D02*
X348191250Y-63411250D01*
X349491250Y-64411212D02*
X349491250Y-63911250D01*
X348991250Y-64911250D02*
G75*
G03X349491250Y-64411250I0J500000D01*
G01*
X348991250Y-64911250D02*
X348191250Y-64911250D01*
X347691250Y-64411250D02*
G75*
G03X348191250Y-64911250I500000J0D01*
G01*
X348191250Y-63411250D02*
G75*
G03X347691250Y-63911250I0J-500000D01*
G01*
X347691250Y-63911288D02*
X347691250Y-64411250D01*
D12*
G36*
X348591250Y-62911250D02*
X349191250Y-62111250D01*
X347991250Y-62111250D01*
X348591250Y-62911250D01*
G37*
X348591250Y-62911250D02*
X349191250Y-62111250D01*
X347991250Y-62111250D01*
X348591250Y-62911250D01*
D11*
G04 #@! TO.C,D_J1*
X208311250Y-102071250D02*
G75*
G03X207811250Y-101571250I-500000J0D01*
G01*
X207811250Y-101571250D02*
X207011250Y-101571250D01*
X208311250Y-102571212D02*
X208311250Y-102071250D01*
X207811250Y-103071250D02*
G75*
G03X208311250Y-102571250I0J500000D01*
G01*
X207811250Y-103071250D02*
X207011250Y-103071250D01*
X206511250Y-102571250D02*
G75*
G03X207011250Y-103071250I500000J0D01*
G01*
X207011250Y-101571250D02*
G75*
G03X206511250Y-102071250I0J-500000D01*
G01*
X206511250Y-102071288D02*
X206511250Y-102571250D01*
D12*
G36*
X207411250Y-101071250D02*
X208011250Y-100271250D01*
X206811250Y-100271250D01*
X207411250Y-101071250D01*
G37*
X207411250Y-101071250D02*
X208011250Y-100271250D01*
X206811250Y-100271250D01*
X207411250Y-101071250D01*
G04 #@! TO.C,D_K1*
G36*
X226411250Y-100971250D02*
X227011250Y-100171250D01*
X225811250Y-100171250D01*
X226411250Y-100971250D01*
G37*
X226411250Y-100971250D02*
X227011250Y-100171250D01*
X225811250Y-100171250D01*
X226411250Y-100971250D01*
D11*
X225511250Y-101971288D02*
X225511250Y-102471250D01*
X226011250Y-101471250D02*
G75*
G03X225511250Y-101971250I0J-500000D01*
G01*
X225511250Y-102471250D02*
G75*
G03X226011250Y-102971250I500000J0D01*
G01*
X226811250Y-102971250D02*
X226011250Y-102971250D01*
X226811250Y-102971250D02*
G75*
G03X227311250Y-102471250I0J500000D01*
G01*
X227311250Y-102471212D02*
X227311250Y-101971250D01*
X226811250Y-101471250D02*
X226011250Y-101471250D01*
X227311250Y-101971250D02*
G75*
G03X226811250Y-101471250I-500000J0D01*
G01*
G04 #@! TO.C,D_L1*
X246671250Y-101941250D02*
G75*
G03X246171250Y-101441250I-500000J0D01*
G01*
X246171250Y-101441250D02*
X245371250Y-101441250D01*
X246671250Y-102441212D02*
X246671250Y-101941250D01*
X246171250Y-102941250D02*
G75*
G03X246671250Y-102441250I0J500000D01*
G01*
X246171250Y-102941250D02*
X245371250Y-102941250D01*
X244871250Y-102441250D02*
G75*
G03X245371250Y-102941250I500000J0D01*
G01*
X245371250Y-101441250D02*
G75*
G03X244871250Y-101941250I0J-500000D01*
G01*
X244871250Y-101941288D02*
X244871250Y-102441250D01*
D12*
G36*
X245771250Y-100941250D02*
X246371250Y-100141250D01*
X245171250Y-100141250D01*
X245771250Y-100941250D01*
G37*
X245771250Y-100941250D02*
X246371250Y-100141250D01*
X245171250Y-100141250D01*
X245771250Y-100941250D01*
G04 #@! TO.C,D_LEFT1*
G36*
X330411250Y-139171250D02*
X331011250Y-138371250D01*
X329811250Y-138371250D01*
X330411250Y-139171250D01*
G37*
X330411250Y-139171250D02*
X331011250Y-138371250D01*
X329811250Y-138371250D01*
X330411250Y-139171250D01*
D11*
X329511250Y-140171288D02*
X329511250Y-140671250D01*
X330011250Y-139671250D02*
G75*
G03X329511250Y-140171250I0J-500000D01*
G01*
X329511250Y-140671250D02*
G75*
G03X330011250Y-141171250I500000J0D01*
G01*
X330811250Y-141171250D02*
X330011250Y-141171250D01*
X330811250Y-141171250D02*
G75*
G03X331311250Y-140671250I0J500000D01*
G01*
X331311250Y-140671212D02*
X331311250Y-140171250D01*
X330811250Y-139671250D02*
X330011250Y-139671250D01*
X331311250Y-140171250D02*
G75*
G03X330811250Y-139671250I-500000J0D01*
G01*
G04 #@! TO.C,D_M1*
X217711250Y-120971250D02*
G75*
G03X217211250Y-120471250I-500000J0D01*
G01*
X217211250Y-120471250D02*
X216411250Y-120471250D01*
X217711250Y-121471212D02*
X217711250Y-120971250D01*
X217211250Y-121971250D02*
G75*
G03X217711250Y-121471250I0J500000D01*
G01*
X217211250Y-121971250D02*
X216411250Y-121971250D01*
X215911250Y-121471250D02*
G75*
G03X216411250Y-121971250I500000J0D01*
G01*
X216411250Y-120471250D02*
G75*
G03X215911250Y-120971250I0J-500000D01*
G01*
X215911250Y-120971288D02*
X215911250Y-121471250D01*
D12*
G36*
X216811250Y-119971250D02*
X217411250Y-119171250D01*
X216211250Y-119171250D01*
X216811250Y-119971250D01*
G37*
X216811250Y-119971250D02*
X217411250Y-119171250D01*
X216211250Y-119171250D01*
X216811250Y-119971250D01*
G04 #@! TO.C,D_MINUS1*
G36*
X269421250Y-62871250D02*
X270021250Y-62071250D01*
X268821250Y-62071250D01*
X269421250Y-62871250D01*
G37*
X269421250Y-62871250D02*
X270021250Y-62071250D01*
X268821250Y-62071250D01*
X269421250Y-62871250D01*
D11*
X268521250Y-63871288D02*
X268521250Y-64371250D01*
X269021250Y-63371250D02*
G75*
G03X268521250Y-63871250I0J-500000D01*
G01*
X268521250Y-64371250D02*
G75*
G03X269021250Y-64871250I500000J0D01*
G01*
X269821250Y-64871250D02*
X269021250Y-64871250D01*
X269821250Y-64871250D02*
G75*
G03X270321250Y-64371250I0J500000D01*
G01*
X270321250Y-64371212D02*
X270321250Y-63871250D01*
X269821250Y-63371250D02*
X269021250Y-63371250D01*
X270321250Y-63871250D02*
G75*
G03X269821250Y-63371250I-500000J0D01*
G01*
D12*
G04 #@! TO.C,D_N1*
G36*
X197511250Y-120071250D02*
X198111250Y-119271250D01*
X196911250Y-119271250D01*
X197511250Y-120071250D01*
G37*
X197511250Y-120071250D02*
X198111250Y-119271250D01*
X196911250Y-119271250D01*
X197511250Y-120071250D01*
D11*
X196611250Y-121071288D02*
X196611250Y-121571250D01*
X197111250Y-120571250D02*
G75*
G03X196611250Y-121071250I0J-500000D01*
G01*
X196611250Y-121571250D02*
G75*
G03X197111250Y-122071250I500000J0D01*
G01*
X197911250Y-122071250D02*
X197111250Y-122071250D01*
X197911250Y-122071250D02*
G75*
G03X198411250Y-121571250I0J500000D01*
G01*
X198411250Y-121571212D02*
X198411250Y-121071250D01*
X197911250Y-120571250D02*
X197111250Y-120571250D01*
X198411250Y-121071250D02*
G75*
G03X197911250Y-120571250I-500000J0D01*
G01*
D12*
G04 #@! TO.C,D_O1*
G36*
X240571250Y-81971250D02*
X241171250Y-81171250D01*
X239971250Y-81171250D01*
X240571250Y-81971250D01*
G37*
X240571250Y-81971250D02*
X241171250Y-81171250D01*
X239971250Y-81171250D01*
X240571250Y-81971250D01*
D11*
X239671250Y-82971288D02*
X239671250Y-83471250D01*
X240171250Y-82471250D02*
G75*
G03X239671250Y-82971250I0J-500000D01*
G01*
X239671250Y-83471250D02*
G75*
G03X240171250Y-83971250I500000J0D01*
G01*
X240971250Y-83971250D02*
X240171250Y-83971250D01*
X240971250Y-83971250D02*
G75*
G03X241471250Y-83471250I0J500000D01*
G01*
X241471250Y-83471212D02*
X241471250Y-82971250D01*
X240971250Y-82471250D02*
X240171250Y-82471250D01*
X241471250Y-82971250D02*
G75*
G03X240971250Y-82471250I-500000J0D01*
G01*
G04 #@! TO.C,D_OBRAC1*
X297591250Y-82991250D02*
G75*
G03X297091250Y-82491250I-500000J0D01*
G01*
X297091250Y-82491250D02*
X296291250Y-82491250D01*
X297591250Y-83491212D02*
X297591250Y-82991250D01*
X297091250Y-83991250D02*
G75*
G03X297591250Y-83491250I0J500000D01*
G01*
X297091250Y-83991250D02*
X296291250Y-83991250D01*
X295791250Y-83491250D02*
G75*
G03X296291250Y-83991250I500000J0D01*
G01*
X296291250Y-82491250D02*
G75*
G03X295791250Y-82991250I0J-500000D01*
G01*
X295791250Y-82991288D02*
X295791250Y-83491250D01*
D12*
G36*
X296691250Y-81991250D02*
X297291250Y-81191250D01*
X296091250Y-81191250D01*
X296691250Y-81991250D01*
G37*
X296691250Y-81991250D02*
X297291250Y-81191250D01*
X296091250Y-81191250D01*
X296691250Y-81991250D01*
D11*
G04 #@! TO.C,D_P1*
X259621250Y-82971250D02*
G75*
G03X259121250Y-82471250I-500000J0D01*
G01*
X259121250Y-82471250D02*
X258321250Y-82471250D01*
X259621250Y-83471212D02*
X259621250Y-82971250D01*
X259121250Y-83971250D02*
G75*
G03X259621250Y-83471250I0J500000D01*
G01*
X259121250Y-83971250D02*
X258321250Y-83971250D01*
X257821250Y-83471250D02*
G75*
G03X258321250Y-83971250I500000J0D01*
G01*
X258321250Y-82471250D02*
G75*
G03X257821250Y-82971250I0J-500000D01*
G01*
X257821250Y-82971288D02*
X257821250Y-83471250D01*
D12*
G36*
X258721250Y-81971250D02*
X259321250Y-81171250D01*
X258121250Y-81171250D01*
X258721250Y-81971250D01*
G37*
X258721250Y-81971250D02*
X259321250Y-81171250D01*
X258121250Y-81171250D01*
X258721250Y-81971250D01*
D11*
G04 #@! TO.C,D_Q1*
X89191250Y-82951250D02*
G75*
G03X88691250Y-82451250I-500000J0D01*
G01*
X88691250Y-82451250D02*
X87891250Y-82451250D01*
X89191250Y-83451212D02*
X89191250Y-82951250D01*
X88691250Y-83951250D02*
G75*
G03X89191250Y-83451250I0J500000D01*
G01*
X88691250Y-83951250D02*
X87891250Y-83951250D01*
X87391250Y-83451250D02*
G75*
G03X87891250Y-83951250I500000J0D01*
G01*
X87891250Y-82451250D02*
G75*
G03X87391250Y-82951250I0J-500000D01*
G01*
X87391250Y-82951288D02*
X87391250Y-83451250D01*
D12*
G36*
X88291250Y-81951250D02*
X88891250Y-81151250D01*
X87691250Y-81151250D01*
X88291250Y-81951250D01*
G37*
X88291250Y-81951250D02*
X88891250Y-81151250D01*
X87691250Y-81151250D01*
X88291250Y-81951250D01*
D11*
G04 #@! TO.C,D_QUOTE1*
X284601250Y-102011250D02*
G75*
G03X284101250Y-101511250I-500000J0D01*
G01*
X284101250Y-101511250D02*
X283301250Y-101511250D01*
X284601250Y-102511212D02*
X284601250Y-102011250D01*
X284101250Y-103011250D02*
G75*
G03X284601250Y-102511250I0J500000D01*
G01*
X284101250Y-103011250D02*
X283301250Y-103011250D01*
X282801250Y-102511250D02*
G75*
G03X283301250Y-103011250I500000J0D01*
G01*
X283301250Y-101511250D02*
G75*
G03X282801250Y-102011250I0J-500000D01*
G01*
X282801250Y-102011288D02*
X282801250Y-102511250D01*
D12*
G36*
X283701250Y-101011250D02*
X284301250Y-100211250D01*
X283101250Y-100211250D01*
X283701250Y-101011250D01*
G37*
X283701250Y-101011250D02*
X284301250Y-100211250D01*
X283101250Y-100211250D01*
X283701250Y-101011250D01*
G04 #@! TO.C,D_R1*
G36*
X145421250Y-81881250D02*
X146021250Y-81081250D01*
X144821250Y-81081250D01*
X145421250Y-81881250D01*
G37*
X145421250Y-81881250D02*
X146021250Y-81081250D01*
X144821250Y-81081250D01*
X145421250Y-81881250D01*
D11*
X144521250Y-82881288D02*
X144521250Y-83381250D01*
X145021250Y-82381250D02*
G75*
G03X144521250Y-82881250I0J-500000D01*
G01*
X144521250Y-83381250D02*
G75*
G03X145021250Y-83881250I500000J0D01*
G01*
X145821250Y-83881250D02*
X145021250Y-83881250D01*
X145821250Y-83881250D02*
G75*
G03X146321250Y-83381250I0J500000D01*
G01*
X146321250Y-83381212D02*
X146321250Y-82881250D01*
X145821250Y-82381250D02*
X145021250Y-82381250D01*
X146321250Y-82881250D02*
G75*
G03X145821250Y-82381250I-500000J0D01*
G01*
D12*
G04 #@! TO.C,D_RIGHT1*
G36*
X367411250Y-139071250D02*
X368011250Y-138271250D01*
X366811250Y-138271250D01*
X367411250Y-139071250D01*
G37*
X367411250Y-139071250D02*
X368011250Y-138271250D01*
X366811250Y-138271250D01*
X367411250Y-139071250D01*
D11*
X366511250Y-140071288D02*
X366511250Y-140571250D01*
X367011250Y-139571250D02*
G75*
G03X366511250Y-140071250I0J-500000D01*
G01*
X366511250Y-140571250D02*
G75*
G03X367011250Y-141071250I500000J0D01*
G01*
X367811250Y-141071250D02*
X367011250Y-141071250D01*
X367811250Y-141071250D02*
G75*
G03X368311250Y-140571250I0J500000D01*
G01*
X368311250Y-140571212D02*
X368311250Y-140071250D01*
X367811250Y-139571250D02*
X367011250Y-139571250D01*
X368311250Y-140071250D02*
G75*
G03X367811250Y-139571250I-500000J0D01*
G01*
G04 #@! TO.C,D_S1*
X112511250Y-102071250D02*
G75*
G03X112011250Y-101571250I-500000J0D01*
G01*
X112011250Y-101571250D02*
X111211250Y-101571250D01*
X112511250Y-102571212D02*
X112511250Y-102071250D01*
X112011250Y-103071250D02*
G75*
G03X112511250Y-102571250I0J500000D01*
G01*
X112011250Y-103071250D02*
X111211250Y-103071250D01*
X110711250Y-102571250D02*
G75*
G03X111211250Y-103071250I500000J0D01*
G01*
X111211250Y-101571250D02*
G75*
G03X110711250Y-102071250I0J-500000D01*
G01*
X110711250Y-102071288D02*
X110711250Y-102571250D01*
D12*
G36*
X111611250Y-101071250D02*
X112211250Y-100271250D01*
X111011250Y-100271250D01*
X111611250Y-101071250D01*
G37*
X111611250Y-101071250D02*
X112211250Y-100271250D01*
X111011250Y-100271250D01*
X111611250Y-101071250D01*
G04 #@! TO.C,D_SEMIC1*
G36*
X264701250Y-100941250D02*
X265301250Y-100141250D01*
X264101250Y-100141250D01*
X264701250Y-100941250D01*
G37*
X264701250Y-100941250D02*
X265301250Y-100141250D01*
X264101250Y-100141250D01*
X264701250Y-100941250D01*
D11*
X263801250Y-101941288D02*
X263801250Y-102441250D01*
X264301250Y-101441250D02*
G75*
G03X263801250Y-101941250I0J-500000D01*
G01*
X263801250Y-102441250D02*
G75*
G03X264301250Y-102941250I500000J0D01*
G01*
X265101250Y-102941250D02*
X264301250Y-102941250D01*
X265101250Y-102941250D02*
G75*
G03X265601250Y-102441250I0J500000D01*
G01*
X265601250Y-102441212D02*
X265601250Y-101941250D01*
X265101250Y-101441250D02*
X264301250Y-101441250D01*
X265601250Y-101941250D02*
G75*
G03X265101250Y-101441250I-500000J0D01*
G01*
G04 #@! TO.C,D_SHIFT1*
X300011250Y-121071250D02*
G75*
G03X299511250Y-120571250I-500000J0D01*
G01*
X299511250Y-120571250D02*
X298711250Y-120571250D01*
X300011250Y-121571212D02*
X300011250Y-121071250D01*
X299511250Y-122071250D02*
G75*
G03X300011250Y-121571250I0J500000D01*
G01*
X299511250Y-122071250D02*
X298711250Y-122071250D01*
X298211250Y-121571250D02*
G75*
G03X298711250Y-122071250I500000J0D01*
G01*
X298711250Y-120571250D02*
G75*
G03X298211250Y-121071250I0J-500000D01*
G01*
X298211250Y-121071288D02*
X298211250Y-121571250D01*
D12*
G36*
X299111250Y-120071250D02*
X299711250Y-119271250D01*
X298511250Y-119271250D01*
X299111250Y-120071250D01*
G37*
X299111250Y-120071250D02*
X299711250Y-119271250D01*
X298511250Y-119271250D01*
X299111250Y-120071250D01*
D11*
G04 #@! TO.C,D_SHIFT2*
X70411250Y-120071250D02*
G75*
G03X69911250Y-119571250I-500000J0D01*
G01*
X69911250Y-119571250D02*
X69111250Y-119571250D01*
X70411250Y-120571212D02*
X70411250Y-120071250D01*
X69911250Y-121071250D02*
G75*
G03X70411250Y-120571250I0J500000D01*
G01*
X69911250Y-121071250D02*
X69111250Y-121071250D01*
X68611250Y-120571250D02*
G75*
G03X69111250Y-121071250I500000J0D01*
G01*
X69111250Y-119571250D02*
G75*
G03X68611250Y-120071250I0J-500000D01*
G01*
X68611250Y-120071288D02*
X68611250Y-120571250D01*
D12*
G36*
X69511250Y-119071250D02*
X70111250Y-118271250D01*
X68911250Y-118271250D01*
X69511250Y-119071250D01*
G37*
X69511250Y-119071250D02*
X70111250Y-118271250D01*
X68911250Y-118271250D01*
X69511250Y-119071250D01*
G04 #@! TO.C,D_SLASH1*
G36*
X274311250Y-120071250D02*
X274911250Y-119271250D01*
X273711250Y-119271250D01*
X274311250Y-120071250D01*
G37*
X274311250Y-120071250D02*
X274911250Y-119271250D01*
X273711250Y-119271250D01*
X274311250Y-120071250D01*
D11*
X273411250Y-121071288D02*
X273411250Y-121571250D01*
X273911250Y-120571250D02*
G75*
G03X273411250Y-121071250I0J-500000D01*
G01*
X273411250Y-121571250D02*
G75*
G03X273911250Y-122071250I500000J0D01*
G01*
X274711250Y-122071250D02*
X273911250Y-122071250D01*
X274711250Y-122071250D02*
G75*
G03X275211250Y-121571250I0J500000D01*
G01*
X275211250Y-121571212D02*
X275211250Y-121071250D01*
X274711250Y-120571250D02*
X273911250Y-120571250D01*
X275211250Y-121071250D02*
G75*
G03X274711250Y-120571250I-500000J0D01*
G01*
G04 #@! TO.C,D_SPACE1*
X179611250Y-143071250D02*
G75*
G03X179111250Y-142571250I-500000J0D01*
G01*
X179111250Y-142571250D02*
X178311250Y-142571250D01*
X179611250Y-143571212D02*
X179611250Y-143071250D01*
X179111250Y-144071250D02*
G75*
G03X179611250Y-143571250I0J500000D01*
G01*
X179111250Y-144071250D02*
X178311250Y-144071250D01*
X177811250Y-143571250D02*
G75*
G03X178311250Y-144071250I500000J0D01*
G01*
X178311250Y-142571250D02*
G75*
G03X177811250Y-143071250I0J-500000D01*
G01*
X177811250Y-143071288D02*
X177811250Y-143571250D01*
D12*
G36*
X178711250Y-142071250D02*
X179311250Y-141271250D01*
X178111250Y-141271250D01*
X178711250Y-142071250D01*
G37*
X178711250Y-142071250D02*
X179311250Y-141271250D01*
X178111250Y-141271250D01*
X178711250Y-142071250D01*
G04 #@! TO.C,D_T1*
G36*
X164771250Y-81961250D02*
X165371250Y-81161250D01*
X164171250Y-81161250D01*
X164771250Y-81961250D01*
G37*
X164771250Y-81961250D02*
X165371250Y-81161250D01*
X164171250Y-81161250D01*
X164771250Y-81961250D01*
D11*
X163871250Y-82961288D02*
X163871250Y-83461250D01*
X164371250Y-82461250D02*
G75*
G03X163871250Y-82961250I0J-500000D01*
G01*
X163871250Y-83461250D02*
G75*
G03X164371250Y-83961250I500000J0D01*
G01*
X165171250Y-83961250D02*
X164371250Y-83961250D01*
X165171250Y-83961250D02*
G75*
G03X165671250Y-83461250I0J500000D01*
G01*
X165671250Y-83461212D02*
X165671250Y-82961250D01*
X165171250Y-82461250D02*
X164371250Y-82461250D01*
X165671250Y-82961250D02*
G75*
G03X165171250Y-82461250I-500000J0D01*
G01*
D12*
G04 #@! TO.C,D_TAB1*
G36*
X54761250Y-84201250D02*
X55561250Y-84801250D01*
X55561250Y-83601250D01*
X54761250Y-84201250D01*
G37*
X54761250Y-84201250D02*
X55561250Y-84801250D01*
X55561250Y-83601250D01*
X54761250Y-84201250D01*
D11*
X53761212Y-83301250D02*
X53261250Y-83301250D01*
X54261250Y-83801250D02*
G75*
G03X53761250Y-83301250I-500000J0D01*
G01*
X53261250Y-83301250D02*
G75*
G03X52761250Y-83801250I0J-500000D01*
G01*
X52761250Y-84601250D02*
X52761250Y-83801250D01*
X52761250Y-84601250D02*
G75*
G03X53261250Y-85101250I500000J0D01*
G01*
X53261288Y-85101250D02*
X53761250Y-85101250D01*
X54261250Y-84601250D02*
X54261250Y-83801250D01*
X53761250Y-85101250D02*
G75*
G03X54261250Y-84601250I0J500000D01*
G01*
D12*
G04 #@! TO.C,D_U1*
G36*
X202351250Y-81961250D02*
X202951250Y-81161250D01*
X201751250Y-81161250D01*
X202351250Y-81961250D01*
G37*
X202351250Y-81961250D02*
X202951250Y-81161250D01*
X201751250Y-81161250D01*
X202351250Y-81961250D01*
D11*
X201451250Y-82961288D02*
X201451250Y-83461250D01*
X201951250Y-82461250D02*
G75*
G03X201451250Y-82961250I0J-500000D01*
G01*
X201451250Y-83461250D02*
G75*
G03X201951250Y-83961250I500000J0D01*
G01*
X202751250Y-83961250D02*
X201951250Y-83961250D01*
X202751250Y-83961250D02*
G75*
G03X203251250Y-83461250I0J500000D01*
G01*
X203251250Y-83461212D02*
X203251250Y-82961250D01*
X202751250Y-82461250D02*
X201951250Y-82461250D01*
X203251250Y-82961250D02*
G75*
G03X202751250Y-82461250I-500000J0D01*
G01*
G04 #@! TO.C,D_UP1*
X351443750Y-118816250D02*
G75*
G03X350943750Y-118316250I-500000J0D01*
G01*
X350943750Y-118316250D02*
X350143750Y-118316250D01*
X351443750Y-119316212D02*
X351443750Y-118816250D01*
X350943750Y-119816250D02*
G75*
G03X351443750Y-119316250I0J500000D01*
G01*
X350943750Y-119816250D02*
X350143750Y-119816250D01*
X349643750Y-119316250D02*
G75*
G03X350143750Y-119816250I500000J0D01*
G01*
X350143750Y-118316250D02*
G75*
G03X349643750Y-118816250I0J-500000D01*
G01*
X349643750Y-118816288D02*
X349643750Y-119316250D01*
D12*
G36*
X350543750Y-117816250D02*
X351143750Y-117016250D01*
X349943750Y-117016250D01*
X350543750Y-117816250D01*
G37*
X350543750Y-117816250D02*
X351143750Y-117016250D01*
X349943750Y-117016250D01*
X350543750Y-117816250D01*
G04 #@! TO.C,D_V1*
G36*
X160011250Y-120071250D02*
X160611250Y-119271250D01*
X159411250Y-119271250D01*
X160011250Y-120071250D01*
G37*
X160011250Y-120071250D02*
X160611250Y-119271250D01*
X159411250Y-119271250D01*
X160011250Y-120071250D01*
D11*
X159111250Y-121071288D02*
X159111250Y-121571250D01*
X159611250Y-120571250D02*
G75*
G03X159111250Y-121071250I0J-500000D01*
G01*
X159111250Y-121571250D02*
G75*
G03X159611250Y-122071250I500000J0D01*
G01*
X160411250Y-122071250D02*
X159611250Y-122071250D01*
X160411250Y-122071250D02*
G75*
G03X160911250Y-121571250I0J500000D01*
G01*
X160911250Y-121571212D02*
X160911250Y-121071250D01*
X160411250Y-120571250D02*
X159611250Y-120571250D01*
X160911250Y-121071250D02*
G75*
G03X160411250Y-120571250I-500000J0D01*
G01*
G04 #@! TO.C,D_W1*
X108841250Y-82941250D02*
G75*
G03X108341250Y-82441250I-500000J0D01*
G01*
X108341250Y-82441250D02*
X107541250Y-82441250D01*
X108841250Y-83441212D02*
X108841250Y-82941250D01*
X108341250Y-83941250D02*
G75*
G03X108841250Y-83441250I0J500000D01*
G01*
X108341250Y-83941250D02*
X107541250Y-83941250D01*
X107041250Y-83441250D02*
G75*
G03X107541250Y-83941250I500000J0D01*
G01*
X107541250Y-82441250D02*
G75*
G03X107041250Y-82941250I0J-500000D01*
G01*
X107041250Y-82941288D02*
X107041250Y-83441250D01*
D12*
G36*
X107941250Y-81941250D02*
X108541250Y-81141250D01*
X107341250Y-81141250D01*
X107941250Y-81941250D01*
G37*
X107941250Y-81941250D02*
X108541250Y-81141250D01*
X107341250Y-81141250D01*
X107941250Y-81941250D01*
D11*
G04 #@! TO.C,D_WIN1*
X94211250Y-140171250D02*
G75*
G03X93711250Y-139671250I-500000J0D01*
G01*
X93711250Y-139671250D02*
X92911250Y-139671250D01*
X94211250Y-140671212D02*
X94211250Y-140171250D01*
X93711250Y-141171250D02*
G75*
G03X94211250Y-140671250I0J500000D01*
G01*
X93711250Y-141171250D02*
X92911250Y-141171250D01*
X92411250Y-140671250D02*
G75*
G03X92911250Y-141171250I500000J0D01*
G01*
X92911250Y-139671250D02*
G75*
G03X92411250Y-140171250I0J-500000D01*
G01*
X92411250Y-140171288D02*
X92411250Y-140671250D01*
D12*
G36*
X93311250Y-139171250D02*
X93911250Y-138371250D01*
X92711250Y-138371250D01*
X93311250Y-139171250D01*
G37*
X93311250Y-139171250D02*
X93911250Y-138371250D01*
X92711250Y-138371250D01*
X93311250Y-139171250D01*
G04 #@! TO.C,D_X1*
G36*
X121811250Y-119971250D02*
X122411250Y-119171250D01*
X121211250Y-119171250D01*
X121811250Y-119971250D01*
G37*
X121811250Y-119971250D02*
X122411250Y-119171250D01*
X121211250Y-119171250D01*
X121811250Y-119971250D01*
D11*
X120911250Y-120971288D02*
X120911250Y-121471250D01*
X121411250Y-120471250D02*
G75*
G03X120911250Y-120971250I0J-500000D01*
G01*
X120911250Y-121471250D02*
G75*
G03X121411250Y-121971250I500000J0D01*
G01*
X122211250Y-121971250D02*
X121411250Y-121971250D01*
X122211250Y-121971250D02*
G75*
G03X122711250Y-121471250I0J500000D01*
G01*
X122711250Y-121471212D02*
X122711250Y-120971250D01*
X122211250Y-120471250D02*
X121411250Y-120471250D01*
X122711250Y-120971250D02*
G75*
G03X122211250Y-120471250I-500000J0D01*
G01*
G04 #@! TO.C,D_Y1*
X184411250Y-83021250D02*
G75*
G03X183911250Y-82521250I-500000J0D01*
G01*
X183911250Y-82521250D02*
X183111250Y-82521250D01*
X184411250Y-83521212D02*
X184411250Y-83021250D01*
X183911250Y-84021250D02*
G75*
G03X184411250Y-83521250I0J500000D01*
G01*
X183911250Y-84021250D02*
X183111250Y-84021250D01*
X182611250Y-83521250D02*
G75*
G03X183111250Y-84021250I500000J0D01*
G01*
X183111250Y-82521250D02*
G75*
G03X182611250Y-83021250I0J-500000D01*
G01*
X182611250Y-83021288D02*
X182611250Y-83521250D01*
D12*
G36*
X183511250Y-82021250D02*
X184111250Y-81221250D01*
X182911250Y-81221250D01*
X183511250Y-82021250D01*
G37*
X183511250Y-82021250D02*
X184111250Y-81221250D01*
X182911250Y-81221250D01*
X183511250Y-82021250D01*
D11*
G04 #@! TO.C,D_Z1*
X103711250Y-120971250D02*
G75*
G03X103211250Y-120471250I-500000J0D01*
G01*
X103211250Y-120471250D02*
X102411250Y-120471250D01*
X103711250Y-121471212D02*
X103711250Y-120971250D01*
X103211250Y-121971250D02*
G75*
G03X103711250Y-121471250I0J500000D01*
G01*
X103211250Y-121971250D02*
X102411250Y-121971250D01*
X101911250Y-121471250D02*
G75*
G03X102411250Y-121971250I500000J0D01*
G01*
X102411250Y-120471250D02*
G75*
G03X101911250Y-120971250I0J-500000D01*
G01*
X101911250Y-120971288D02*
X101911250Y-121471250D01*
D12*
G36*
X102811250Y-119971250D02*
X103411250Y-119171250D01*
X102211250Y-119171250D01*
X102811250Y-119971250D01*
G37*
X102811250Y-119971250D02*
X103411250Y-119171250D01*
X102211250Y-119171250D01*
X102811250Y-119971250D01*
G04 #@! TO.C,X1*
G36*
X339091250Y-85471250D02*
X340091250Y-85471250D01*
X340091250Y-84471250D01*
X339091250Y-85471250D01*
G37*
X339091250Y-85471250D02*
X340091250Y-85471250D01*
X340091250Y-84471250D01*
X339091250Y-85471250D01*
D11*
G04 #@! TO.C,D_R_ALT_STD_1*
X252600000Y-134000000D02*
G75*
G03X252100000Y-133500000I-500000J0D01*
G01*
X252100000Y-133500000D02*
X251300000Y-133500000D01*
X252600000Y-134499962D02*
X252600000Y-134000000D01*
X252100000Y-135000000D02*
G75*
G03X252600000Y-134500000I0J500000D01*
G01*
X252100000Y-135000000D02*
X251300000Y-135000000D01*
X250800000Y-134500000D02*
G75*
G03X251300000Y-135000000I500000J0D01*
G01*
X251300000Y-133500000D02*
G75*
G03X250800000Y-134000000I0J-500000D01*
G01*
X250800000Y-134000038D02*
X250800000Y-134500000D01*
D12*
G36*
X251700000Y-133000000D02*
X252300000Y-132200000D01*
X251100000Y-132200000D01*
X251700000Y-133000000D01*
G37*
X251700000Y-133000000D02*
X252300000Y-132200000D01*
X251100000Y-132200000D01*
X251700000Y-133000000D01*
D10*
G04 #@! TO.C,ESD1*
X204360000Y-105410000D02*
X204360000Y-107210000D01*
X201140000Y-107210000D02*
X201140000Y-104760000D01*
G04 #@! TO.C,R5*
X204598748Y-52640000D02*
X205121252Y-52640000D01*
X204598748Y-51220000D02*
X205121252Y-51220000D01*
G04 #@! TO.C,R6*
X210431252Y-53480000D02*
X209908748Y-53480000D01*
X210431252Y-52060000D02*
X209908748Y-52060000D01*
G04 #@! TO.C,C1*
D11*
X337348392Y-87294583D02*
X337396011Y-87246964D01*
X337443630Y-87104107D01*
X337443630Y-87008869D01*
X337396011Y-86866011D01*
X337300773Y-86770773D01*
X337205535Y-86723154D01*
X337015059Y-86675535D01*
X336872202Y-86675535D01*
X336681726Y-86723154D01*
X336586488Y-86770773D01*
X336491250Y-86866011D01*
X336443630Y-87008869D01*
X336443630Y-87104107D01*
X336491250Y-87246964D01*
X336538869Y-87294583D01*
X337443630Y-88246964D02*
X337443630Y-87675535D01*
X337443630Y-87961250D02*
X336443630Y-87961250D01*
X336586488Y-87866011D01*
X336681726Y-87770773D01*
X336729345Y-87675535D01*
G04 #@! TO.C,C2*
X349588392Y-87414583D02*
X349636011Y-87366964D01*
X349683630Y-87224107D01*
X349683630Y-87128869D01*
X349636011Y-86986011D01*
X349540773Y-86890773D01*
X349445535Y-86843154D01*
X349255059Y-86795535D01*
X349112202Y-86795535D01*
X348921726Y-86843154D01*
X348826488Y-86890773D01*
X348731250Y-86986011D01*
X348683630Y-87128869D01*
X348683630Y-87224107D01*
X348731250Y-87366964D01*
X348778869Y-87414583D01*
X348778869Y-87795535D02*
X348731250Y-87843154D01*
X348683630Y-87938392D01*
X348683630Y-88176488D01*
X348731250Y-88271726D01*
X348778869Y-88319345D01*
X348874107Y-88366964D01*
X348969345Y-88366964D01*
X349112202Y-88319345D01*
X349683630Y-87747916D01*
X349683630Y-88366964D01*
G04 #@! TO.C,R1*
X328593630Y-94874583D02*
X328117440Y-94541250D01*
X328593630Y-94303154D02*
X327593630Y-94303154D01*
X327593630Y-94684107D01*
X327641250Y-94779345D01*
X327688869Y-94826964D01*
X327784107Y-94874583D01*
X327926964Y-94874583D01*
X328022202Y-94826964D01*
X328069821Y-94779345D01*
X328117440Y-94684107D01*
X328117440Y-94303154D01*
X328593630Y-95826964D02*
X328593630Y-95255535D01*
X328593630Y-95541250D02*
X327593630Y-95541250D01*
X327736488Y-95446011D01*
X327831726Y-95350773D01*
X327879345Y-95255535D01*
G04 #@! TO.C,RESET1*
X321073630Y-95222678D02*
X320597440Y-94889345D01*
X321073630Y-94651250D02*
X320073630Y-94651250D01*
X320073630Y-95032202D01*
X320121250Y-95127440D01*
X320168869Y-95175059D01*
X320264107Y-95222678D01*
X320406964Y-95222678D01*
X320502202Y-95175059D01*
X320549821Y-95127440D01*
X320597440Y-95032202D01*
X320597440Y-94651250D01*
X320549821Y-95651250D02*
X320549821Y-95984583D01*
X321073630Y-96127440D02*
X321073630Y-95651250D01*
X320073630Y-95651250D01*
X320073630Y-96127440D01*
X321026011Y-96508392D02*
X321073630Y-96651250D01*
X321073630Y-96889345D01*
X321026011Y-96984583D01*
X320978392Y-97032202D01*
X320883154Y-97079821D01*
X320787916Y-97079821D01*
X320692678Y-97032202D01*
X320645059Y-96984583D01*
X320597440Y-96889345D01*
X320549821Y-96698869D01*
X320502202Y-96603630D01*
X320454583Y-96556011D01*
X320359345Y-96508392D01*
X320264107Y-96508392D01*
X320168869Y-96556011D01*
X320121250Y-96603630D01*
X320073630Y-96698869D01*
X320073630Y-96936964D01*
X320121250Y-97079821D01*
X320549821Y-97508392D02*
X320549821Y-97841726D01*
X321073630Y-97984583D02*
X321073630Y-97508392D01*
X320073630Y-97508392D01*
X320073630Y-97984583D01*
X320073630Y-98270297D02*
X320073630Y-98841726D01*
X321073630Y-98556011D02*
X320073630Y-98556011D01*
X321073630Y-99698869D02*
X321073630Y-99127440D01*
X321073630Y-99413154D02*
X320073630Y-99413154D01*
X320216488Y-99317916D01*
X320311726Y-99222678D01*
X320359345Y-99127440D01*
G04 #@! TO.C,R2*
X353633630Y-103514583D02*
X353157440Y-103181250D01*
X353633630Y-102943154D02*
X352633630Y-102943154D01*
X352633630Y-103324107D01*
X352681250Y-103419345D01*
X352728869Y-103466964D01*
X352824107Y-103514583D01*
X352966964Y-103514583D01*
X353062202Y-103466964D01*
X353109821Y-103419345D01*
X353157440Y-103324107D01*
X353157440Y-102943154D01*
X352728869Y-103895535D02*
X352681250Y-103943154D01*
X352633630Y-104038392D01*
X352633630Y-104276488D01*
X352681250Y-104371726D01*
X352728869Y-104419345D01*
X352824107Y-104466964D01*
X352919345Y-104466964D01*
X353062202Y-104419345D01*
X353633630Y-103847916D01*
X353633630Y-104466964D01*
G04 #@! TO.C,R3*
X331077916Y-100733630D02*
X331411250Y-100257440D01*
X331649345Y-100733630D02*
X331649345Y-99733630D01*
X331268392Y-99733630D01*
X331173154Y-99781250D01*
X331125535Y-99828869D01*
X331077916Y-99924107D01*
X331077916Y-100066964D01*
X331125535Y-100162202D01*
X331173154Y-100209821D01*
X331268392Y-100257440D01*
X331649345Y-100257440D01*
X330744583Y-99733630D02*
X330125535Y-99733630D01*
X330458869Y-100114583D01*
X330316011Y-100114583D01*
X330220773Y-100162202D01*
X330173154Y-100209821D01*
X330125535Y-100305059D01*
X330125535Y-100543154D01*
X330173154Y-100638392D01*
X330220773Y-100686011D01*
X330316011Y-100733630D01*
X330601726Y-100733630D01*
X330696964Y-100686011D01*
X330744583Y-100638392D01*
G04 #@! TO.C,R4*
X329537916Y-98753630D02*
X329871250Y-98277440D01*
X330109345Y-98753630D02*
X330109345Y-97753630D01*
X329728392Y-97753630D01*
X329633154Y-97801250D01*
X329585535Y-97848869D01*
X329537916Y-97944107D01*
X329537916Y-98086964D01*
X329585535Y-98182202D01*
X329633154Y-98229821D01*
X329728392Y-98277440D01*
X330109345Y-98277440D01*
X328680773Y-98086964D02*
X328680773Y-98753630D01*
X328918869Y-97706011D02*
X329156964Y-98420297D01*
X328537916Y-98420297D01*
G04 #@! TO.C,C3*
X334018392Y-94874583D02*
X334066011Y-94826964D01*
X334113630Y-94684107D01*
X334113630Y-94588869D01*
X334066011Y-94446011D01*
X333970773Y-94350773D01*
X333875535Y-94303154D01*
X333685059Y-94255535D01*
X333542202Y-94255535D01*
X333351726Y-94303154D01*
X333256488Y-94350773D01*
X333161250Y-94446011D01*
X333113630Y-94588869D01*
X333113630Y-94684107D01*
X333161250Y-94826964D01*
X333208869Y-94874583D01*
X333113630Y-95207916D02*
X333113630Y-95826964D01*
X333494583Y-95493630D01*
X333494583Y-95636488D01*
X333542202Y-95731726D01*
X333589821Y-95779345D01*
X333685059Y-95826964D01*
X333923154Y-95826964D01*
X334018392Y-95779345D01*
X334066011Y-95731726D01*
X334113630Y-95636488D01*
X334113630Y-95350773D01*
X334066011Y-95255535D01*
X334018392Y-95207916D01*
G04 #@! TO.C,U1*
X344573154Y-105263630D02*
X344573154Y-106073154D01*
X344525535Y-106168392D01*
X344477916Y-106216011D01*
X344382678Y-106263630D01*
X344192202Y-106263630D01*
X344096964Y-106216011D01*
X344049345Y-106168392D01*
X344001726Y-106073154D01*
X344001726Y-105263630D01*
X343001726Y-106263630D02*
X343573154Y-106263630D01*
X343287440Y-106263630D02*
X343287440Y-105263630D01*
X343382678Y-105406488D01*
X343477916Y-105501726D01*
X343573154Y-105549345D01*
G04 #@! TO.C,C4*
X353588392Y-93609583D02*
X353636011Y-93561964D01*
X353683630Y-93419107D01*
X353683630Y-93323869D01*
X353636011Y-93181011D01*
X353540773Y-93085773D01*
X353445535Y-93038154D01*
X353255059Y-92990535D01*
X353112202Y-92990535D01*
X352921726Y-93038154D01*
X352826488Y-93085773D01*
X352731250Y-93181011D01*
X352683630Y-93323869D01*
X352683630Y-93419107D01*
X352731250Y-93561964D01*
X352778869Y-93609583D01*
X353016964Y-94466726D02*
X353683630Y-94466726D01*
X352636011Y-94228630D02*
X353350297Y-93990535D01*
X353350297Y-94609583D01*
G04 #@! TO.C,C5*
X338177916Y-108478392D02*
X338225535Y-108526011D01*
X338368392Y-108573630D01*
X338463630Y-108573630D01*
X338606488Y-108526011D01*
X338701726Y-108430773D01*
X338749345Y-108335535D01*
X338796964Y-108145059D01*
X338796964Y-108002202D01*
X338749345Y-107811726D01*
X338701726Y-107716488D01*
X338606488Y-107621250D01*
X338463630Y-107573630D01*
X338368392Y-107573630D01*
X338225535Y-107621250D01*
X338177916Y-107668869D01*
X337273154Y-107573630D02*
X337749345Y-107573630D01*
X337796964Y-108049821D01*
X337749345Y-108002202D01*
X337654107Y-107954583D01*
X337416011Y-107954583D01*
X337320773Y-108002202D01*
X337273154Y-108049821D01*
X337225535Y-108145059D01*
X337225535Y-108383154D01*
X337273154Y-108478392D01*
X337320773Y-108526011D01*
X337416011Y-108573630D01*
X337654107Y-108573630D01*
X337749345Y-108526011D01*
X337796964Y-108478392D01*
G04 #@! TO.C,C6*
X338698392Y-87294583D02*
X338746011Y-87246964D01*
X338793630Y-87104107D01*
X338793630Y-87008869D01*
X338746011Y-86866011D01*
X338650773Y-86770773D01*
X338555535Y-86723154D01*
X338365059Y-86675535D01*
X338222202Y-86675535D01*
X338031726Y-86723154D01*
X337936488Y-86770773D01*
X337841250Y-86866011D01*
X337793630Y-87008869D01*
X337793630Y-87104107D01*
X337841250Y-87246964D01*
X337888869Y-87294583D01*
X337793630Y-88151726D02*
X337793630Y-87961250D01*
X337841250Y-87866011D01*
X337888869Y-87818392D01*
X338031726Y-87723154D01*
X338222202Y-87675535D01*
X338603154Y-87675535D01*
X338698392Y-87723154D01*
X338746011Y-87770773D01*
X338793630Y-87866011D01*
X338793630Y-88056488D01*
X338746011Y-88151726D01*
X338698392Y-88199345D01*
X338603154Y-88246964D01*
X338365059Y-88246964D01*
X338269821Y-88199345D01*
X338222202Y-88151726D01*
X338174583Y-88056488D01*
X338174583Y-87866011D01*
X338222202Y-87770773D01*
X338269821Y-87723154D01*
X338365059Y-87675535D01*
G04 #@! TO.C,C7*
X347457916Y-105808392D02*
X347505535Y-105856011D01*
X347648392Y-105903630D01*
X347743630Y-105903630D01*
X347886488Y-105856011D01*
X347981726Y-105760773D01*
X348029345Y-105665535D01*
X348076964Y-105475059D01*
X348076964Y-105332202D01*
X348029345Y-105141726D01*
X347981726Y-105046488D01*
X347886488Y-104951250D01*
X347743630Y-104903630D01*
X347648392Y-104903630D01*
X347505535Y-104951250D01*
X347457916Y-104998869D01*
X347124583Y-104903630D02*
X346457916Y-104903630D01*
X346886488Y-105903630D01*
G04 #@! TO.C,C8*
X331287916Y-96608392D02*
X331335535Y-96656011D01*
X331478392Y-96703630D01*
X331573630Y-96703630D01*
X331716488Y-96656011D01*
X331811726Y-96560773D01*
X331859345Y-96465535D01*
X331906964Y-96275059D01*
X331906964Y-96132202D01*
X331859345Y-95941726D01*
X331811726Y-95846488D01*
X331716488Y-95751250D01*
X331573630Y-95703630D01*
X331478392Y-95703630D01*
X331335535Y-95751250D01*
X331287916Y-95798869D01*
X330716488Y-96132202D02*
X330811726Y-96084583D01*
X330859345Y-96036964D01*
X330906964Y-95941726D01*
X330906964Y-95894107D01*
X330859345Y-95798869D01*
X330811726Y-95751250D01*
X330716488Y-95703630D01*
X330526011Y-95703630D01*
X330430773Y-95751250D01*
X330383154Y-95798869D01*
X330335535Y-95894107D01*
X330335535Y-95941726D01*
X330383154Y-96036964D01*
X330430773Y-96084583D01*
X330526011Y-96132202D01*
X330716488Y-96132202D01*
X330811726Y-96179821D01*
X330859345Y-96227440D01*
X330906964Y-96322678D01*
X330906964Y-96513154D01*
X330859345Y-96608392D01*
X330811726Y-96656011D01*
X330716488Y-96703630D01*
X330526011Y-96703630D01*
X330430773Y-96656011D01*
X330383154Y-96608392D01*
X330335535Y-96513154D01*
X330335535Y-96322678D01*
X330383154Y-96227440D01*
X330430773Y-96179821D01*
X330526011Y-96132202D01*
G04 #@! TO.C,D_0*
D13*
X251649345Y-63376488D02*
X252449345Y-63376488D01*
X252449345Y-63186011D01*
X252411250Y-63071726D01*
X252335059Y-62995535D01*
X252258869Y-62957440D01*
X252106488Y-62919345D01*
X251992202Y-62919345D01*
X251839821Y-62957440D01*
X251763630Y-62995535D01*
X251687440Y-63071726D01*
X251649345Y-63186011D01*
X251649345Y-63376488D01*
X251573154Y-62766964D02*
X251573154Y-62157440D01*
X252449345Y-61814583D02*
X252449345Y-61738392D01*
X252411250Y-61662202D01*
X252373154Y-61624107D01*
X252296964Y-61586011D01*
X252144583Y-61547916D01*
X251954107Y-61547916D01*
X251801726Y-61586011D01*
X251725535Y-61624107D01*
X251687440Y-61662202D01*
X251649345Y-61738392D01*
X251649345Y-61814583D01*
X251687440Y-61890773D01*
X251725535Y-61928869D01*
X251801726Y-61966964D01*
X251954107Y-62005059D01*
X252144583Y-62005059D01*
X252296964Y-61966964D01*
X252373154Y-61928869D01*
X252411250Y-61890773D01*
X252449345Y-61814583D01*
G04 #@! TO.C,D_1*
X80679345Y-63376488D02*
X81479345Y-63376488D01*
X81479345Y-63186011D01*
X81441250Y-63071726D01*
X81365059Y-62995535D01*
X81288869Y-62957440D01*
X81136488Y-62919345D01*
X81022202Y-62919345D01*
X80869821Y-62957440D01*
X80793630Y-62995535D01*
X80717440Y-63071726D01*
X80679345Y-63186011D01*
X80679345Y-63376488D01*
X80603154Y-62766964D02*
X80603154Y-62157440D01*
X80679345Y-61547916D02*
X80679345Y-62005059D01*
X80679345Y-61776488D02*
X81479345Y-61776488D01*
X81365059Y-61852678D01*
X81288869Y-61928869D01*
X81250773Y-62005059D01*
G04 #@! TO.C,D_2*
X99529345Y-63356488D02*
X100329345Y-63356488D01*
X100329345Y-63166011D01*
X100291250Y-63051726D01*
X100215059Y-62975535D01*
X100138869Y-62937440D01*
X99986488Y-62899345D01*
X99872202Y-62899345D01*
X99719821Y-62937440D01*
X99643630Y-62975535D01*
X99567440Y-63051726D01*
X99529345Y-63166011D01*
X99529345Y-63356488D01*
X99453154Y-62746964D02*
X99453154Y-62137440D01*
X100253154Y-61985059D02*
X100291250Y-61946964D01*
X100329345Y-61870773D01*
X100329345Y-61680297D01*
X100291250Y-61604107D01*
X100253154Y-61566011D01*
X100176964Y-61527916D01*
X100100773Y-61527916D01*
X99986488Y-61566011D01*
X99529345Y-62023154D01*
X99529345Y-61527916D01*
G04 #@! TO.C,D_3*
X118569345Y-63386488D02*
X119369345Y-63386488D01*
X119369345Y-63196011D01*
X119331250Y-63081726D01*
X119255059Y-63005535D01*
X119178869Y-62967440D01*
X119026488Y-62929345D01*
X118912202Y-62929345D01*
X118759821Y-62967440D01*
X118683630Y-63005535D01*
X118607440Y-63081726D01*
X118569345Y-63196011D01*
X118569345Y-63386488D01*
X118493154Y-62776964D02*
X118493154Y-62167440D01*
X119369345Y-62053154D02*
X119369345Y-61557916D01*
X119064583Y-61824583D01*
X119064583Y-61710297D01*
X119026488Y-61634107D01*
X118988392Y-61596011D01*
X118912202Y-61557916D01*
X118721726Y-61557916D01*
X118645535Y-61596011D01*
X118607440Y-61634107D01*
X118569345Y-61710297D01*
X118569345Y-61938869D01*
X118607440Y-62015059D01*
X118645535Y-62053154D01*
G04 #@! TO.C,D_4*
X137579345Y-63366488D02*
X138379345Y-63366488D01*
X138379345Y-63176011D01*
X138341250Y-63061726D01*
X138265059Y-62985535D01*
X138188869Y-62947440D01*
X138036488Y-62909345D01*
X137922202Y-62909345D01*
X137769821Y-62947440D01*
X137693630Y-62985535D01*
X137617440Y-63061726D01*
X137579345Y-63176011D01*
X137579345Y-63366488D01*
X137503154Y-62756964D02*
X137503154Y-62147440D01*
X138112678Y-61614107D02*
X137579345Y-61614107D01*
X138417440Y-61804583D02*
X137846011Y-61995059D01*
X137846011Y-61499821D01*
G04 #@! TO.C,D_5*
X156749345Y-63306488D02*
X157549345Y-63306488D01*
X157549345Y-63116011D01*
X157511250Y-63001726D01*
X157435059Y-62925535D01*
X157358869Y-62887440D01*
X157206488Y-62849345D01*
X157092202Y-62849345D01*
X156939821Y-62887440D01*
X156863630Y-62925535D01*
X156787440Y-63001726D01*
X156749345Y-63116011D01*
X156749345Y-63306488D01*
X156673154Y-62696964D02*
X156673154Y-62087440D01*
X157549345Y-61516011D02*
X157549345Y-61896964D01*
X157168392Y-61935059D01*
X157206488Y-61896964D01*
X157244583Y-61820773D01*
X157244583Y-61630297D01*
X157206488Y-61554107D01*
X157168392Y-61516011D01*
X157092202Y-61477916D01*
X156901726Y-61477916D01*
X156825535Y-61516011D01*
X156787440Y-61554107D01*
X156749345Y-61630297D01*
X156749345Y-61820773D01*
X156787440Y-61896964D01*
X156825535Y-61935059D01*
G04 #@! TO.C,D_6*
X175619345Y-63306488D02*
X176419345Y-63306488D01*
X176419345Y-63116011D01*
X176381250Y-63001726D01*
X176305059Y-62925535D01*
X176228869Y-62887440D01*
X176076488Y-62849345D01*
X175962202Y-62849345D01*
X175809821Y-62887440D01*
X175733630Y-62925535D01*
X175657440Y-63001726D01*
X175619345Y-63116011D01*
X175619345Y-63306488D01*
X175543154Y-62696964D02*
X175543154Y-62087440D01*
X176419345Y-61554107D02*
X176419345Y-61706488D01*
X176381250Y-61782678D01*
X176343154Y-61820773D01*
X176228869Y-61896964D01*
X176076488Y-61935059D01*
X175771726Y-61935059D01*
X175695535Y-61896964D01*
X175657440Y-61858869D01*
X175619345Y-61782678D01*
X175619345Y-61630297D01*
X175657440Y-61554107D01*
X175695535Y-61516011D01*
X175771726Y-61477916D01*
X175962202Y-61477916D01*
X176038392Y-61516011D01*
X176076488Y-61554107D01*
X176114583Y-61630297D01*
X176114583Y-61782678D01*
X176076488Y-61858869D01*
X176038392Y-61896964D01*
X175962202Y-61935059D01*
G04 #@! TO.C,D_7*
X194669345Y-63326488D02*
X195469345Y-63326488D01*
X195469345Y-63136011D01*
X195431250Y-63021726D01*
X195355059Y-62945535D01*
X195278869Y-62907440D01*
X195126488Y-62869345D01*
X195012202Y-62869345D01*
X194859821Y-62907440D01*
X194783630Y-62945535D01*
X194707440Y-63021726D01*
X194669345Y-63136011D01*
X194669345Y-63326488D01*
X194593154Y-62716964D02*
X194593154Y-62107440D01*
X195469345Y-61993154D02*
X195469345Y-61459821D01*
X194669345Y-61802678D01*
G04 #@! TO.C,D_8*
X213479345Y-63266488D02*
X214279345Y-63266488D01*
X214279345Y-63076011D01*
X214241250Y-62961726D01*
X214165059Y-62885535D01*
X214088869Y-62847440D01*
X213936488Y-62809345D01*
X213822202Y-62809345D01*
X213669821Y-62847440D01*
X213593630Y-62885535D01*
X213517440Y-62961726D01*
X213479345Y-63076011D01*
X213479345Y-63266488D01*
X213403154Y-62656964D02*
X213403154Y-62047440D01*
X213936488Y-61742678D02*
X213974583Y-61818869D01*
X214012678Y-61856964D01*
X214088869Y-61895059D01*
X214126964Y-61895059D01*
X214203154Y-61856964D01*
X214241250Y-61818869D01*
X214279345Y-61742678D01*
X214279345Y-61590297D01*
X214241250Y-61514107D01*
X214203154Y-61476011D01*
X214126964Y-61437916D01*
X214088869Y-61437916D01*
X214012678Y-61476011D01*
X213974583Y-61514107D01*
X213936488Y-61590297D01*
X213936488Y-61742678D01*
X213898392Y-61818869D01*
X213860297Y-61856964D01*
X213784107Y-61895059D01*
X213631726Y-61895059D01*
X213555535Y-61856964D01*
X213517440Y-61818869D01*
X213479345Y-61742678D01*
X213479345Y-61590297D01*
X213517440Y-61514107D01*
X213555535Y-61476011D01*
X213631726Y-61437916D01*
X213784107Y-61437916D01*
X213860297Y-61476011D01*
X213898392Y-61514107D01*
X213936488Y-61590297D01*
G04 #@! TO.C,D_9*
X232149345Y-63266488D02*
X232949345Y-63266488D01*
X232949345Y-63076011D01*
X232911250Y-62961726D01*
X232835059Y-62885535D01*
X232758869Y-62847440D01*
X232606488Y-62809345D01*
X232492202Y-62809345D01*
X232339821Y-62847440D01*
X232263630Y-62885535D01*
X232187440Y-62961726D01*
X232149345Y-63076011D01*
X232149345Y-63266488D01*
X232073154Y-62656964D02*
X232073154Y-62047440D01*
X232149345Y-61818869D02*
X232149345Y-61666488D01*
X232187440Y-61590297D01*
X232225535Y-61552202D01*
X232339821Y-61476011D01*
X232492202Y-61437916D01*
X232796964Y-61437916D01*
X232873154Y-61476011D01*
X232911250Y-61514107D01*
X232949345Y-61590297D01*
X232949345Y-61742678D01*
X232911250Y-61818869D01*
X232873154Y-61856964D01*
X232796964Y-61895059D01*
X232606488Y-61895059D01*
X232530297Y-61856964D01*
X232492202Y-61818869D01*
X232454107Y-61742678D01*
X232454107Y-61590297D01*
X232492202Y-61514107D01*
X232530297Y-61476011D01*
X232606488Y-61437916D01*
G04 #@! TO.C,D_&lt;I1*
X323319345Y-83800773D02*
X324119345Y-83800773D01*
X324119345Y-83610297D01*
X324081250Y-83496011D01*
X324005059Y-83419821D01*
X323928869Y-83381726D01*
X323776488Y-83343630D01*
X323662202Y-83343630D01*
X323509821Y-83381726D01*
X323433630Y-83419821D01*
X323357440Y-83496011D01*
X323319345Y-83610297D01*
X323319345Y-83800773D01*
X323243154Y-83191250D02*
X323243154Y-82581726D01*
X323319345Y-81743630D02*
X323319345Y-81781726D01*
X323357440Y-81857916D01*
X323471726Y-81972202D01*
X323700297Y-82162678D01*
X323814583Y-82238869D01*
X323928869Y-82276964D01*
X324005059Y-82276964D01*
X324081250Y-82238869D01*
X324119345Y-82162678D01*
X324119345Y-82124583D01*
X324081250Y-82048392D01*
X324005059Y-82010297D01*
X323966964Y-82010297D01*
X323890773Y-82048392D01*
X323852678Y-82086488D01*
X323700297Y-82315059D01*
X323662202Y-82353154D01*
X323586011Y-82391250D01*
X323471726Y-82391250D01*
X323395535Y-82353154D01*
X323357440Y-82315059D01*
X323319345Y-82238869D01*
X323319345Y-82124583D01*
X323357440Y-82048392D01*
X323395535Y-82010297D01*
X323547916Y-81896011D01*
X323662202Y-81857916D01*
X323738392Y-81857916D01*
X323319345Y-81286488D02*
X323357440Y-81362678D01*
X323433630Y-81400773D01*
X324119345Y-81400773D01*
X323852678Y-81096011D02*
X323852678Y-80791250D01*
X324119345Y-80981726D02*
X323433630Y-80981726D01*
X323357440Y-80943630D01*
X323319345Y-80867440D01*
X323319345Y-80791250D01*
X323357440Y-80486488D02*
X323319345Y-80486488D01*
X323243154Y-80524583D01*
X323205059Y-80562678D01*
X323814583Y-80524583D02*
X323776488Y-80486488D01*
X323738392Y-80524583D01*
X323776488Y-80562678D01*
X323814583Y-80524583D01*
X323738392Y-80524583D01*
X323319345Y-80143630D02*
X324119345Y-80143630D01*
X323319345Y-79343630D02*
X323319345Y-79800773D01*
X323319345Y-79572202D02*
X324119345Y-79572202D01*
X324005059Y-79648392D01*
X323928869Y-79724583D01*
X323890773Y-79800773D01*
G04 #@! TO.C,D_&lt;I2*
X117349345Y-140880773D02*
X118149345Y-140880773D01*
X118149345Y-140690297D01*
X118111250Y-140576011D01*
X118035059Y-140499821D01*
X117958869Y-140461726D01*
X117806488Y-140423630D01*
X117692202Y-140423630D01*
X117539821Y-140461726D01*
X117463630Y-140499821D01*
X117387440Y-140576011D01*
X117349345Y-140690297D01*
X117349345Y-140880773D01*
X117273154Y-140271250D02*
X117273154Y-139661726D01*
X117349345Y-138823630D02*
X117349345Y-138861726D01*
X117387440Y-138937916D01*
X117501726Y-139052202D01*
X117730297Y-139242678D01*
X117844583Y-139318869D01*
X117958869Y-139356964D01*
X118035059Y-139356964D01*
X118111250Y-139318869D01*
X118149345Y-139242678D01*
X118149345Y-139204583D01*
X118111250Y-139128392D01*
X118035059Y-139090297D01*
X117996964Y-139090297D01*
X117920773Y-139128392D01*
X117882678Y-139166488D01*
X117730297Y-139395059D01*
X117692202Y-139433154D01*
X117616011Y-139471250D01*
X117501726Y-139471250D01*
X117425535Y-139433154D01*
X117387440Y-139395059D01*
X117349345Y-139318869D01*
X117349345Y-139204583D01*
X117387440Y-139128392D01*
X117425535Y-139090297D01*
X117577916Y-138976011D01*
X117692202Y-138937916D01*
X117768392Y-138937916D01*
X117349345Y-138366488D02*
X117387440Y-138442678D01*
X117463630Y-138480773D01*
X118149345Y-138480773D01*
X117882678Y-138176011D02*
X117882678Y-137871250D01*
X118149345Y-138061726D02*
X117463630Y-138061726D01*
X117387440Y-138023630D01*
X117349345Y-137947440D01*
X117349345Y-137871250D01*
X117387440Y-137566488D02*
X117349345Y-137566488D01*
X117273154Y-137604583D01*
X117235059Y-137642678D01*
X117844583Y-137604583D02*
X117806488Y-137566488D01*
X117768392Y-137604583D01*
X117806488Y-137642678D01*
X117844583Y-137604583D01*
X117768392Y-137604583D01*
X117349345Y-137223630D02*
X118149345Y-137223630D01*
X118073154Y-136880773D02*
X118111250Y-136842678D01*
X118149345Y-136766488D01*
X118149345Y-136576011D01*
X118111250Y-136499821D01*
X118073154Y-136461726D01*
X117996964Y-136423630D01*
X117920773Y-136423630D01*
X117806488Y-136461726D01*
X117349345Y-136918869D01*
X117349345Y-136423630D01*
G04 #@! TO.C,D_&lt;I3*
X283949345Y-140780773D02*
X284749345Y-140780773D01*
X284749345Y-140590297D01*
X284711250Y-140476011D01*
X284635059Y-140399821D01*
X284558869Y-140361726D01*
X284406488Y-140323630D01*
X284292202Y-140323630D01*
X284139821Y-140361726D01*
X284063630Y-140399821D01*
X283987440Y-140476011D01*
X283949345Y-140590297D01*
X283949345Y-140780773D01*
X283873154Y-140171250D02*
X283873154Y-139561726D01*
X283949345Y-138723630D02*
X283949345Y-138761726D01*
X283987440Y-138837916D01*
X284101726Y-138952202D01*
X284330297Y-139142678D01*
X284444583Y-139218869D01*
X284558869Y-139256964D01*
X284635059Y-139256964D01*
X284711250Y-139218869D01*
X284749345Y-139142678D01*
X284749345Y-139104583D01*
X284711250Y-139028392D01*
X284635059Y-138990297D01*
X284596964Y-138990297D01*
X284520773Y-139028392D01*
X284482678Y-139066488D01*
X284330297Y-139295059D01*
X284292202Y-139333154D01*
X284216011Y-139371250D01*
X284101726Y-139371250D01*
X284025535Y-139333154D01*
X283987440Y-139295059D01*
X283949345Y-139218869D01*
X283949345Y-139104583D01*
X283987440Y-139028392D01*
X284025535Y-138990297D01*
X284177916Y-138876011D01*
X284292202Y-138837916D01*
X284368392Y-138837916D01*
X283949345Y-138266488D02*
X283987440Y-138342678D01*
X284063630Y-138380773D01*
X284749345Y-138380773D01*
X284482678Y-138076011D02*
X284482678Y-137771250D01*
X284749345Y-137961726D02*
X284063630Y-137961726D01*
X283987440Y-137923630D01*
X283949345Y-137847440D01*
X283949345Y-137771250D01*
X283987440Y-137466488D02*
X283949345Y-137466488D01*
X283873154Y-137504583D01*
X283835059Y-137542678D01*
X284444583Y-137504583D02*
X284406488Y-137466488D01*
X284368392Y-137504583D01*
X284406488Y-137542678D01*
X284444583Y-137504583D01*
X284368392Y-137504583D01*
X283949345Y-137123630D02*
X284749345Y-137123630D01*
X284749345Y-136818869D02*
X284749345Y-136323630D01*
X284444583Y-136590297D01*
X284444583Y-136476011D01*
X284406488Y-136399821D01*
X284368392Y-136361726D01*
X284292202Y-136323630D01*
X284101726Y-136323630D01*
X284025535Y-136361726D01*
X283987440Y-136399821D01*
X283949345Y-136476011D01*
X283949345Y-136704583D01*
X283987440Y-136780773D01*
X284025535Y-136818869D01*
G04 #@! TO.C,D_&lt;I_E1*
X61449345Y-64747440D02*
X62249345Y-64747440D01*
X62249345Y-64556964D01*
X62211250Y-64442678D01*
X62135059Y-64366488D01*
X62058869Y-64328392D01*
X61906488Y-64290297D01*
X61792202Y-64290297D01*
X61639821Y-64328392D01*
X61563630Y-64366488D01*
X61487440Y-64442678D01*
X61449345Y-64556964D01*
X61449345Y-64747440D01*
X61373154Y-64137916D02*
X61373154Y-63528392D01*
X61449345Y-62690297D02*
X61449345Y-62728392D01*
X61487440Y-62804583D01*
X61601726Y-62918869D01*
X61830297Y-63109345D01*
X61944583Y-63185535D01*
X62058869Y-63223630D01*
X62135059Y-63223630D01*
X62211250Y-63185535D01*
X62249345Y-63109345D01*
X62249345Y-63071250D01*
X62211250Y-62995059D01*
X62135059Y-62956964D01*
X62096964Y-62956964D01*
X62020773Y-62995059D01*
X61982678Y-63033154D01*
X61830297Y-63261726D01*
X61792202Y-63299821D01*
X61716011Y-63337916D01*
X61601726Y-63337916D01*
X61525535Y-63299821D01*
X61487440Y-63261726D01*
X61449345Y-63185535D01*
X61449345Y-63071250D01*
X61487440Y-62995059D01*
X61525535Y-62956964D01*
X61677916Y-62842678D01*
X61792202Y-62804583D01*
X61868392Y-62804583D01*
X61449345Y-62233154D02*
X61487440Y-62309345D01*
X61563630Y-62347440D01*
X62249345Y-62347440D01*
X61982678Y-62042678D02*
X61982678Y-61737916D01*
X62249345Y-61928392D02*
X61563630Y-61928392D01*
X61487440Y-61890297D01*
X61449345Y-61814107D01*
X61449345Y-61737916D01*
X61487440Y-61433154D02*
X61449345Y-61433154D01*
X61373154Y-61471250D01*
X61335059Y-61509345D01*
X61944583Y-61471250D02*
X61906488Y-61433154D01*
X61868392Y-61471250D01*
X61906488Y-61509345D01*
X61944583Y-61471250D01*
X61868392Y-61471250D01*
X61449345Y-61090297D02*
X62249345Y-61090297D01*
X61373154Y-60899821D02*
X61373154Y-60290297D01*
X61868392Y-60099821D02*
X61868392Y-59833154D01*
X61449345Y-59718869D02*
X61449345Y-60099821D01*
X62249345Y-60099821D01*
X62249345Y-59718869D01*
X61449345Y-58956964D02*
X61449345Y-59414107D01*
X61449345Y-59185535D02*
X62249345Y-59185535D01*
X62135059Y-59261726D01*
X62058869Y-59337916D01*
X62020773Y-59414107D01*
G04 #@! TO.C,D_`1*
X326849345Y-63418869D02*
X327649345Y-63418869D01*
X327649345Y-63228392D01*
X327611250Y-63114107D01*
X327535059Y-63037916D01*
X327458869Y-62999821D01*
X327306488Y-62961726D01*
X327192202Y-62961726D01*
X327039821Y-62999821D01*
X326963630Y-63037916D01*
X326887440Y-63114107D01*
X326849345Y-63228392D01*
X326849345Y-63418869D01*
X326773154Y-62809345D02*
X326773154Y-62199821D01*
X327687440Y-62123630D02*
X327573154Y-62009345D01*
X326849345Y-61285535D02*
X326849345Y-61742678D01*
X326849345Y-61514107D02*
X327649345Y-61514107D01*
X327535059Y-61590297D01*
X327458869Y-61666488D01*
X327420773Y-61742678D01*
G04 #@! TO.C,D_A1*
X94249345Y-102009345D02*
X95049345Y-102009345D01*
X95049345Y-101818869D01*
X95011250Y-101704583D01*
X94935059Y-101628392D01*
X94858869Y-101590297D01*
X94706488Y-101552202D01*
X94592202Y-101552202D01*
X94439821Y-101590297D01*
X94363630Y-101628392D01*
X94287440Y-101704583D01*
X94249345Y-101818869D01*
X94249345Y-102009345D01*
X94173154Y-101399821D02*
X94173154Y-100790297D01*
X94477916Y-100637916D02*
X94477916Y-100256964D01*
X94249345Y-100714107D02*
X95049345Y-100447440D01*
X94249345Y-100180773D01*
X94249345Y-99495059D02*
X94249345Y-99952202D01*
X94249345Y-99723630D02*
X95049345Y-99723630D01*
X94935059Y-99799821D01*
X94858869Y-99876011D01*
X94820773Y-99952202D01*
G04 #@! TO.C,D_ALT1*
X307449345Y-140637916D02*
X308249345Y-140637916D01*
X308249345Y-140447440D01*
X308211250Y-140333154D01*
X308135059Y-140256964D01*
X308058869Y-140218869D01*
X307906488Y-140180773D01*
X307792202Y-140180773D01*
X307639821Y-140218869D01*
X307563630Y-140256964D01*
X307487440Y-140333154D01*
X307449345Y-140447440D01*
X307449345Y-140637916D01*
X307373154Y-140028392D02*
X307373154Y-139418869D01*
X307677916Y-139266488D02*
X307677916Y-138885535D01*
X307449345Y-139342678D02*
X308249345Y-139076011D01*
X307449345Y-138809345D01*
X307449345Y-138161726D02*
X307449345Y-138542678D01*
X308249345Y-138542678D01*
X308249345Y-138009345D02*
X308249345Y-137552202D01*
X307449345Y-137780773D02*
X308249345Y-137780773D01*
X307449345Y-136866488D02*
X307449345Y-137323630D01*
X307449345Y-137095059D02*
X308249345Y-137095059D01*
X308135059Y-137171250D01*
X308058869Y-137247440D01*
X308020773Y-137323630D01*
G04 #@! TO.C,D_B1*
X180149345Y-120866488D02*
X180949345Y-120866488D01*
X180949345Y-120676011D01*
X180911250Y-120561726D01*
X180835059Y-120485535D01*
X180758869Y-120447440D01*
X180606488Y-120409345D01*
X180492202Y-120409345D01*
X180339821Y-120447440D01*
X180263630Y-120485535D01*
X180187440Y-120561726D01*
X180149345Y-120676011D01*
X180149345Y-120866488D01*
X180073154Y-120256964D02*
X180073154Y-119647440D01*
X180568392Y-119190297D02*
X180530297Y-119076011D01*
X180492202Y-119037916D01*
X180416011Y-118999821D01*
X180301726Y-118999821D01*
X180225535Y-119037916D01*
X180187440Y-119076011D01*
X180149345Y-119152202D01*
X180149345Y-119456964D01*
X180949345Y-119456964D01*
X180949345Y-119190297D01*
X180911250Y-119114107D01*
X180873154Y-119076011D01*
X180796964Y-119037916D01*
X180720773Y-119037916D01*
X180644583Y-119076011D01*
X180606488Y-119114107D01*
X180568392Y-119190297D01*
X180568392Y-119456964D01*
X180149345Y-118237916D02*
X180149345Y-118695059D01*
X180149345Y-118466488D02*
X180949345Y-118466488D01*
X180835059Y-118542678D01*
X180758869Y-118618869D01*
X180720773Y-118695059D01*
G04 #@! TO.C,D_BSLSH1*
X305738095Y-65600000D02*
X306538095Y-65600000D01*
X306538095Y-65409523D01*
X306500000Y-65295238D01*
X306423809Y-65219047D01*
X306347619Y-65180952D01*
X306195238Y-65142857D01*
X306080952Y-65142857D01*
X305928571Y-65180952D01*
X305852380Y-65219047D01*
X305776190Y-65295238D01*
X305738095Y-65409523D01*
X305738095Y-65600000D01*
X305661904Y-64990476D02*
X305661904Y-64380952D01*
X306157142Y-63923809D02*
X306119047Y-63809523D01*
X306080952Y-63771428D01*
X306004761Y-63733333D01*
X305890476Y-63733333D01*
X305814285Y-63771428D01*
X305776190Y-63809523D01*
X305738095Y-63885714D01*
X305738095Y-64190476D01*
X306538095Y-64190476D01*
X306538095Y-63923809D01*
X306500000Y-63847619D01*
X306461904Y-63809523D01*
X306385714Y-63771428D01*
X306309523Y-63771428D01*
X306233333Y-63809523D01*
X306195238Y-63847619D01*
X306157142Y-63923809D01*
X306157142Y-64190476D01*
X305776190Y-63428571D02*
X305738095Y-63314285D01*
X305738095Y-63123809D01*
X305776190Y-63047619D01*
X305814285Y-63009523D01*
X305890476Y-62971428D01*
X305966666Y-62971428D01*
X306042857Y-63009523D01*
X306080952Y-63047619D01*
X306119047Y-63123809D01*
X306157142Y-63276190D01*
X306195238Y-63352380D01*
X306233333Y-63390476D01*
X306309523Y-63428571D01*
X306385714Y-63428571D01*
X306461904Y-63390476D01*
X306500000Y-63352380D01*
X306538095Y-63276190D01*
X306538095Y-63085714D01*
X306500000Y-62971428D01*
X305738095Y-62247619D02*
X305738095Y-62628571D01*
X306538095Y-62628571D01*
X305776190Y-62019047D02*
X305738095Y-61904761D01*
X305738095Y-61714285D01*
X305776190Y-61638095D01*
X305814285Y-61600000D01*
X305890476Y-61561904D01*
X305966666Y-61561904D01*
X306042857Y-61600000D01*
X306080952Y-61638095D01*
X306119047Y-61714285D01*
X306157142Y-61866666D01*
X306195238Y-61942857D01*
X306233333Y-61980952D01*
X306309523Y-62019047D01*
X306385714Y-62019047D01*
X306461904Y-61980952D01*
X306500000Y-61942857D01*
X306538095Y-61866666D01*
X306538095Y-61676190D01*
X306500000Y-61561904D01*
X305738095Y-61219047D02*
X306538095Y-61219047D01*
X306157142Y-61219047D02*
X306157142Y-60761904D01*
X305738095Y-60761904D02*
X306538095Y-60761904D01*
X305738095Y-59961904D02*
X305738095Y-60419047D01*
X305738095Y-60190476D02*
X306538095Y-60190476D01*
X306423809Y-60266666D01*
X306347619Y-60342857D01*
X306309523Y-60419047D01*
G04 #@! TO.C,D_C1*
X142349345Y-121066488D02*
X143149345Y-121066488D01*
X143149345Y-120876011D01*
X143111250Y-120761726D01*
X143035059Y-120685535D01*
X142958869Y-120647440D01*
X142806488Y-120609345D01*
X142692202Y-120609345D01*
X142539821Y-120647440D01*
X142463630Y-120685535D01*
X142387440Y-120761726D01*
X142349345Y-120876011D01*
X142349345Y-121066488D01*
X142273154Y-120456964D02*
X142273154Y-119847440D01*
X142425535Y-119199821D02*
X142387440Y-119237916D01*
X142349345Y-119352202D01*
X142349345Y-119428392D01*
X142387440Y-119542678D01*
X142463630Y-119618869D01*
X142539821Y-119656964D01*
X142692202Y-119695059D01*
X142806488Y-119695059D01*
X142958869Y-119656964D01*
X143035059Y-119618869D01*
X143111250Y-119542678D01*
X143149345Y-119428392D01*
X143149345Y-119352202D01*
X143111250Y-119237916D01*
X143073154Y-119199821D01*
X142349345Y-118437916D02*
X142349345Y-118895059D01*
X142349345Y-118666488D02*
X143149345Y-118666488D01*
X143035059Y-118742678D01*
X142958869Y-118818869D01*
X142920773Y-118895059D01*
G04 #@! TO.C,D_CAPS1*
X61738095Y-103519047D02*
X62538095Y-103519047D01*
X62538095Y-103328571D01*
X62500000Y-103214285D01*
X62423809Y-103138095D01*
X62347619Y-103100000D01*
X62195238Y-103061904D01*
X62080952Y-103061904D01*
X61928571Y-103100000D01*
X61852380Y-103138095D01*
X61776190Y-103214285D01*
X61738095Y-103328571D01*
X61738095Y-103519047D01*
X61661904Y-102909523D02*
X61661904Y-102300000D01*
X61814285Y-101652380D02*
X61776190Y-101690476D01*
X61738095Y-101804761D01*
X61738095Y-101880952D01*
X61776190Y-101995238D01*
X61852380Y-102071428D01*
X61928571Y-102109523D01*
X62080952Y-102147619D01*
X62195238Y-102147619D01*
X62347619Y-102109523D01*
X62423809Y-102071428D01*
X62500000Y-101995238D01*
X62538095Y-101880952D01*
X62538095Y-101804761D01*
X62500000Y-101690476D01*
X62461904Y-101652380D01*
X61966666Y-101347619D02*
X61966666Y-100966666D01*
X61738095Y-101423809D02*
X62538095Y-101157142D01*
X61738095Y-100890476D01*
X61738095Y-100623809D02*
X62538095Y-100623809D01*
X62538095Y-100319047D01*
X62500000Y-100242857D01*
X62461904Y-100204761D01*
X62385714Y-100166666D01*
X62271428Y-100166666D01*
X62195238Y-100204761D01*
X62157142Y-100242857D01*
X62119047Y-100319047D01*
X62119047Y-100623809D01*
X61776190Y-99861904D02*
X61738095Y-99747619D01*
X61738095Y-99557142D01*
X61776190Y-99480952D01*
X61814285Y-99442857D01*
X61890476Y-99404761D01*
X61966666Y-99404761D01*
X62042857Y-99442857D01*
X62080952Y-99480952D01*
X62119047Y-99557142D01*
X62157142Y-99709523D01*
X62195238Y-99785714D01*
X62233333Y-99823809D01*
X62309523Y-99861904D01*
X62385714Y-99861904D01*
X62461904Y-99823809D01*
X62500000Y-99785714D01*
X62538095Y-99709523D01*
X62538095Y-99519047D01*
X62500000Y-99404761D01*
X61738095Y-98642857D02*
X61738095Y-99100000D01*
X61738095Y-98871428D02*
X62538095Y-98871428D01*
X62423809Y-98947619D01*
X62347619Y-99023809D01*
X62309523Y-99100000D01*
G04 #@! TO.C,D_CBRAC1*
X279349345Y-84339345D02*
X280149345Y-84339345D01*
X280149345Y-84148869D01*
X280111250Y-84034583D01*
X280035059Y-83958392D01*
X279958869Y-83920297D01*
X279806488Y-83882202D01*
X279692202Y-83882202D01*
X279539821Y-83920297D01*
X279463630Y-83958392D01*
X279387440Y-84034583D01*
X279349345Y-84148869D01*
X279349345Y-84339345D01*
X279273154Y-83729821D02*
X279273154Y-83120297D01*
X279425535Y-82472678D02*
X279387440Y-82510773D01*
X279349345Y-82625059D01*
X279349345Y-82701250D01*
X279387440Y-82815535D01*
X279463630Y-82891726D01*
X279539821Y-82929821D01*
X279692202Y-82967916D01*
X279806488Y-82967916D01*
X279958869Y-82929821D01*
X280035059Y-82891726D01*
X280111250Y-82815535D01*
X280149345Y-82701250D01*
X280149345Y-82625059D01*
X280111250Y-82510773D01*
X280073154Y-82472678D01*
X279768392Y-81863154D02*
X279730297Y-81748869D01*
X279692202Y-81710773D01*
X279616011Y-81672678D01*
X279501726Y-81672678D01*
X279425535Y-81710773D01*
X279387440Y-81748869D01*
X279349345Y-81825059D01*
X279349345Y-82129821D01*
X280149345Y-82129821D01*
X280149345Y-81863154D01*
X280111250Y-81786964D01*
X280073154Y-81748869D01*
X279996964Y-81710773D01*
X279920773Y-81710773D01*
X279844583Y-81748869D01*
X279806488Y-81786964D01*
X279768392Y-81863154D01*
X279768392Y-82129821D01*
X279349345Y-80872678D02*
X279730297Y-81139345D01*
X279349345Y-81329821D02*
X280149345Y-81329821D01*
X280149345Y-81025059D01*
X280111250Y-80948869D01*
X280073154Y-80910773D01*
X279996964Y-80872678D01*
X279882678Y-80872678D01*
X279806488Y-80910773D01*
X279768392Y-80948869D01*
X279730297Y-81025059D01*
X279730297Y-81329821D01*
X279577916Y-80567916D02*
X279577916Y-80186964D01*
X279349345Y-80644107D02*
X280149345Y-80377440D01*
X279349345Y-80110773D01*
X279425535Y-79386964D02*
X279387440Y-79425059D01*
X279349345Y-79539345D01*
X279349345Y-79615535D01*
X279387440Y-79729821D01*
X279463630Y-79806011D01*
X279539821Y-79844107D01*
X279692202Y-79882202D01*
X279806488Y-79882202D01*
X279958869Y-79844107D01*
X280035059Y-79806011D01*
X280111250Y-79729821D01*
X280149345Y-79615535D01*
X280149345Y-79539345D01*
X280111250Y-79425059D01*
X280073154Y-79386964D01*
X279349345Y-78625059D02*
X279349345Y-79082202D01*
X279349345Y-78853630D02*
X280149345Y-78853630D01*
X280035059Y-78929821D01*
X279958869Y-79006011D01*
X279920773Y-79082202D01*
G04 #@! TO.C,D_COMMA1*
X237649345Y-122542678D02*
X238449345Y-122542678D01*
X238449345Y-122352202D01*
X238411250Y-122237916D01*
X238335059Y-122161726D01*
X238258869Y-122123630D01*
X238106488Y-122085535D01*
X237992202Y-122085535D01*
X237839821Y-122123630D01*
X237763630Y-122161726D01*
X237687440Y-122237916D01*
X237649345Y-122352202D01*
X237649345Y-122542678D01*
X237573154Y-121933154D02*
X237573154Y-121323630D01*
X237725535Y-120676011D02*
X237687440Y-120714107D01*
X237649345Y-120828392D01*
X237649345Y-120904583D01*
X237687440Y-121018869D01*
X237763630Y-121095059D01*
X237839821Y-121133154D01*
X237992202Y-121171250D01*
X238106488Y-121171250D01*
X238258869Y-121133154D01*
X238335059Y-121095059D01*
X238411250Y-121018869D01*
X238449345Y-120904583D01*
X238449345Y-120828392D01*
X238411250Y-120714107D01*
X238373154Y-120676011D01*
X238449345Y-120180773D02*
X238449345Y-120028392D01*
X238411250Y-119952202D01*
X238335059Y-119876011D01*
X238182678Y-119837916D01*
X237916011Y-119837916D01*
X237763630Y-119876011D01*
X237687440Y-119952202D01*
X237649345Y-120028392D01*
X237649345Y-120180773D01*
X237687440Y-120256964D01*
X237763630Y-120333154D01*
X237916011Y-120371250D01*
X238182678Y-120371250D01*
X238335059Y-120333154D01*
X238411250Y-120256964D01*
X238449345Y-120180773D01*
X237649345Y-119495059D02*
X238449345Y-119495059D01*
X237877916Y-119228392D01*
X238449345Y-118961726D01*
X237649345Y-118961726D01*
X237649345Y-118580773D02*
X238449345Y-118580773D01*
X237877916Y-118314107D01*
X238449345Y-118047440D01*
X237649345Y-118047440D01*
X237877916Y-117704583D02*
X237877916Y-117323630D01*
X237649345Y-117780773D02*
X238449345Y-117514107D01*
X237649345Y-117247440D01*
X237649345Y-116561726D02*
X237649345Y-117018869D01*
X237649345Y-116790297D02*
X238449345Y-116790297D01*
X238335059Y-116866488D01*
X238258869Y-116942678D01*
X238220773Y-117018869D01*
G04 #@! TO.C,D_CTRL1*
X65649345Y-141095059D02*
X66449345Y-141095059D01*
X66449345Y-140904583D01*
X66411250Y-140790297D01*
X66335059Y-140714107D01*
X66258869Y-140676011D01*
X66106488Y-140637916D01*
X65992202Y-140637916D01*
X65839821Y-140676011D01*
X65763630Y-140714107D01*
X65687440Y-140790297D01*
X65649345Y-140904583D01*
X65649345Y-141095059D01*
X65573154Y-140485535D02*
X65573154Y-139876011D01*
X65725535Y-139228392D02*
X65687440Y-139266488D01*
X65649345Y-139380773D01*
X65649345Y-139456964D01*
X65687440Y-139571250D01*
X65763630Y-139647440D01*
X65839821Y-139685535D01*
X65992202Y-139723630D01*
X66106488Y-139723630D01*
X66258869Y-139685535D01*
X66335059Y-139647440D01*
X66411250Y-139571250D01*
X66449345Y-139456964D01*
X66449345Y-139380773D01*
X66411250Y-139266488D01*
X66373154Y-139228392D01*
X66449345Y-138999821D02*
X66449345Y-138542678D01*
X65649345Y-138771250D02*
X66449345Y-138771250D01*
X65649345Y-137818869D02*
X66030297Y-138085535D01*
X65649345Y-138276011D02*
X66449345Y-138276011D01*
X66449345Y-137971250D01*
X66411250Y-137895059D01*
X66373154Y-137856964D01*
X66296964Y-137818869D01*
X66182678Y-137818869D01*
X66106488Y-137856964D01*
X66068392Y-137895059D01*
X66030297Y-137971250D01*
X66030297Y-138276011D01*
X65649345Y-137095059D02*
X65649345Y-137476011D01*
X66449345Y-137476011D01*
X65649345Y-136409345D02*
X65649345Y-136866488D01*
X65649345Y-136637916D02*
X66449345Y-136637916D01*
X66335059Y-136714107D01*
X66258869Y-136790297D01*
X66220773Y-136866488D01*
G04 #@! TO.C,D_D1*
X132049345Y-101966488D02*
X132849345Y-101966488D01*
X132849345Y-101776011D01*
X132811250Y-101661726D01*
X132735059Y-101585535D01*
X132658869Y-101547440D01*
X132506488Y-101509345D01*
X132392202Y-101509345D01*
X132239821Y-101547440D01*
X132163630Y-101585535D01*
X132087440Y-101661726D01*
X132049345Y-101776011D01*
X132049345Y-101966488D01*
X131973154Y-101356964D02*
X131973154Y-100747440D01*
X132049345Y-100556964D02*
X132849345Y-100556964D01*
X132849345Y-100366488D01*
X132811250Y-100252202D01*
X132735059Y-100176011D01*
X132658869Y-100137916D01*
X132506488Y-100099821D01*
X132392202Y-100099821D01*
X132239821Y-100137916D01*
X132163630Y-100176011D01*
X132087440Y-100252202D01*
X132049345Y-100366488D01*
X132049345Y-100556964D01*
X132049345Y-99337916D02*
X132049345Y-99795059D01*
X132049345Y-99566488D02*
X132849345Y-99566488D01*
X132735059Y-99642678D01*
X132658869Y-99718869D01*
X132620773Y-99795059D01*
G04 #@! TO.C,D_DELETE1*
X351981845Y-82325773D02*
X352781845Y-82325773D01*
X352781845Y-82135297D01*
X352743750Y-82021011D01*
X352667559Y-81944821D01*
X352591369Y-81906726D01*
X352438988Y-81868630D01*
X352324702Y-81868630D01*
X352172321Y-81906726D01*
X352096130Y-81944821D01*
X352019940Y-82021011D01*
X351981845Y-82135297D01*
X351981845Y-82325773D01*
X351905654Y-81716250D02*
X351905654Y-81106726D01*
X351981845Y-80916250D02*
X352781845Y-80916250D01*
X352781845Y-80725773D01*
X352743750Y-80611488D01*
X352667559Y-80535297D01*
X352591369Y-80497202D01*
X352438988Y-80459107D01*
X352324702Y-80459107D01*
X352172321Y-80497202D01*
X352096130Y-80535297D01*
X352019940Y-80611488D01*
X351981845Y-80725773D01*
X351981845Y-80916250D01*
X352400892Y-80116250D02*
X352400892Y-79849583D01*
X351981845Y-79735297D02*
X351981845Y-80116250D01*
X352781845Y-80116250D01*
X352781845Y-79735297D01*
X351981845Y-79011488D02*
X351981845Y-79392440D01*
X352781845Y-79392440D01*
X352400892Y-78744821D02*
X352400892Y-78478154D01*
X351981845Y-78363869D02*
X351981845Y-78744821D01*
X352781845Y-78744821D01*
X352781845Y-78363869D01*
X352781845Y-78135297D02*
X352781845Y-77678154D01*
X351981845Y-77906726D02*
X352781845Y-77906726D01*
X352400892Y-77411488D02*
X352400892Y-77144821D01*
X351981845Y-77030535D02*
X351981845Y-77411488D01*
X352781845Y-77411488D01*
X352781845Y-77030535D01*
X351981845Y-76268630D02*
X351981845Y-76725773D01*
X351981845Y-76497202D02*
X352781845Y-76497202D01*
X352667559Y-76573392D01*
X352591369Y-76649583D01*
X352553273Y-76725773D01*
G04 #@! TO.C,D_DOT1*
X256731845Y-121690297D02*
X257531845Y-121690297D01*
X257531845Y-121499821D01*
X257493750Y-121385535D01*
X257417559Y-121309345D01*
X257341369Y-121271250D01*
X257188988Y-121233154D01*
X257074702Y-121233154D01*
X256922321Y-121271250D01*
X256846130Y-121309345D01*
X256769940Y-121385535D01*
X256731845Y-121499821D01*
X256731845Y-121690297D01*
X256655654Y-121080773D02*
X256655654Y-120471250D01*
X256731845Y-120280773D02*
X257531845Y-120280773D01*
X257531845Y-120090297D01*
X257493750Y-119976011D01*
X257417559Y-119899821D01*
X257341369Y-119861726D01*
X257188988Y-119823630D01*
X257074702Y-119823630D01*
X256922321Y-119861726D01*
X256846130Y-119899821D01*
X256769940Y-119976011D01*
X256731845Y-120090297D01*
X256731845Y-120280773D01*
X257531845Y-119328392D02*
X257531845Y-119176011D01*
X257493750Y-119099821D01*
X257417559Y-119023630D01*
X257265178Y-118985535D01*
X256998511Y-118985535D01*
X256846130Y-119023630D01*
X256769940Y-119099821D01*
X256731845Y-119176011D01*
X256731845Y-119328392D01*
X256769940Y-119404583D01*
X256846130Y-119480773D01*
X256998511Y-119518869D01*
X257265178Y-119518869D01*
X257417559Y-119480773D01*
X257493750Y-119404583D01*
X257531845Y-119328392D01*
X257531845Y-118756964D02*
X257531845Y-118299821D01*
X256731845Y-118528392D02*
X257531845Y-118528392D01*
X256731845Y-117614107D02*
X256731845Y-118071250D01*
X256731845Y-117842678D02*
X257531845Y-117842678D01*
X257417559Y-117918869D01*
X257341369Y-117995059D01*
X257303273Y-118071250D01*
G04 #@! TO.C,D_DOWN1*
X350749345Y-141361726D02*
X351549345Y-141361726D01*
X351549345Y-141171250D01*
X351511250Y-141056964D01*
X351435059Y-140980773D01*
X351358869Y-140942678D01*
X351206488Y-140904583D01*
X351092202Y-140904583D01*
X350939821Y-140942678D01*
X350863630Y-140980773D01*
X350787440Y-141056964D01*
X350749345Y-141171250D01*
X350749345Y-141361726D01*
X350673154Y-140752202D02*
X350673154Y-140142678D01*
X350749345Y-139952202D02*
X351549345Y-139952202D01*
X351549345Y-139761726D01*
X351511250Y-139647440D01*
X351435059Y-139571250D01*
X351358869Y-139533154D01*
X351206488Y-139495059D01*
X351092202Y-139495059D01*
X350939821Y-139533154D01*
X350863630Y-139571250D01*
X350787440Y-139647440D01*
X350749345Y-139761726D01*
X350749345Y-139952202D01*
X351549345Y-138999821D02*
X351549345Y-138847440D01*
X351511250Y-138771250D01*
X351435059Y-138695059D01*
X351282678Y-138656964D01*
X351016011Y-138656964D01*
X350863630Y-138695059D01*
X350787440Y-138771250D01*
X350749345Y-138847440D01*
X350749345Y-138999821D01*
X350787440Y-139076011D01*
X350863630Y-139152202D01*
X351016011Y-139190297D01*
X351282678Y-139190297D01*
X351435059Y-139152202D01*
X351511250Y-139076011D01*
X351549345Y-138999821D01*
X351549345Y-138390297D02*
X350749345Y-138199821D01*
X351320773Y-138047440D01*
X350749345Y-137895059D01*
X351549345Y-137704583D01*
X350749345Y-137399821D02*
X351549345Y-137399821D01*
X350749345Y-136942678D01*
X351549345Y-136942678D01*
X350749345Y-136142678D02*
X350749345Y-136599821D01*
X350749345Y-136371250D02*
X351549345Y-136371250D01*
X351435059Y-136447440D01*
X351358869Y-136523630D01*
X351320773Y-136599821D01*
G04 #@! TO.C,D_E1*
X128549345Y-82798392D02*
X129349345Y-82798392D01*
X129349345Y-82607916D01*
X129311250Y-82493630D01*
X129235059Y-82417440D01*
X129158869Y-82379345D01*
X129006488Y-82341250D01*
X128892202Y-82341250D01*
X128739821Y-82379345D01*
X128663630Y-82417440D01*
X128587440Y-82493630D01*
X128549345Y-82607916D01*
X128549345Y-82798392D01*
X128473154Y-82188869D02*
X128473154Y-81579345D01*
X128968392Y-81388869D02*
X128968392Y-81122202D01*
X128549345Y-81007916D02*
X128549345Y-81388869D01*
X129349345Y-81388869D01*
X129349345Y-81007916D01*
X128549345Y-80246011D02*
X128549345Y-80703154D01*
X128549345Y-80474583D02*
X129349345Y-80474583D01*
X129235059Y-80550773D01*
X129158869Y-80626964D01*
X129120773Y-80703154D01*
G04 #@! TO.C,D_END1*
X363037440Y-85343154D02*
X363037440Y-84543154D01*
X362846964Y-84543154D01*
X362732678Y-84581250D01*
X362656488Y-84657440D01*
X362618392Y-84733630D01*
X362580297Y-84886011D01*
X362580297Y-85000297D01*
X362618392Y-85152678D01*
X362656488Y-85228869D01*
X362732678Y-85305059D01*
X362846964Y-85343154D01*
X363037440Y-85343154D01*
X362427916Y-85419345D02*
X361818392Y-85419345D01*
X361627916Y-84924107D02*
X361361250Y-84924107D01*
X361246964Y-85343154D02*
X361627916Y-85343154D01*
X361627916Y-84543154D01*
X361246964Y-84543154D01*
X360904107Y-85343154D02*
X360904107Y-84543154D01*
X360446964Y-85343154D01*
X360446964Y-84543154D01*
X360066011Y-85343154D02*
X360066011Y-84543154D01*
X359875535Y-84543154D01*
X359761250Y-84581250D01*
X359685059Y-84657440D01*
X359646964Y-84733630D01*
X359608869Y-84886011D01*
X359608869Y-85000297D01*
X359646964Y-85152678D01*
X359685059Y-85228869D01*
X359761250Y-85305059D01*
X359875535Y-85343154D01*
X360066011Y-85343154D01*
X358846964Y-85343154D02*
X359304107Y-85343154D01*
X359075535Y-85343154D02*
X359075535Y-84543154D01*
X359151726Y-84657440D01*
X359227916Y-84733630D01*
X359304107Y-84771726D01*
G04 #@! TO.C,D_ENTER1*
X307634107Y-107423154D02*
X307634107Y-106623154D01*
X307443630Y-106623154D01*
X307329345Y-106661250D01*
X307253154Y-106737440D01*
X307215059Y-106813630D01*
X307176964Y-106966011D01*
X307176964Y-107080297D01*
X307215059Y-107232678D01*
X307253154Y-107308869D01*
X307329345Y-107385059D01*
X307443630Y-107423154D01*
X307634107Y-107423154D01*
X307024583Y-107499345D02*
X306415059Y-107499345D01*
X306224583Y-107004107D02*
X305957916Y-107004107D01*
X305843630Y-107423154D02*
X306224583Y-107423154D01*
X306224583Y-106623154D01*
X305843630Y-106623154D01*
X305500773Y-107423154D02*
X305500773Y-106623154D01*
X305043630Y-107423154D01*
X305043630Y-106623154D01*
X304776964Y-106623154D02*
X304319821Y-106623154D01*
X304548392Y-107423154D02*
X304548392Y-106623154D01*
X304053154Y-107004107D02*
X303786488Y-107004107D01*
X303672202Y-107423154D02*
X304053154Y-107423154D01*
X304053154Y-106623154D01*
X303672202Y-106623154D01*
X302872202Y-107423154D02*
X303138869Y-107042202D01*
X303329345Y-107423154D02*
X303329345Y-106623154D01*
X303024583Y-106623154D01*
X302948392Y-106661250D01*
X302910297Y-106699345D01*
X302872202Y-106775535D01*
X302872202Y-106889821D01*
X302910297Y-106966011D01*
X302948392Y-107004107D01*
X303024583Y-107042202D01*
X303329345Y-107042202D01*
X302110297Y-107423154D02*
X302567440Y-107423154D01*
X302338869Y-107423154D02*
X302338869Y-106623154D01*
X302415059Y-106737440D01*
X302491250Y-106813630D01*
X302567440Y-106851726D01*
G04 #@! TO.C,D_EQUAL1*
X289819345Y-65233154D02*
X290619345Y-65233154D01*
X290619345Y-65042678D01*
X290581250Y-64928392D01*
X290505059Y-64852202D01*
X290428869Y-64814107D01*
X290276488Y-64776011D01*
X290162202Y-64776011D01*
X290009821Y-64814107D01*
X289933630Y-64852202D01*
X289857440Y-64928392D01*
X289819345Y-65042678D01*
X289819345Y-65233154D01*
X289743154Y-64623630D02*
X289743154Y-64014107D01*
X290238392Y-63823630D02*
X290238392Y-63556964D01*
X289819345Y-63442678D02*
X289819345Y-63823630D01*
X290619345Y-63823630D01*
X290619345Y-63442678D01*
X289743154Y-62566488D02*
X289781250Y-62642678D01*
X289857440Y-62718869D01*
X289971726Y-62833154D01*
X290009821Y-62909345D01*
X290009821Y-62985535D01*
X289819345Y-62947440D02*
X289857440Y-63023630D01*
X289933630Y-63099821D01*
X290086011Y-63137916D01*
X290352678Y-63137916D01*
X290505059Y-63099821D01*
X290581250Y-63023630D01*
X290619345Y-62947440D01*
X290619345Y-62795059D01*
X290581250Y-62718869D01*
X290505059Y-62642678D01*
X290352678Y-62604583D01*
X290086011Y-62604583D01*
X289933630Y-62642678D01*
X289857440Y-62718869D01*
X289819345Y-62795059D01*
X289819345Y-62947440D01*
X290619345Y-62261726D02*
X289971726Y-62261726D01*
X289895535Y-62223630D01*
X289857440Y-62185535D01*
X289819345Y-62109345D01*
X289819345Y-61956964D01*
X289857440Y-61880773D01*
X289895535Y-61842678D01*
X289971726Y-61804583D01*
X290619345Y-61804583D01*
X290047916Y-61461726D02*
X290047916Y-61080773D01*
X289819345Y-61537916D02*
X290619345Y-61271250D01*
X289819345Y-61004583D01*
X289819345Y-60356964D02*
X289819345Y-60737916D01*
X290619345Y-60737916D01*
X289819345Y-59671250D02*
X289819345Y-60128392D01*
X289819345Y-59899821D02*
X290619345Y-59899821D01*
X290505059Y-59976011D01*
X290428869Y-60052202D01*
X290390773Y-60128392D01*
G04 #@! TO.C,D_F1*
X151049345Y-101909345D02*
X151849345Y-101909345D01*
X151849345Y-101718869D01*
X151811250Y-101604583D01*
X151735059Y-101528392D01*
X151658869Y-101490297D01*
X151506488Y-101452202D01*
X151392202Y-101452202D01*
X151239821Y-101490297D01*
X151163630Y-101528392D01*
X151087440Y-101604583D01*
X151049345Y-101718869D01*
X151049345Y-101909345D01*
X150973154Y-101299821D02*
X150973154Y-100690297D01*
X151468392Y-100233154D02*
X151468392Y-100499821D01*
X151049345Y-100499821D02*
X151849345Y-100499821D01*
X151849345Y-100118869D01*
X151049345Y-99395059D02*
X151049345Y-99852202D01*
X151049345Y-99623630D02*
X151849345Y-99623630D01*
X151735059Y-99699821D01*
X151658869Y-99776011D01*
X151620773Y-99852202D01*
G04 #@! TO.C,D_FN1*
X328169345Y-119073392D02*
X328969345Y-119073392D01*
X328969345Y-118882916D01*
X328931250Y-118768630D01*
X328855059Y-118692440D01*
X328778869Y-118654345D01*
X328626488Y-118616250D01*
X328512202Y-118616250D01*
X328359821Y-118654345D01*
X328283630Y-118692440D01*
X328207440Y-118768630D01*
X328169345Y-118882916D01*
X328169345Y-119073392D01*
X328093154Y-118463869D02*
X328093154Y-117854345D01*
X328588392Y-117397202D02*
X328588392Y-117663869D01*
X328169345Y-117663869D02*
X328969345Y-117663869D01*
X328969345Y-117282916D01*
X328169345Y-116978154D02*
X328969345Y-116978154D01*
X328169345Y-116521011D01*
X328969345Y-116521011D01*
X328169345Y-115721011D02*
X328169345Y-116178154D01*
X328169345Y-115949583D02*
X328969345Y-115949583D01*
X328855059Y-116025773D01*
X328778869Y-116101964D01*
X328740773Y-116178154D01*
G04 #@! TO.C,D_G1*
X170249345Y-101866488D02*
X171049345Y-101866488D01*
X171049345Y-101676011D01*
X171011250Y-101561726D01*
X170935059Y-101485535D01*
X170858869Y-101447440D01*
X170706488Y-101409345D01*
X170592202Y-101409345D01*
X170439821Y-101447440D01*
X170363630Y-101485535D01*
X170287440Y-101561726D01*
X170249345Y-101676011D01*
X170249345Y-101866488D01*
X170173154Y-101256964D02*
X170173154Y-100647440D01*
X171011250Y-100037916D02*
X171049345Y-100114107D01*
X171049345Y-100228392D01*
X171011250Y-100342678D01*
X170935059Y-100418869D01*
X170858869Y-100456964D01*
X170706488Y-100495059D01*
X170592202Y-100495059D01*
X170439821Y-100456964D01*
X170363630Y-100418869D01*
X170287440Y-100342678D01*
X170249345Y-100228392D01*
X170249345Y-100152202D01*
X170287440Y-100037916D01*
X170325535Y-99999821D01*
X170592202Y-99999821D01*
X170592202Y-100152202D01*
X170249345Y-99237916D02*
X170249345Y-99695059D01*
X170249345Y-99466488D02*
X171049345Y-99466488D01*
X170935059Y-99542678D01*
X170858869Y-99618869D01*
X170820773Y-99695059D01*
G04 #@! TO.C,D_H1*
X189849345Y-101985535D02*
X190649345Y-101985535D01*
X190649345Y-101795059D01*
X190611250Y-101680773D01*
X190535059Y-101604583D01*
X190458869Y-101566488D01*
X190306488Y-101528392D01*
X190192202Y-101528392D01*
X190039821Y-101566488D01*
X189963630Y-101604583D01*
X189887440Y-101680773D01*
X189849345Y-101795059D01*
X189849345Y-101985535D01*
X189773154Y-101376011D02*
X189773154Y-100766488D01*
X189849345Y-100576011D02*
X190649345Y-100576011D01*
X190268392Y-100576011D02*
X190268392Y-100118869D01*
X189849345Y-100118869D02*
X190649345Y-100118869D01*
X189849345Y-99318869D02*
X189849345Y-99776011D01*
X189849345Y-99547440D02*
X190649345Y-99547440D01*
X190535059Y-99623630D01*
X190458869Y-99699821D01*
X190420773Y-99776011D01*
G04 #@! TO.C,D_HOME1*
X368959345Y-65043630D02*
X369759345Y-65043630D01*
X369759345Y-64853154D01*
X369721250Y-64738869D01*
X369645059Y-64662678D01*
X369568869Y-64624583D01*
X369416488Y-64586488D01*
X369302202Y-64586488D01*
X369149821Y-64624583D01*
X369073630Y-64662678D01*
X368997440Y-64738869D01*
X368959345Y-64853154D01*
X368959345Y-65043630D01*
X368883154Y-64434107D02*
X368883154Y-63824583D01*
X368959345Y-63634107D02*
X369759345Y-63634107D01*
X369378392Y-63634107D02*
X369378392Y-63176964D01*
X368959345Y-63176964D02*
X369759345Y-63176964D01*
X369759345Y-62643630D02*
X369759345Y-62491250D01*
X369721250Y-62415059D01*
X369645059Y-62338869D01*
X369492678Y-62300773D01*
X369226011Y-62300773D01*
X369073630Y-62338869D01*
X368997440Y-62415059D01*
X368959345Y-62491250D01*
X368959345Y-62643630D01*
X368997440Y-62719821D01*
X369073630Y-62796011D01*
X369226011Y-62834107D01*
X369492678Y-62834107D01*
X369645059Y-62796011D01*
X369721250Y-62719821D01*
X369759345Y-62643630D01*
X368959345Y-61957916D02*
X369759345Y-61957916D01*
X369187916Y-61691250D01*
X369759345Y-61424583D01*
X368959345Y-61424583D01*
X369378392Y-61043630D02*
X369378392Y-60776964D01*
X368959345Y-60662678D02*
X368959345Y-61043630D01*
X369759345Y-61043630D01*
X369759345Y-60662678D01*
X368959345Y-59900773D02*
X368959345Y-60357916D01*
X368959345Y-60129345D02*
X369759345Y-60129345D01*
X369645059Y-60205535D01*
X369568869Y-60281726D01*
X369530773Y-60357916D01*
G04 #@! TO.C,D_I1*
X223029345Y-82586964D02*
X223829345Y-82586964D01*
X223829345Y-82396488D01*
X223791250Y-82282202D01*
X223715059Y-82206011D01*
X223638869Y-82167916D01*
X223486488Y-82129821D01*
X223372202Y-82129821D01*
X223219821Y-82167916D01*
X223143630Y-82206011D01*
X223067440Y-82282202D01*
X223029345Y-82396488D01*
X223029345Y-82586964D01*
X222953154Y-81977440D02*
X222953154Y-81367916D01*
X223029345Y-81177440D02*
X223829345Y-81177440D01*
X223029345Y-80377440D02*
X223029345Y-80834583D01*
X223029345Y-80606011D02*
X223829345Y-80606011D01*
X223715059Y-80682202D01*
X223638869Y-80758392D01*
X223600773Y-80834583D01*
G04 #@! TO.C,D_INSERT1*
X350029345Y-65463630D02*
X350829345Y-65463630D01*
X350829345Y-65273154D01*
X350791250Y-65158869D01*
X350715059Y-65082678D01*
X350638869Y-65044583D01*
X350486488Y-65006488D01*
X350372202Y-65006488D01*
X350219821Y-65044583D01*
X350143630Y-65082678D01*
X350067440Y-65158869D01*
X350029345Y-65273154D01*
X350029345Y-65463630D01*
X349953154Y-64854107D02*
X349953154Y-64244583D01*
X350029345Y-64054107D02*
X350829345Y-64054107D01*
X350029345Y-63673154D02*
X350829345Y-63673154D01*
X350029345Y-63216011D01*
X350829345Y-63216011D01*
X350067440Y-62873154D02*
X350029345Y-62758869D01*
X350029345Y-62568392D01*
X350067440Y-62492202D01*
X350105535Y-62454107D01*
X350181726Y-62416011D01*
X350257916Y-62416011D01*
X350334107Y-62454107D01*
X350372202Y-62492202D01*
X350410297Y-62568392D01*
X350448392Y-62720773D01*
X350486488Y-62796964D01*
X350524583Y-62835059D01*
X350600773Y-62873154D01*
X350676964Y-62873154D01*
X350753154Y-62835059D01*
X350791250Y-62796964D01*
X350829345Y-62720773D01*
X350829345Y-62530297D01*
X350791250Y-62416011D01*
X350448392Y-62073154D02*
X350448392Y-61806488D01*
X350029345Y-61692202D02*
X350029345Y-62073154D01*
X350829345Y-62073154D01*
X350829345Y-61692202D01*
X350029345Y-60892202D02*
X350410297Y-61158869D01*
X350029345Y-61349345D02*
X350829345Y-61349345D01*
X350829345Y-61044583D01*
X350791250Y-60968392D01*
X350753154Y-60930297D01*
X350676964Y-60892202D01*
X350562678Y-60892202D01*
X350486488Y-60930297D01*
X350448392Y-60968392D01*
X350410297Y-61044583D01*
X350410297Y-61349345D01*
X350829345Y-60663630D02*
X350829345Y-60206488D01*
X350029345Y-60435059D02*
X350829345Y-60435059D01*
X350029345Y-59520773D02*
X350029345Y-59977916D01*
X350029345Y-59749345D02*
X350829345Y-59749345D01*
X350715059Y-59825535D01*
X350638869Y-59901726D01*
X350600773Y-59977916D01*
G04 #@! TO.C,D_J1*
X208849345Y-101871250D02*
X209649345Y-101871250D01*
X209649345Y-101680773D01*
X209611250Y-101566488D01*
X209535059Y-101490297D01*
X209458869Y-101452202D01*
X209306488Y-101414107D01*
X209192202Y-101414107D01*
X209039821Y-101452202D01*
X208963630Y-101490297D01*
X208887440Y-101566488D01*
X208849345Y-101680773D01*
X208849345Y-101871250D01*
X208773154Y-101261726D02*
X208773154Y-100652202D01*
X209649345Y-100233154D02*
X209077916Y-100233154D01*
X208963630Y-100271250D01*
X208887440Y-100347440D01*
X208849345Y-100461726D01*
X208849345Y-100537916D01*
X208849345Y-99433154D02*
X208849345Y-99890297D01*
X208849345Y-99661726D02*
X209649345Y-99661726D01*
X209535059Y-99737916D01*
X209458869Y-99814107D01*
X209420773Y-99890297D01*
G04 #@! TO.C,D_K1*
X227849345Y-101866488D02*
X228649345Y-101866488D01*
X228649345Y-101676011D01*
X228611250Y-101561726D01*
X228535059Y-101485535D01*
X228458869Y-101447440D01*
X228306488Y-101409345D01*
X228192202Y-101409345D01*
X228039821Y-101447440D01*
X227963630Y-101485535D01*
X227887440Y-101561726D01*
X227849345Y-101676011D01*
X227849345Y-101866488D01*
X227773154Y-101256964D02*
X227773154Y-100647440D01*
X227849345Y-100456964D02*
X228649345Y-100456964D01*
X227849345Y-99999821D02*
X228306488Y-100342678D01*
X228649345Y-99999821D02*
X228192202Y-100456964D01*
X227849345Y-99237916D02*
X227849345Y-99695059D01*
X227849345Y-99466488D02*
X228649345Y-99466488D01*
X228535059Y-99542678D01*
X228458869Y-99618869D01*
X228420773Y-99695059D01*
G04 #@! TO.C,D_L1*
X247209345Y-101760297D02*
X248009345Y-101760297D01*
X248009345Y-101569821D01*
X247971250Y-101455535D01*
X247895059Y-101379345D01*
X247818869Y-101341250D01*
X247666488Y-101303154D01*
X247552202Y-101303154D01*
X247399821Y-101341250D01*
X247323630Y-101379345D01*
X247247440Y-101455535D01*
X247209345Y-101569821D01*
X247209345Y-101760297D01*
X247133154Y-101150773D02*
X247133154Y-100541250D01*
X247209345Y-99969821D02*
X247209345Y-100350773D01*
X248009345Y-100350773D01*
X247209345Y-99284107D02*
X247209345Y-99741250D01*
X247209345Y-99512678D02*
X248009345Y-99512678D01*
X247895059Y-99588869D01*
X247818869Y-99665059D01*
X247780773Y-99741250D01*
G04 #@! TO.C,D_LEFT1*
X331849345Y-140999821D02*
X332649345Y-140999821D01*
X332649345Y-140809345D01*
X332611250Y-140695059D01*
X332535059Y-140618869D01*
X332458869Y-140580773D01*
X332306488Y-140542678D01*
X332192202Y-140542678D01*
X332039821Y-140580773D01*
X331963630Y-140618869D01*
X331887440Y-140695059D01*
X331849345Y-140809345D01*
X331849345Y-140999821D01*
X331773154Y-140390297D02*
X331773154Y-139780773D01*
X331849345Y-139209345D02*
X331849345Y-139590297D01*
X332649345Y-139590297D01*
X332268392Y-138942678D02*
X332268392Y-138676011D01*
X331849345Y-138561726D02*
X331849345Y-138942678D01*
X332649345Y-138942678D01*
X332649345Y-138561726D01*
X332268392Y-137952202D02*
X332268392Y-138218869D01*
X331849345Y-138218869D02*
X332649345Y-138218869D01*
X332649345Y-137837916D01*
X332649345Y-137647440D02*
X332649345Y-137190297D01*
X331849345Y-137418869D02*
X332649345Y-137418869D01*
X331849345Y-136504583D02*
X331849345Y-136961726D01*
X331849345Y-136733154D02*
X332649345Y-136733154D01*
X332535059Y-136809345D01*
X332458869Y-136885535D01*
X332420773Y-136961726D01*
G04 #@! TO.C,D_M1*
X218249345Y-120923630D02*
X219049345Y-120923630D01*
X219049345Y-120733154D01*
X219011250Y-120618869D01*
X218935059Y-120542678D01*
X218858869Y-120504583D01*
X218706488Y-120466488D01*
X218592202Y-120466488D01*
X218439821Y-120504583D01*
X218363630Y-120542678D01*
X218287440Y-120618869D01*
X218249345Y-120733154D01*
X218249345Y-120923630D01*
X218173154Y-120314107D02*
X218173154Y-119704583D01*
X218249345Y-119514107D02*
X219049345Y-119514107D01*
X218477916Y-119247440D01*
X219049345Y-118980773D01*
X218249345Y-118980773D01*
X218249345Y-118180773D02*
X218249345Y-118637916D01*
X218249345Y-118409345D02*
X219049345Y-118409345D01*
X218935059Y-118485535D01*
X218858869Y-118561726D01*
X218820773Y-118637916D01*
G04 #@! TO.C,D_MINUS1*
X270859345Y-65233154D02*
X271659345Y-65233154D01*
X271659345Y-65042678D01*
X271621250Y-64928392D01*
X271545059Y-64852202D01*
X271468869Y-64814107D01*
X271316488Y-64776011D01*
X271202202Y-64776011D01*
X271049821Y-64814107D01*
X270973630Y-64852202D01*
X270897440Y-64928392D01*
X270859345Y-65042678D01*
X270859345Y-65233154D01*
X270783154Y-64623630D02*
X270783154Y-64014107D01*
X270859345Y-63823630D02*
X271659345Y-63823630D01*
X271087916Y-63556964D01*
X271659345Y-63290297D01*
X270859345Y-63290297D01*
X270859345Y-62909345D02*
X271659345Y-62909345D01*
X270859345Y-62528392D02*
X271659345Y-62528392D01*
X270859345Y-62071250D01*
X271659345Y-62071250D01*
X271659345Y-61690297D02*
X271011726Y-61690297D01*
X270935535Y-61652202D01*
X270897440Y-61614107D01*
X270859345Y-61537916D01*
X270859345Y-61385535D01*
X270897440Y-61309345D01*
X270935535Y-61271250D01*
X271011726Y-61233154D01*
X271659345Y-61233154D01*
X270897440Y-60890297D02*
X270859345Y-60776011D01*
X270859345Y-60585535D01*
X270897440Y-60509345D01*
X270935535Y-60471250D01*
X271011726Y-60433154D01*
X271087916Y-60433154D01*
X271164107Y-60471250D01*
X271202202Y-60509345D01*
X271240297Y-60585535D01*
X271278392Y-60737916D01*
X271316488Y-60814107D01*
X271354583Y-60852202D01*
X271430773Y-60890297D01*
X271506964Y-60890297D01*
X271583154Y-60852202D01*
X271621250Y-60814107D01*
X271659345Y-60737916D01*
X271659345Y-60547440D01*
X271621250Y-60433154D01*
X270859345Y-59671250D02*
X270859345Y-60128392D01*
X270859345Y-59899821D02*
X271659345Y-59899821D01*
X271545059Y-59976011D01*
X271468869Y-60052202D01*
X271430773Y-60128392D01*
G04 #@! TO.C,D_N1*
X198949345Y-120985535D02*
X199749345Y-120985535D01*
X199749345Y-120795059D01*
X199711250Y-120680773D01*
X199635059Y-120604583D01*
X199558869Y-120566488D01*
X199406488Y-120528392D01*
X199292202Y-120528392D01*
X199139821Y-120566488D01*
X199063630Y-120604583D01*
X198987440Y-120680773D01*
X198949345Y-120795059D01*
X198949345Y-120985535D01*
X198873154Y-120376011D02*
X198873154Y-119766488D01*
X198949345Y-119576011D02*
X199749345Y-119576011D01*
X198949345Y-119118869D01*
X199749345Y-119118869D01*
X198949345Y-118318869D02*
X198949345Y-118776011D01*
X198949345Y-118547440D02*
X199749345Y-118547440D01*
X199635059Y-118623630D01*
X199558869Y-118699821D01*
X199520773Y-118776011D01*
G04 #@! TO.C,D_O1*
X242009345Y-82885535D02*
X242809345Y-82885535D01*
X242809345Y-82695059D01*
X242771250Y-82580773D01*
X242695059Y-82504583D01*
X242618869Y-82466488D01*
X242466488Y-82428392D01*
X242352202Y-82428392D01*
X242199821Y-82466488D01*
X242123630Y-82504583D01*
X242047440Y-82580773D01*
X242009345Y-82695059D01*
X242009345Y-82885535D01*
X241933154Y-82276011D02*
X241933154Y-81666488D01*
X242809345Y-81323630D02*
X242809345Y-81171250D01*
X242771250Y-81095059D01*
X242695059Y-81018869D01*
X242542678Y-80980773D01*
X242276011Y-80980773D01*
X242123630Y-81018869D01*
X242047440Y-81095059D01*
X242009345Y-81171250D01*
X242009345Y-81323630D01*
X242047440Y-81399821D01*
X242123630Y-81476011D01*
X242276011Y-81514107D01*
X242542678Y-81514107D01*
X242695059Y-81476011D01*
X242771250Y-81399821D01*
X242809345Y-81323630D01*
X242009345Y-80218869D02*
X242009345Y-80676011D01*
X242009345Y-80447440D02*
X242809345Y-80447440D01*
X242695059Y-80523630D01*
X242618869Y-80599821D01*
X242580773Y-80676011D01*
G04 #@! TO.C,D_OBRAC1*
X298129345Y-84448392D02*
X298929345Y-84448392D01*
X298929345Y-84257916D01*
X298891250Y-84143630D01*
X298815059Y-84067440D01*
X298738869Y-84029345D01*
X298586488Y-83991250D01*
X298472202Y-83991250D01*
X298319821Y-84029345D01*
X298243630Y-84067440D01*
X298167440Y-84143630D01*
X298129345Y-84257916D01*
X298129345Y-84448392D01*
X298053154Y-83838869D02*
X298053154Y-83229345D01*
X298929345Y-82886488D02*
X298929345Y-82734107D01*
X298891250Y-82657916D01*
X298815059Y-82581726D01*
X298662678Y-82543630D01*
X298396011Y-82543630D01*
X298243630Y-82581726D01*
X298167440Y-82657916D01*
X298129345Y-82734107D01*
X298129345Y-82886488D01*
X298167440Y-82962678D01*
X298243630Y-83038869D01*
X298396011Y-83076964D01*
X298662678Y-83076964D01*
X298815059Y-83038869D01*
X298891250Y-82962678D01*
X298929345Y-82886488D01*
X298548392Y-81934107D02*
X298510297Y-81819821D01*
X298472202Y-81781726D01*
X298396011Y-81743630D01*
X298281726Y-81743630D01*
X298205535Y-81781726D01*
X298167440Y-81819821D01*
X298129345Y-81896011D01*
X298129345Y-82200773D01*
X298929345Y-82200773D01*
X298929345Y-81934107D01*
X298891250Y-81857916D01*
X298853154Y-81819821D01*
X298776964Y-81781726D01*
X298700773Y-81781726D01*
X298624583Y-81819821D01*
X298586488Y-81857916D01*
X298548392Y-81934107D01*
X298548392Y-82200773D01*
X298129345Y-80943630D02*
X298510297Y-81210297D01*
X298129345Y-81400773D02*
X298929345Y-81400773D01*
X298929345Y-81096011D01*
X298891250Y-81019821D01*
X298853154Y-80981726D01*
X298776964Y-80943630D01*
X298662678Y-80943630D01*
X298586488Y-80981726D01*
X298548392Y-81019821D01*
X298510297Y-81096011D01*
X298510297Y-81400773D01*
X298357916Y-80638869D02*
X298357916Y-80257916D01*
X298129345Y-80715059D02*
X298929345Y-80448392D01*
X298129345Y-80181726D01*
X298205535Y-79457916D02*
X298167440Y-79496011D01*
X298129345Y-79610297D01*
X298129345Y-79686488D01*
X298167440Y-79800773D01*
X298243630Y-79876964D01*
X298319821Y-79915059D01*
X298472202Y-79953154D01*
X298586488Y-79953154D01*
X298738869Y-79915059D01*
X298815059Y-79876964D01*
X298891250Y-79800773D01*
X298929345Y-79686488D01*
X298929345Y-79610297D01*
X298891250Y-79496011D01*
X298853154Y-79457916D01*
X298129345Y-78696011D02*
X298129345Y-79153154D01*
X298129345Y-78924583D02*
X298929345Y-78924583D01*
X298815059Y-79000773D01*
X298738869Y-79076964D01*
X298700773Y-79153154D01*
G04 #@! TO.C,D_P1*
X260159345Y-82866488D02*
X260959345Y-82866488D01*
X260959345Y-82676011D01*
X260921250Y-82561726D01*
X260845059Y-82485535D01*
X260768869Y-82447440D01*
X260616488Y-82409345D01*
X260502202Y-82409345D01*
X260349821Y-82447440D01*
X260273630Y-82485535D01*
X260197440Y-82561726D01*
X260159345Y-82676011D01*
X260159345Y-82866488D01*
X260083154Y-82256964D02*
X260083154Y-81647440D01*
X260159345Y-81456964D02*
X260959345Y-81456964D01*
X260959345Y-81152202D01*
X260921250Y-81076011D01*
X260883154Y-81037916D01*
X260806964Y-80999821D01*
X260692678Y-80999821D01*
X260616488Y-81037916D01*
X260578392Y-81076011D01*
X260540297Y-81152202D01*
X260540297Y-81456964D01*
X260159345Y-80237916D02*
X260159345Y-80695059D01*
X260159345Y-80466488D02*
X260959345Y-80466488D01*
X260845059Y-80542678D01*
X260768869Y-80618869D01*
X260730773Y-80695059D01*
G04 #@! TO.C,D_Q1*
X89729345Y-82865535D02*
X90529345Y-82865535D01*
X90529345Y-82675059D01*
X90491250Y-82560773D01*
X90415059Y-82484583D01*
X90338869Y-82446488D01*
X90186488Y-82408392D01*
X90072202Y-82408392D01*
X89919821Y-82446488D01*
X89843630Y-82484583D01*
X89767440Y-82560773D01*
X89729345Y-82675059D01*
X89729345Y-82865535D01*
X89653154Y-82256011D02*
X89653154Y-81646488D01*
X89653154Y-80922678D02*
X89691250Y-80998869D01*
X89767440Y-81075059D01*
X89881726Y-81189345D01*
X89919821Y-81265535D01*
X89919821Y-81341726D01*
X89729345Y-81303630D02*
X89767440Y-81379821D01*
X89843630Y-81456011D01*
X89996011Y-81494107D01*
X90262678Y-81494107D01*
X90415059Y-81456011D01*
X90491250Y-81379821D01*
X90529345Y-81303630D01*
X90529345Y-81151250D01*
X90491250Y-81075059D01*
X90415059Y-80998869D01*
X90262678Y-80960773D01*
X89996011Y-80960773D01*
X89843630Y-80998869D01*
X89767440Y-81075059D01*
X89729345Y-81151250D01*
X89729345Y-81303630D01*
X89729345Y-80198869D02*
X89729345Y-80656011D01*
X89729345Y-80427440D02*
X90529345Y-80427440D01*
X90415059Y-80503630D01*
X90338869Y-80579821D01*
X90300773Y-80656011D01*
G04 #@! TO.C,D_QUOTE1*
X285139345Y-103430297D02*
X285939345Y-103430297D01*
X285939345Y-103239821D01*
X285901250Y-103125535D01*
X285825059Y-103049345D01*
X285748869Y-103011250D01*
X285596488Y-102973154D01*
X285482202Y-102973154D01*
X285329821Y-103011250D01*
X285253630Y-103049345D01*
X285177440Y-103125535D01*
X285139345Y-103239821D01*
X285139345Y-103430297D01*
X285063154Y-102820773D02*
X285063154Y-102211250D01*
X285063154Y-101487440D02*
X285101250Y-101563630D01*
X285177440Y-101639821D01*
X285291726Y-101754107D01*
X285329821Y-101830297D01*
X285329821Y-101906488D01*
X285139345Y-101868392D02*
X285177440Y-101944583D01*
X285253630Y-102020773D01*
X285406011Y-102058869D01*
X285672678Y-102058869D01*
X285825059Y-102020773D01*
X285901250Y-101944583D01*
X285939345Y-101868392D01*
X285939345Y-101716011D01*
X285901250Y-101639821D01*
X285825059Y-101563630D01*
X285672678Y-101525535D01*
X285406011Y-101525535D01*
X285253630Y-101563630D01*
X285177440Y-101639821D01*
X285139345Y-101716011D01*
X285139345Y-101868392D01*
X285939345Y-101182678D02*
X285291726Y-101182678D01*
X285215535Y-101144583D01*
X285177440Y-101106488D01*
X285139345Y-101030297D01*
X285139345Y-100877916D01*
X285177440Y-100801726D01*
X285215535Y-100763630D01*
X285291726Y-100725535D01*
X285939345Y-100725535D01*
X285939345Y-100192202D02*
X285939345Y-100039821D01*
X285901250Y-99963630D01*
X285825059Y-99887440D01*
X285672678Y-99849345D01*
X285406011Y-99849345D01*
X285253630Y-99887440D01*
X285177440Y-99963630D01*
X285139345Y-100039821D01*
X285139345Y-100192202D01*
X285177440Y-100268392D01*
X285253630Y-100344583D01*
X285406011Y-100382678D01*
X285672678Y-100382678D01*
X285825059Y-100344583D01*
X285901250Y-100268392D01*
X285939345Y-100192202D01*
X285939345Y-99620773D02*
X285939345Y-99163630D01*
X285139345Y-99392202D02*
X285939345Y-99392202D01*
X285558392Y-98896964D02*
X285558392Y-98630297D01*
X285139345Y-98516011D02*
X285139345Y-98896964D01*
X285939345Y-98896964D01*
X285939345Y-98516011D01*
X285139345Y-97754107D02*
X285139345Y-98211250D01*
X285139345Y-97982678D02*
X285939345Y-97982678D01*
X285825059Y-98058869D01*
X285748869Y-98135059D01*
X285710773Y-98211250D01*
G04 #@! TO.C,D_R1*
X146859345Y-82776488D02*
X147659345Y-82776488D01*
X147659345Y-82586011D01*
X147621250Y-82471726D01*
X147545059Y-82395535D01*
X147468869Y-82357440D01*
X147316488Y-82319345D01*
X147202202Y-82319345D01*
X147049821Y-82357440D01*
X146973630Y-82395535D01*
X146897440Y-82471726D01*
X146859345Y-82586011D01*
X146859345Y-82776488D01*
X146783154Y-82166964D02*
X146783154Y-81557440D01*
X146859345Y-80909821D02*
X147240297Y-81176488D01*
X146859345Y-81366964D02*
X147659345Y-81366964D01*
X147659345Y-81062202D01*
X147621250Y-80986011D01*
X147583154Y-80947916D01*
X147506964Y-80909821D01*
X147392678Y-80909821D01*
X147316488Y-80947916D01*
X147278392Y-80986011D01*
X147240297Y-81062202D01*
X147240297Y-81366964D01*
X146859345Y-80147916D02*
X146859345Y-80605059D01*
X146859345Y-80376488D02*
X147659345Y-80376488D01*
X147545059Y-80452678D01*
X147468869Y-80528869D01*
X147430773Y-80605059D01*
G04 #@! TO.C,D_RIGHT1*
X368849345Y-141280773D02*
X369649345Y-141280773D01*
X369649345Y-141090297D01*
X369611250Y-140976011D01*
X369535059Y-140899821D01*
X369458869Y-140861726D01*
X369306488Y-140823630D01*
X369192202Y-140823630D01*
X369039821Y-140861726D01*
X368963630Y-140899821D01*
X368887440Y-140976011D01*
X368849345Y-141090297D01*
X368849345Y-141280773D01*
X368773154Y-140671250D02*
X368773154Y-140061726D01*
X368849345Y-139414107D02*
X369230297Y-139680773D01*
X368849345Y-139871250D02*
X369649345Y-139871250D01*
X369649345Y-139566488D01*
X369611250Y-139490297D01*
X369573154Y-139452202D01*
X369496964Y-139414107D01*
X369382678Y-139414107D01*
X369306488Y-139452202D01*
X369268392Y-139490297D01*
X369230297Y-139566488D01*
X369230297Y-139871250D01*
X368849345Y-139071250D02*
X369649345Y-139071250D01*
X369611250Y-138271250D02*
X369649345Y-138347440D01*
X369649345Y-138461726D01*
X369611250Y-138576011D01*
X369535059Y-138652202D01*
X369458869Y-138690297D01*
X369306488Y-138728392D01*
X369192202Y-138728392D01*
X369039821Y-138690297D01*
X368963630Y-138652202D01*
X368887440Y-138576011D01*
X368849345Y-138461726D01*
X368849345Y-138385535D01*
X368887440Y-138271250D01*
X368925535Y-138233154D01*
X369192202Y-138233154D01*
X369192202Y-138385535D01*
X368849345Y-137890297D02*
X369649345Y-137890297D01*
X369268392Y-137890297D02*
X369268392Y-137433154D01*
X368849345Y-137433154D02*
X369649345Y-137433154D01*
X369649345Y-137166488D02*
X369649345Y-136709345D01*
X368849345Y-136937916D02*
X369649345Y-136937916D01*
X368849345Y-136023630D02*
X368849345Y-136480773D01*
X368849345Y-136252202D02*
X369649345Y-136252202D01*
X369535059Y-136328392D01*
X369458869Y-136404583D01*
X369420773Y-136480773D01*
G04 #@! TO.C,D_S1*
X113049345Y-101947440D02*
X113849345Y-101947440D01*
X113849345Y-101756964D01*
X113811250Y-101642678D01*
X113735059Y-101566488D01*
X113658869Y-101528392D01*
X113506488Y-101490297D01*
X113392202Y-101490297D01*
X113239821Y-101528392D01*
X113163630Y-101566488D01*
X113087440Y-101642678D01*
X113049345Y-101756964D01*
X113049345Y-101947440D01*
X112973154Y-101337916D02*
X112973154Y-100728392D01*
X113087440Y-100576011D02*
X113049345Y-100461726D01*
X113049345Y-100271250D01*
X113087440Y-100195059D01*
X113125535Y-100156964D01*
X113201726Y-100118869D01*
X113277916Y-100118869D01*
X113354107Y-100156964D01*
X113392202Y-100195059D01*
X113430297Y-100271250D01*
X113468392Y-100423630D01*
X113506488Y-100499821D01*
X113544583Y-100537916D01*
X113620773Y-100576011D01*
X113696964Y-100576011D01*
X113773154Y-100537916D01*
X113811250Y-100499821D01*
X113849345Y-100423630D01*
X113849345Y-100233154D01*
X113811250Y-100118869D01*
X113049345Y-99356964D02*
X113049345Y-99814107D01*
X113049345Y-99585535D02*
X113849345Y-99585535D01*
X113735059Y-99661726D01*
X113658869Y-99737916D01*
X113620773Y-99814107D01*
G04 #@! TO.C,D_SEMIC1*
X266139345Y-103226964D02*
X266939345Y-103226964D01*
X266939345Y-103036488D01*
X266901250Y-102922202D01*
X266825059Y-102846011D01*
X266748869Y-102807916D01*
X266596488Y-102769821D01*
X266482202Y-102769821D01*
X266329821Y-102807916D01*
X266253630Y-102846011D01*
X266177440Y-102922202D01*
X266139345Y-103036488D01*
X266139345Y-103226964D01*
X266063154Y-102617440D02*
X266063154Y-102007916D01*
X266177440Y-101855535D02*
X266139345Y-101741250D01*
X266139345Y-101550773D01*
X266177440Y-101474583D01*
X266215535Y-101436488D01*
X266291726Y-101398392D01*
X266367916Y-101398392D01*
X266444107Y-101436488D01*
X266482202Y-101474583D01*
X266520297Y-101550773D01*
X266558392Y-101703154D01*
X266596488Y-101779345D01*
X266634583Y-101817440D01*
X266710773Y-101855535D01*
X266786964Y-101855535D01*
X266863154Y-101817440D01*
X266901250Y-101779345D01*
X266939345Y-101703154D01*
X266939345Y-101512678D01*
X266901250Y-101398392D01*
X266558392Y-101055535D02*
X266558392Y-100788869D01*
X266139345Y-100674583D02*
X266139345Y-101055535D01*
X266939345Y-101055535D01*
X266939345Y-100674583D01*
X266139345Y-100331726D02*
X266939345Y-100331726D01*
X266367916Y-100065059D01*
X266939345Y-99798392D01*
X266139345Y-99798392D01*
X266139345Y-99417440D02*
X266939345Y-99417440D01*
X266215535Y-98579345D02*
X266177440Y-98617440D01*
X266139345Y-98731726D01*
X266139345Y-98807916D01*
X266177440Y-98922202D01*
X266253630Y-98998392D01*
X266329821Y-99036488D01*
X266482202Y-99074583D01*
X266596488Y-99074583D01*
X266748869Y-99036488D01*
X266825059Y-98998392D01*
X266901250Y-98922202D01*
X266939345Y-98807916D01*
X266939345Y-98731726D01*
X266901250Y-98617440D01*
X266863154Y-98579345D01*
X266139345Y-97817440D02*
X266139345Y-98274583D01*
X266139345Y-98046011D02*
X266939345Y-98046011D01*
X266825059Y-98122202D01*
X266748869Y-98198392D01*
X266710773Y-98274583D01*
G04 #@! TO.C,D_SHIFT1*
X300549345Y-122204583D02*
X301349345Y-122204583D01*
X301349345Y-122014107D01*
X301311250Y-121899821D01*
X301235059Y-121823630D01*
X301158869Y-121785535D01*
X301006488Y-121747440D01*
X300892202Y-121747440D01*
X300739821Y-121785535D01*
X300663630Y-121823630D01*
X300587440Y-121899821D01*
X300549345Y-122014107D01*
X300549345Y-122204583D01*
X300473154Y-121595059D02*
X300473154Y-120985535D01*
X300587440Y-120833154D02*
X300549345Y-120718869D01*
X300549345Y-120528392D01*
X300587440Y-120452202D01*
X300625535Y-120414107D01*
X300701726Y-120376011D01*
X300777916Y-120376011D01*
X300854107Y-120414107D01*
X300892202Y-120452202D01*
X300930297Y-120528392D01*
X300968392Y-120680773D01*
X301006488Y-120756964D01*
X301044583Y-120795059D01*
X301120773Y-120833154D01*
X301196964Y-120833154D01*
X301273154Y-120795059D01*
X301311250Y-120756964D01*
X301349345Y-120680773D01*
X301349345Y-120490297D01*
X301311250Y-120376011D01*
X300549345Y-120033154D02*
X301349345Y-120033154D01*
X300968392Y-120033154D02*
X300968392Y-119576011D01*
X300549345Y-119576011D02*
X301349345Y-119576011D01*
X300549345Y-119195059D02*
X301349345Y-119195059D01*
X300968392Y-118547440D02*
X300968392Y-118814107D01*
X300549345Y-118814107D02*
X301349345Y-118814107D01*
X301349345Y-118433154D01*
X301349345Y-118242678D02*
X301349345Y-117785535D01*
X300549345Y-118014107D02*
X301349345Y-118014107D01*
X300549345Y-117099821D02*
X300549345Y-117556964D01*
X300549345Y-117328392D02*
X301349345Y-117328392D01*
X301235059Y-117404583D01*
X301158869Y-117480773D01*
X301120773Y-117556964D01*
G04 #@! TO.C,D_SHIFT2*
X70949345Y-121204583D02*
X71749345Y-121204583D01*
X71749345Y-121014107D01*
X71711250Y-120899821D01*
X71635059Y-120823630D01*
X71558869Y-120785535D01*
X71406488Y-120747440D01*
X71292202Y-120747440D01*
X71139821Y-120785535D01*
X71063630Y-120823630D01*
X70987440Y-120899821D01*
X70949345Y-121014107D01*
X70949345Y-121204583D01*
X70873154Y-120595059D02*
X70873154Y-119985535D01*
X70987440Y-119833154D02*
X70949345Y-119718869D01*
X70949345Y-119528392D01*
X70987440Y-119452202D01*
X71025535Y-119414107D01*
X71101726Y-119376011D01*
X71177916Y-119376011D01*
X71254107Y-119414107D01*
X71292202Y-119452202D01*
X71330297Y-119528392D01*
X71368392Y-119680773D01*
X71406488Y-119756964D01*
X71444583Y-119795059D01*
X71520773Y-119833154D01*
X71596964Y-119833154D01*
X71673154Y-119795059D01*
X71711250Y-119756964D01*
X71749345Y-119680773D01*
X71749345Y-119490297D01*
X71711250Y-119376011D01*
X70949345Y-119033154D02*
X71749345Y-119033154D01*
X71368392Y-119033154D02*
X71368392Y-118576011D01*
X70949345Y-118576011D02*
X71749345Y-118576011D01*
X70949345Y-118195059D02*
X71749345Y-118195059D01*
X71368392Y-117547440D02*
X71368392Y-117814107D01*
X70949345Y-117814107D02*
X71749345Y-117814107D01*
X71749345Y-117433154D01*
X71749345Y-117242678D02*
X71749345Y-116785535D01*
X70949345Y-117014107D02*
X71749345Y-117014107D01*
X71673154Y-116556964D02*
X71711250Y-116518869D01*
X71749345Y-116442678D01*
X71749345Y-116252202D01*
X71711250Y-116176011D01*
X71673154Y-116137916D01*
X71596964Y-116099821D01*
X71520773Y-116099821D01*
X71406488Y-116137916D01*
X70949345Y-116595059D01*
X70949345Y-116099821D01*
G04 #@! TO.C,D_SLASH1*
X275749345Y-122414107D02*
X276549345Y-122414107D01*
X276549345Y-122223630D01*
X276511250Y-122109345D01*
X276435059Y-122033154D01*
X276358869Y-121995059D01*
X276206488Y-121956964D01*
X276092202Y-121956964D01*
X275939821Y-121995059D01*
X275863630Y-122033154D01*
X275787440Y-122109345D01*
X275749345Y-122223630D01*
X275749345Y-122414107D01*
X275673154Y-121804583D02*
X275673154Y-121195059D01*
X275787440Y-121042678D02*
X275749345Y-120928392D01*
X275749345Y-120737916D01*
X275787440Y-120661726D01*
X275825535Y-120623630D01*
X275901726Y-120585535D01*
X275977916Y-120585535D01*
X276054107Y-120623630D01*
X276092202Y-120661726D01*
X276130297Y-120737916D01*
X276168392Y-120890297D01*
X276206488Y-120966488D01*
X276244583Y-121004583D01*
X276320773Y-121042678D01*
X276396964Y-121042678D01*
X276473154Y-121004583D01*
X276511250Y-120966488D01*
X276549345Y-120890297D01*
X276549345Y-120699821D01*
X276511250Y-120585535D01*
X275749345Y-119861726D02*
X275749345Y-120242678D01*
X276549345Y-120242678D01*
X275977916Y-119633154D02*
X275977916Y-119252202D01*
X275749345Y-119709345D02*
X276549345Y-119442678D01*
X275749345Y-119176011D01*
X275787440Y-118947440D02*
X275749345Y-118833154D01*
X275749345Y-118642678D01*
X275787440Y-118566488D01*
X275825535Y-118528392D01*
X275901726Y-118490297D01*
X275977916Y-118490297D01*
X276054107Y-118528392D01*
X276092202Y-118566488D01*
X276130297Y-118642678D01*
X276168392Y-118795059D01*
X276206488Y-118871250D01*
X276244583Y-118909345D01*
X276320773Y-118947440D01*
X276396964Y-118947440D01*
X276473154Y-118909345D01*
X276511250Y-118871250D01*
X276549345Y-118795059D01*
X276549345Y-118604583D01*
X276511250Y-118490297D01*
X275749345Y-118147440D02*
X276549345Y-118147440D01*
X276168392Y-118147440D02*
X276168392Y-117690297D01*
X275749345Y-117690297D02*
X276549345Y-117690297D01*
X275749345Y-116890297D02*
X275749345Y-117347440D01*
X275749345Y-117118869D02*
X276549345Y-117118869D01*
X276435059Y-117195059D01*
X276358869Y-117271250D01*
X276320773Y-117347440D01*
G04 #@! TO.C,D_SPACE1*
X180149345Y-144452202D02*
X180949345Y-144452202D01*
X180949345Y-144261726D01*
X180911250Y-144147440D01*
X180835059Y-144071250D01*
X180758869Y-144033154D01*
X180606488Y-143995059D01*
X180492202Y-143995059D01*
X180339821Y-144033154D01*
X180263630Y-144071250D01*
X180187440Y-144147440D01*
X180149345Y-144261726D01*
X180149345Y-144452202D01*
X180073154Y-143842678D02*
X180073154Y-143233154D01*
X180187440Y-143080773D02*
X180149345Y-142966488D01*
X180149345Y-142776011D01*
X180187440Y-142699821D01*
X180225535Y-142661726D01*
X180301726Y-142623630D01*
X180377916Y-142623630D01*
X180454107Y-142661726D01*
X180492202Y-142699821D01*
X180530297Y-142776011D01*
X180568392Y-142928392D01*
X180606488Y-143004583D01*
X180644583Y-143042678D01*
X180720773Y-143080773D01*
X180796964Y-143080773D01*
X180873154Y-143042678D01*
X180911250Y-143004583D01*
X180949345Y-142928392D01*
X180949345Y-142737916D01*
X180911250Y-142623630D01*
X180149345Y-142280773D02*
X180949345Y-142280773D01*
X180949345Y-141976011D01*
X180911250Y-141899821D01*
X180873154Y-141861726D01*
X180796964Y-141823630D01*
X180682678Y-141823630D01*
X180606488Y-141861726D01*
X180568392Y-141899821D01*
X180530297Y-141976011D01*
X180530297Y-142280773D01*
X180377916Y-141518869D02*
X180377916Y-141137916D01*
X180149345Y-141595059D02*
X180949345Y-141328392D01*
X180149345Y-141061726D01*
X180225535Y-140337916D02*
X180187440Y-140376011D01*
X180149345Y-140490297D01*
X180149345Y-140566488D01*
X180187440Y-140680773D01*
X180263630Y-140756964D01*
X180339821Y-140795059D01*
X180492202Y-140833154D01*
X180606488Y-140833154D01*
X180758869Y-140795059D01*
X180835059Y-140756964D01*
X180911250Y-140680773D01*
X180949345Y-140566488D01*
X180949345Y-140490297D01*
X180911250Y-140376011D01*
X180873154Y-140337916D01*
X180568392Y-139995059D02*
X180568392Y-139728392D01*
X180149345Y-139614107D02*
X180149345Y-139995059D01*
X180949345Y-139995059D01*
X180949345Y-139614107D01*
X180149345Y-138852202D02*
X180149345Y-139309345D01*
X180149345Y-139080773D02*
X180949345Y-139080773D01*
X180835059Y-139156964D01*
X180758869Y-139233154D01*
X180720773Y-139309345D01*
G04 #@! TO.C,D_T1*
X166209345Y-82761250D02*
X167009345Y-82761250D01*
X167009345Y-82570773D01*
X166971250Y-82456488D01*
X166895059Y-82380297D01*
X166818869Y-82342202D01*
X166666488Y-82304107D01*
X166552202Y-82304107D01*
X166399821Y-82342202D01*
X166323630Y-82380297D01*
X166247440Y-82456488D01*
X166209345Y-82570773D01*
X166209345Y-82761250D01*
X166133154Y-82151726D02*
X166133154Y-81542202D01*
X167009345Y-81466011D02*
X167009345Y-81008869D01*
X166209345Y-81237440D02*
X167009345Y-81237440D01*
X166209345Y-80323154D02*
X166209345Y-80780297D01*
X166209345Y-80551726D02*
X167009345Y-80551726D01*
X166895059Y-80627916D01*
X166818869Y-80704107D01*
X166780773Y-80780297D01*
G04 #@! TO.C,D_TAB1*
X57104107Y-86363154D02*
X57104107Y-85563154D01*
X56913630Y-85563154D01*
X56799345Y-85601250D01*
X56723154Y-85677440D01*
X56685059Y-85753630D01*
X56646964Y-85906011D01*
X56646964Y-86020297D01*
X56685059Y-86172678D01*
X56723154Y-86248869D01*
X56799345Y-86325059D01*
X56913630Y-86363154D01*
X57104107Y-86363154D01*
X56494583Y-86439345D02*
X55885059Y-86439345D01*
X55808869Y-85563154D02*
X55351726Y-85563154D01*
X55580297Y-86363154D02*
X55580297Y-85563154D01*
X55123154Y-86134583D02*
X54742202Y-86134583D01*
X55199345Y-86363154D02*
X54932678Y-85563154D01*
X54666011Y-86363154D01*
X54132678Y-85944107D02*
X54018392Y-85982202D01*
X53980297Y-86020297D01*
X53942202Y-86096488D01*
X53942202Y-86210773D01*
X53980297Y-86286964D01*
X54018392Y-86325059D01*
X54094583Y-86363154D01*
X54399345Y-86363154D01*
X54399345Y-85563154D01*
X54132678Y-85563154D01*
X54056488Y-85601250D01*
X54018392Y-85639345D01*
X53980297Y-85715535D01*
X53980297Y-85791726D01*
X54018392Y-85867916D01*
X54056488Y-85906011D01*
X54132678Y-85944107D01*
X54399345Y-85944107D01*
X53180297Y-86363154D02*
X53637440Y-86363154D01*
X53408869Y-86363154D02*
X53408869Y-85563154D01*
X53485059Y-85677440D01*
X53561250Y-85753630D01*
X53637440Y-85791726D01*
G04 #@! TO.C,D_U1*
X203789345Y-82875535D02*
X204589345Y-82875535D01*
X204589345Y-82685059D01*
X204551250Y-82570773D01*
X204475059Y-82494583D01*
X204398869Y-82456488D01*
X204246488Y-82418392D01*
X204132202Y-82418392D01*
X203979821Y-82456488D01*
X203903630Y-82494583D01*
X203827440Y-82570773D01*
X203789345Y-82685059D01*
X203789345Y-82875535D01*
X203713154Y-82266011D02*
X203713154Y-81656488D01*
X204589345Y-81466011D02*
X203941726Y-81466011D01*
X203865535Y-81427916D01*
X203827440Y-81389821D01*
X203789345Y-81313630D01*
X203789345Y-81161250D01*
X203827440Y-81085059D01*
X203865535Y-81046964D01*
X203941726Y-81008869D01*
X204589345Y-81008869D01*
X203789345Y-80208869D02*
X203789345Y-80666011D01*
X203789345Y-80437440D02*
X204589345Y-80437440D01*
X204475059Y-80513630D01*
X204398869Y-80589821D01*
X204360773Y-80666011D01*
G04 #@! TO.C,D_UP1*
X351981845Y-119130535D02*
X352781845Y-119130535D01*
X352781845Y-118940059D01*
X352743750Y-118825773D01*
X352667559Y-118749583D01*
X352591369Y-118711488D01*
X352438988Y-118673392D01*
X352324702Y-118673392D01*
X352172321Y-118711488D01*
X352096130Y-118749583D01*
X352019940Y-118825773D01*
X351981845Y-118940059D01*
X351981845Y-119130535D01*
X351905654Y-118521011D02*
X351905654Y-117911488D01*
X352781845Y-117721011D02*
X352134226Y-117721011D01*
X352058035Y-117682916D01*
X352019940Y-117644821D01*
X351981845Y-117568630D01*
X351981845Y-117416250D01*
X352019940Y-117340059D01*
X352058035Y-117301964D01*
X352134226Y-117263869D01*
X352781845Y-117263869D01*
X351981845Y-116882916D02*
X352781845Y-116882916D01*
X352781845Y-116578154D01*
X352743750Y-116501964D01*
X352705654Y-116463869D01*
X352629464Y-116425773D01*
X352515178Y-116425773D01*
X352438988Y-116463869D01*
X352400892Y-116501964D01*
X352362797Y-116578154D01*
X352362797Y-116882916D01*
X351981845Y-115663869D02*
X351981845Y-116121011D01*
X351981845Y-115892440D02*
X352781845Y-115892440D01*
X352667559Y-115968630D01*
X352591369Y-116044821D01*
X352553273Y-116121011D01*
G04 #@! TO.C,D_V1*
X161449345Y-120909345D02*
X162249345Y-120909345D01*
X162249345Y-120718869D01*
X162211250Y-120604583D01*
X162135059Y-120528392D01*
X162058869Y-120490297D01*
X161906488Y-120452202D01*
X161792202Y-120452202D01*
X161639821Y-120490297D01*
X161563630Y-120528392D01*
X161487440Y-120604583D01*
X161449345Y-120718869D01*
X161449345Y-120909345D01*
X161373154Y-120299821D02*
X161373154Y-119690297D01*
X162249345Y-119614107D02*
X161449345Y-119347440D01*
X162249345Y-119080773D01*
X161449345Y-118395059D02*
X161449345Y-118852202D01*
X161449345Y-118623630D02*
X162249345Y-118623630D01*
X162135059Y-118699821D01*
X162058869Y-118776011D01*
X162020773Y-118852202D01*
G04 #@! TO.C,D_W1*
X109379345Y-82893630D02*
X110179345Y-82893630D01*
X110179345Y-82703154D01*
X110141250Y-82588869D01*
X110065059Y-82512678D01*
X109988869Y-82474583D01*
X109836488Y-82436488D01*
X109722202Y-82436488D01*
X109569821Y-82474583D01*
X109493630Y-82512678D01*
X109417440Y-82588869D01*
X109379345Y-82703154D01*
X109379345Y-82893630D01*
X109303154Y-82284107D02*
X109303154Y-81674583D01*
X110179345Y-81560297D02*
X109379345Y-81369821D01*
X109950773Y-81217440D01*
X109379345Y-81065059D01*
X110179345Y-80874583D01*
X109379345Y-80150773D02*
X109379345Y-80607916D01*
X109379345Y-80379345D02*
X110179345Y-80379345D01*
X110065059Y-80455535D01*
X109988869Y-80531726D01*
X109950773Y-80607916D01*
G04 #@! TO.C,D_WIN1*
X94749345Y-140733154D02*
X95549345Y-140733154D01*
X95549345Y-140542678D01*
X95511250Y-140428392D01*
X95435059Y-140352202D01*
X95358869Y-140314107D01*
X95206488Y-140276011D01*
X95092202Y-140276011D01*
X94939821Y-140314107D01*
X94863630Y-140352202D01*
X94787440Y-140428392D01*
X94749345Y-140542678D01*
X94749345Y-140733154D01*
X94673154Y-140123630D02*
X94673154Y-139514107D01*
X95549345Y-139399821D02*
X94749345Y-139209345D01*
X95320773Y-139056964D01*
X94749345Y-138904583D01*
X95549345Y-138714107D01*
X94749345Y-138409345D02*
X95549345Y-138409345D01*
X94749345Y-138028392D02*
X95549345Y-138028392D01*
X94749345Y-137571250D01*
X95549345Y-137571250D01*
X94749345Y-136771250D02*
X94749345Y-137228392D01*
X94749345Y-136999821D02*
X95549345Y-136999821D01*
X95435059Y-137076011D01*
X95358869Y-137152202D01*
X95320773Y-137228392D01*
G04 #@! TO.C,D_X1*
X123249345Y-120847440D02*
X124049345Y-120847440D01*
X124049345Y-120656964D01*
X124011250Y-120542678D01*
X123935059Y-120466488D01*
X123858869Y-120428392D01*
X123706488Y-120390297D01*
X123592202Y-120390297D01*
X123439821Y-120428392D01*
X123363630Y-120466488D01*
X123287440Y-120542678D01*
X123249345Y-120656964D01*
X123249345Y-120847440D01*
X123173154Y-120237916D02*
X123173154Y-119628392D01*
X124049345Y-119514107D02*
X123249345Y-118980773D01*
X124049345Y-118980773D02*
X123249345Y-119514107D01*
X123249345Y-118256964D02*
X123249345Y-118714107D01*
X123249345Y-118485535D02*
X124049345Y-118485535D01*
X123935059Y-118561726D01*
X123858869Y-118637916D01*
X123820773Y-118714107D01*
G04 #@! TO.C,D_Y1*
X184949345Y-82859345D02*
X185749345Y-82859345D01*
X185749345Y-82668869D01*
X185711250Y-82554583D01*
X185635059Y-82478392D01*
X185558869Y-82440297D01*
X185406488Y-82402202D01*
X185292202Y-82402202D01*
X185139821Y-82440297D01*
X185063630Y-82478392D01*
X184987440Y-82554583D01*
X184949345Y-82668869D01*
X184949345Y-82859345D01*
X184873154Y-82249821D02*
X184873154Y-81640297D01*
X185330297Y-81297440D02*
X184949345Y-81297440D01*
X185749345Y-81564107D02*
X185330297Y-81297440D01*
X185749345Y-81030773D01*
X184949345Y-80345059D02*
X184949345Y-80802202D01*
X184949345Y-80573630D02*
X185749345Y-80573630D01*
X185635059Y-80649821D01*
X185558869Y-80726011D01*
X185520773Y-80802202D01*
G04 #@! TO.C,D_Z1*
X104249345Y-120847440D02*
X105049345Y-120847440D01*
X105049345Y-120656964D01*
X105011250Y-120542678D01*
X104935059Y-120466488D01*
X104858869Y-120428392D01*
X104706488Y-120390297D01*
X104592202Y-120390297D01*
X104439821Y-120428392D01*
X104363630Y-120466488D01*
X104287440Y-120542678D01*
X104249345Y-120656964D01*
X104249345Y-120847440D01*
X104173154Y-120237916D02*
X104173154Y-119628392D01*
X105049345Y-119514107D02*
X105049345Y-118980773D01*
X104249345Y-119514107D01*
X104249345Y-118980773D01*
X104249345Y-118256964D02*
X104249345Y-118714107D01*
X104249345Y-118485535D02*
X105049345Y-118485535D01*
X104935059Y-118561726D01*
X104858869Y-118637916D01*
X104820773Y-118714107D01*
G04 #@! TO.C,X1*
D11*
X343900773Y-89723630D02*
X343234107Y-90723630D01*
X343234107Y-89723630D02*
X343900773Y-90723630D01*
X342329345Y-90723630D02*
X342900773Y-90723630D01*
X342615059Y-90723630D02*
X342615059Y-89723630D01*
X342710297Y-89866488D01*
X342805535Y-89961726D01*
X342900773Y-90009345D01*
G04 #@! TO.C,D_R_ALT_STD_1*
D13*
X253138095Y-136866666D02*
X253938095Y-136866666D01*
X253938095Y-136676190D01*
X253900000Y-136561904D01*
X253823809Y-136485714D01*
X253747619Y-136447619D01*
X253595238Y-136409523D01*
X253480952Y-136409523D01*
X253328571Y-136447619D01*
X253252380Y-136485714D01*
X253176190Y-136561904D01*
X253138095Y-136676190D01*
X253138095Y-136866666D01*
X253061904Y-136257142D02*
X253061904Y-135647619D01*
X253138095Y-135000000D02*
X253519047Y-135266666D01*
X253138095Y-135457142D02*
X253938095Y-135457142D01*
X253938095Y-135152380D01*
X253900000Y-135076190D01*
X253861904Y-135038095D01*
X253785714Y-135000000D01*
X253671428Y-135000000D01*
X253595238Y-135038095D01*
X253557142Y-135076190D01*
X253519047Y-135152380D01*
X253519047Y-135457142D01*
X253061904Y-134847619D02*
X253061904Y-134238095D01*
X253366666Y-134085714D02*
X253366666Y-133704761D01*
X253138095Y-134161904D02*
X253938095Y-133895238D01*
X253138095Y-133628571D01*
X253138095Y-132980952D02*
X253138095Y-133361904D01*
X253938095Y-133361904D01*
X253938095Y-132828571D02*
X253938095Y-132371428D01*
X253138095Y-132600000D02*
X253938095Y-132600000D01*
X253061904Y-132295238D02*
X253061904Y-131685714D01*
X253176190Y-131533333D02*
X253138095Y-131419047D01*
X253138095Y-131228571D01*
X253176190Y-131152380D01*
X253214285Y-131114285D01*
X253290476Y-131076190D01*
X253366666Y-131076190D01*
X253442857Y-131114285D01*
X253480952Y-131152380D01*
X253519047Y-131228571D01*
X253557142Y-131380952D01*
X253595238Y-131457142D01*
X253633333Y-131495238D01*
X253709523Y-131533333D01*
X253785714Y-131533333D01*
X253861904Y-131495238D01*
X253900000Y-131457142D01*
X253938095Y-131380952D01*
X253938095Y-131190476D01*
X253900000Y-131076190D01*
X253938095Y-130847619D02*
X253938095Y-130390476D01*
X253138095Y-130619047D02*
X253938095Y-130619047D01*
X253138095Y-130123809D02*
X253938095Y-130123809D01*
X253938095Y-129933333D01*
X253900000Y-129819047D01*
X253823809Y-129742857D01*
X253747619Y-129704761D01*
X253595238Y-129666666D01*
X253480952Y-129666666D01*
X253328571Y-129704761D01*
X253252380Y-129742857D01*
X253176190Y-129819047D01*
X253138095Y-129933333D01*
X253138095Y-130123809D01*
X253061904Y-129514285D02*
X253061904Y-128904761D01*
X253138095Y-128295238D02*
X253138095Y-128752380D01*
X253138095Y-128523809D02*
X253938095Y-128523809D01*
X253823809Y-128600000D01*
X253747619Y-128676190D01*
X253709523Y-128752380D01*
G04 #@! TO.C,ESD1*
D11*
X199778571Y-104643333D02*
X199778571Y-104976666D01*
X200302380Y-105119523D02*
X200302380Y-104643333D01*
X199302380Y-104643333D01*
X199302380Y-105119523D01*
X200254761Y-105500476D02*
X200302380Y-105643333D01*
X200302380Y-105881428D01*
X200254761Y-105976666D01*
X200207142Y-106024285D01*
X200111904Y-106071904D01*
X200016666Y-106071904D01*
X199921428Y-106024285D01*
X199873809Y-105976666D01*
X199826190Y-105881428D01*
X199778571Y-105690952D01*
X199730952Y-105595714D01*
X199683333Y-105548095D01*
X199588095Y-105500476D01*
X199492857Y-105500476D01*
X199397619Y-105548095D01*
X199350000Y-105595714D01*
X199302380Y-105690952D01*
X199302380Y-105929047D01*
X199350000Y-106071904D01*
X200302380Y-106500476D02*
X199302380Y-106500476D01*
X199302380Y-106738571D01*
X199350000Y-106881428D01*
X199445238Y-106976666D01*
X199540476Y-107024285D01*
X199730952Y-107071904D01*
X199873809Y-107071904D01*
X200064285Y-107024285D01*
X200159523Y-106976666D01*
X200254761Y-106881428D01*
X200302380Y-106738571D01*
X200302380Y-106500476D01*
X200302380Y-108024285D02*
X200302380Y-107452857D01*
X200302380Y-107738571D02*
X199302380Y-107738571D01*
X199445238Y-107643333D01*
X199540476Y-107548095D01*
X199588095Y-107452857D01*
G04 #@! TO.C,R5*
X205026666Y-54032380D02*
X205360000Y-53556190D01*
X205598095Y-54032380D02*
X205598095Y-53032380D01*
X205217142Y-53032380D01*
X205121904Y-53080000D01*
X205074285Y-53127619D01*
X205026666Y-53222857D01*
X205026666Y-53365714D01*
X205074285Y-53460952D01*
X205121904Y-53508571D01*
X205217142Y-53556190D01*
X205598095Y-53556190D01*
X204121904Y-53032380D02*
X204598095Y-53032380D01*
X204645714Y-53508571D01*
X204598095Y-53460952D01*
X204502857Y-53413333D01*
X204264761Y-53413333D01*
X204169523Y-53460952D01*
X204121904Y-53508571D01*
X204074285Y-53603809D01*
X204074285Y-53841904D01*
X204121904Y-53937142D01*
X204169523Y-53984761D01*
X204264761Y-54032380D01*
X204502857Y-54032380D01*
X204598095Y-53984761D01*
X204645714Y-53937142D01*
G04 #@! TO.C,R6*
X210336666Y-51572380D02*
X210670000Y-51096190D01*
X210908095Y-51572380D02*
X210908095Y-50572380D01*
X210527142Y-50572380D01*
X210431904Y-50620000D01*
X210384285Y-50667619D01*
X210336666Y-50762857D01*
X210336666Y-50905714D01*
X210384285Y-51000952D01*
X210431904Y-51048571D01*
X210527142Y-51096190D01*
X210908095Y-51096190D01*
X209479523Y-50572380D02*
X209670000Y-50572380D01*
X209765238Y-50620000D01*
X209812857Y-50667619D01*
X209908095Y-50810476D01*
X209955714Y-51000952D01*
X209955714Y-51381904D01*
X209908095Y-51477142D01*
X209860476Y-51524761D01*
X209765238Y-51572380D01*
X209574761Y-51572380D01*
X209479523Y-51524761D01*
X209431904Y-51477142D01*
X209384285Y-51381904D01*
X209384285Y-51143809D01*
X209431904Y-51048571D01*
X209479523Y-51000952D01*
X209574761Y-50953333D01*
X209765238Y-50953333D01*
X209860476Y-51000952D01*
X209908095Y-51048571D01*
X209955714Y-51143809D01*
G04 #@! TO.C,USB1*
X209008095Y-50402380D02*
X209008095Y-51211904D01*
X208960476Y-51307142D01*
X208912857Y-51354761D01*
X208817619Y-51402380D01*
X208627142Y-51402380D01*
X208531904Y-51354761D01*
X208484285Y-51307142D01*
X208436666Y-51211904D01*
X208436666Y-50402380D01*
X208008095Y-51354761D02*
X207865238Y-51402380D01*
X207627142Y-51402380D01*
X207531904Y-51354761D01*
X207484285Y-51307142D01*
X207436666Y-51211904D01*
X207436666Y-51116666D01*
X207484285Y-51021428D01*
X207531904Y-50973809D01*
X207627142Y-50926190D01*
X207817619Y-50878571D01*
X207912857Y-50830952D01*
X207960476Y-50783333D01*
X208008095Y-50688095D01*
X208008095Y-50592857D01*
X207960476Y-50497619D01*
X207912857Y-50450000D01*
X207817619Y-50402380D01*
X207579523Y-50402380D01*
X207436666Y-50450000D01*
X206674761Y-50878571D02*
X206531904Y-50926190D01*
X206484285Y-50973809D01*
X206436666Y-51069047D01*
X206436666Y-51211904D01*
X206484285Y-51307142D01*
X206531904Y-51354761D01*
X206627142Y-51402380D01*
X207008095Y-51402380D01*
X207008095Y-50402380D01*
X206674761Y-50402380D01*
X206579523Y-50450000D01*
X206531904Y-50497619D01*
X206484285Y-50592857D01*
X206484285Y-50688095D01*
X206531904Y-50783333D01*
X206579523Y-50830952D01*
X206674761Y-50878571D01*
X207008095Y-50878571D01*
X205484285Y-51402380D02*
X206055714Y-51402380D01*
X205770000Y-51402380D02*
X205770000Y-50402380D01*
X205865238Y-50545238D01*
X205960476Y-50640476D01*
X206055714Y-50688095D01*
G04 #@! TD*
M02*
