G04 #@! TF.GenerationSoftware,KiCad,Pcbnew,(5.0.2)-1*
G04 #@! TF.CreationDate,2019-10-15T21:32:32+05:30*
G04 #@! TF.ProjectId,keyboard,6b657962-6f61-4726-942e-6b696361645f,rev?*
G04 #@! TF.SameCoordinates,Original*
G04 #@! TF.FileFunction,Legend,Top*
G04 #@! TF.FilePolarity,Positive*
%FSLAX46Y46*%
G04 Gerber Fmt 4.6, Leading zero omitted, Abs format (unit mm)*
G04 Created by KiCad (PCBNEW (5.0.2)-1) date 10/15/2019 9:32:32 PM*
%MOMM*%
%LPD*%
G01*
G04 APERTURE LIST*
%ADD10C,0.250000*%
%ADD11C,0.300000*%
G04 APERTURE END LIST*
D10*
X357091428Y-137272380D02*
X357091428Y-136272380D01*
X357472380Y-136272380D01*
X357567619Y-136320000D01*
X357615238Y-136367619D01*
X357662857Y-136462857D01*
X357662857Y-136605714D01*
X357615238Y-136700952D01*
X357567619Y-136748571D01*
X357472380Y-136796190D01*
X357091428Y-136796190D01*
X358662857Y-137177142D02*
X358615238Y-137224761D01*
X358472380Y-137272380D01*
X358377142Y-137272380D01*
X358234285Y-137224761D01*
X358139047Y-137129523D01*
X358091428Y-137034285D01*
X358043809Y-136843809D01*
X358043809Y-136700952D01*
X358091428Y-136510476D01*
X358139047Y-136415238D01*
X358234285Y-136320000D01*
X358377142Y-136272380D01*
X358472380Y-136272380D01*
X358615238Y-136320000D01*
X358662857Y-136367619D01*
X359424761Y-136748571D02*
X359567619Y-136796190D01*
X359615238Y-136843809D01*
X359662857Y-136939047D01*
X359662857Y-137081904D01*
X359615238Y-137177142D01*
X359567619Y-137224761D01*
X359472380Y-137272380D01*
X359091428Y-137272380D01*
X359091428Y-136272380D01*
X359424761Y-136272380D01*
X359520000Y-136320000D01*
X359567619Y-136367619D01*
X359615238Y-136462857D01*
X359615238Y-136558095D01*
X359567619Y-136653333D01*
X359520000Y-136700952D01*
X359424761Y-136748571D01*
X359091428Y-136748571D01*
X361186666Y-136748571D02*
X361329523Y-136796190D01*
X361377142Y-136843809D01*
X361424761Y-136939047D01*
X361424761Y-137081904D01*
X361377142Y-137177142D01*
X361329523Y-137224761D01*
X361234285Y-137272380D01*
X360853333Y-137272380D01*
X360853333Y-136272380D01*
X361186666Y-136272380D01*
X361281904Y-136320000D01*
X361329523Y-136367619D01*
X361377142Y-136462857D01*
X361377142Y-136558095D01*
X361329523Y-136653333D01*
X361281904Y-136700952D01*
X361186666Y-136748571D01*
X360853333Y-136748571D01*
X362281904Y-136605714D02*
X362281904Y-137272380D01*
X361853333Y-136605714D02*
X361853333Y-137129523D01*
X361900952Y-137224761D01*
X361996190Y-137272380D01*
X362139047Y-137272380D01*
X362234285Y-137224761D01*
X362281904Y-137177142D01*
X362758095Y-137272380D02*
X362758095Y-136605714D01*
X362758095Y-136272380D02*
X362710476Y-136320000D01*
X362758095Y-136367619D01*
X362805714Y-136320000D01*
X362758095Y-136272380D01*
X362758095Y-136367619D01*
X363377142Y-137272380D02*
X363281904Y-137224761D01*
X363234285Y-137129523D01*
X363234285Y-136272380D01*
X364186666Y-137272380D02*
X364186666Y-136272380D01*
X364186666Y-137224761D02*
X364091428Y-137272380D01*
X363900952Y-137272380D01*
X363805714Y-137224761D01*
X363758095Y-137177142D01*
X363710476Y-137081904D01*
X363710476Y-136796190D01*
X363758095Y-136700952D01*
X363805714Y-136653333D01*
X363900952Y-136605714D01*
X364091428Y-136605714D01*
X364186666Y-136653333D01*
X365043809Y-137224761D02*
X364948571Y-137272380D01*
X364758095Y-137272380D01*
X364662857Y-137224761D01*
X364615238Y-137129523D01*
X364615238Y-136748571D01*
X364662857Y-136653333D01*
X364758095Y-136605714D01*
X364948571Y-136605714D01*
X365043809Y-136653333D01*
X365091428Y-136748571D01*
X365091428Y-136843809D01*
X364615238Y-136939047D01*
X365520000Y-137272380D02*
X365520000Y-136605714D01*
X365520000Y-136796190D02*
X365567619Y-136700952D01*
X365615238Y-136653333D01*
X365710476Y-136605714D01*
X365805714Y-136605714D01*
X366900952Y-137272380D02*
X366900952Y-136272380D01*
X366900952Y-136653333D02*
X366996190Y-136605714D01*
X367186666Y-136605714D01*
X367281904Y-136653333D01*
X367329523Y-136700952D01*
X367377142Y-136796190D01*
X367377142Y-137081904D01*
X367329523Y-137177142D01*
X367281904Y-137224761D01*
X367186666Y-137272380D01*
X366996190Y-137272380D01*
X366900952Y-137224761D01*
X367710476Y-136605714D02*
X367948571Y-137272380D01*
X368186666Y-136605714D02*
X367948571Y-137272380D01*
X367853333Y-137510476D01*
X367805714Y-137558095D01*
X367710476Y-137605714D01*
X369329523Y-137272380D02*
X369329523Y-136272380D01*
X369662857Y-136986666D01*
X369996190Y-136272380D01*
X369996190Y-137272380D01*
X370472380Y-137272380D02*
X370472380Y-136605714D01*
X370472380Y-136272380D02*
X370424761Y-136320000D01*
X370472380Y-136367619D01*
X370520000Y-136320000D01*
X370472380Y-136272380D01*
X370472380Y-136367619D01*
X370900952Y-137224761D02*
X370996190Y-137272380D01*
X371186666Y-137272380D01*
X371281904Y-137224761D01*
X371329523Y-137129523D01*
X371329523Y-137081904D01*
X371281904Y-136986666D01*
X371186666Y-136939047D01*
X371043809Y-136939047D01*
X370948571Y-136891428D01*
X370900952Y-136796190D01*
X370900952Y-136748571D01*
X370948571Y-136653333D01*
X371043809Y-136605714D01*
X371186666Y-136605714D01*
X371281904Y-136653333D01*
X371615238Y-136605714D02*
X371996190Y-136605714D01*
X371758095Y-136272380D02*
X371758095Y-137129523D01*
X371805714Y-137224761D01*
X371900952Y-137272380D01*
X371996190Y-137272380D01*
X372710476Y-137224761D02*
X372615238Y-137272380D01*
X372424761Y-137272380D01*
X372329523Y-137224761D01*
X372281904Y-137129523D01*
X372281904Y-136748571D01*
X372329523Y-136653333D01*
X372424761Y-136605714D01*
X372615238Y-136605714D01*
X372710476Y-136653333D01*
X372758095Y-136748571D01*
X372758095Y-136843809D01*
X372281904Y-136939047D01*
X373186666Y-137272380D02*
X373186666Y-136605714D01*
X373186666Y-136796190D02*
X373234285Y-136700952D01*
X373281904Y-136653333D01*
X373377142Y-136605714D01*
X373472380Y-136605714D01*
X373805714Y-137272380D02*
X373805714Y-136272380D01*
X374377142Y-137272380D02*
X373948571Y-136700952D01*
X374377142Y-136272380D02*
X373805714Y-136843809D01*
X375186666Y-137224761D02*
X375091428Y-137272380D01*
X374900952Y-137272380D01*
X374805714Y-137224761D01*
X374758095Y-137129523D01*
X374758095Y-136748571D01*
X374805714Y-136653333D01*
X374900952Y-136605714D01*
X375091428Y-136605714D01*
X375186666Y-136653333D01*
X375234285Y-136748571D01*
X375234285Y-136843809D01*
X374758095Y-136939047D01*
X376043809Y-137224761D02*
X375948571Y-137272380D01*
X375758095Y-137272380D01*
X375662857Y-137224761D01*
X375615238Y-137129523D01*
X375615238Y-136748571D01*
X375662857Y-136653333D01*
X375758095Y-136605714D01*
X375948571Y-136605714D01*
X376043809Y-136653333D01*
X376091428Y-136748571D01*
X376091428Y-136843809D01*
X375615238Y-136939047D01*
X376520000Y-137272380D02*
X376520000Y-136272380D01*
X376520000Y-136653333D02*
X376615238Y-136605714D01*
X376805714Y-136605714D01*
X376900952Y-136653333D01*
X376948571Y-136700952D01*
X376996190Y-136796190D01*
X376996190Y-137081904D01*
X376948571Y-137177142D01*
X376900952Y-137224761D01*
X376805714Y-137272380D01*
X376615238Y-137272380D01*
X376520000Y-137224761D01*
X377377142Y-137224761D02*
X377472380Y-137272380D01*
X377662857Y-137272380D01*
X377758095Y-137224761D01*
X377805714Y-137129523D01*
X377805714Y-137081904D01*
X377758095Y-136986666D01*
X377662857Y-136939047D01*
X377520000Y-136939047D01*
X377424761Y-136891428D01*
X377377142Y-136796190D01*
X377377142Y-136748571D01*
X377424761Y-136653333D01*
X377520000Y-136605714D01*
X377662857Y-136605714D01*
X377758095Y-136653333D01*
X378996190Y-136891428D02*
X379758095Y-136891428D01*
X380996190Y-137272380D02*
X380996190Y-136605714D01*
X380996190Y-136700952D02*
X381043809Y-136653333D01*
X381139047Y-136605714D01*
X381281904Y-136605714D01*
X381377142Y-136653333D01*
X381424761Y-136748571D01*
X381424761Y-137272380D01*
X381424761Y-136748571D02*
X381472380Y-136653333D01*
X381567619Y-136605714D01*
X381710476Y-136605714D01*
X381805714Y-136653333D01*
X381853333Y-136748571D01*
X381853333Y-137272380D01*
X382329523Y-137272380D02*
X382329523Y-136605714D01*
X382329523Y-136796190D02*
X382377142Y-136700952D01*
X382424761Y-136653333D01*
X382520000Y-136605714D01*
X382615238Y-136605714D01*
X382948571Y-137272380D02*
X382948571Y-136272380D01*
X383043809Y-136891428D02*
X383329523Y-137272380D01*
X383329523Y-136605714D02*
X382948571Y-136986666D01*
X384139047Y-137224761D02*
X384043809Y-137272380D01*
X383853333Y-137272380D01*
X383758095Y-137224761D01*
X383710476Y-137129523D01*
X383710476Y-136748571D01*
X383758095Y-136653333D01*
X383853333Y-136605714D01*
X384043809Y-136605714D01*
X384139047Y-136653333D01*
X384186666Y-136748571D01*
X384186666Y-136843809D01*
X383710476Y-136939047D01*
X384996190Y-137224761D02*
X384900952Y-137272380D01*
X384710476Y-137272380D01*
X384615238Y-137224761D01*
X384567619Y-137129523D01*
X384567619Y-136748571D01*
X384615238Y-136653333D01*
X384710476Y-136605714D01*
X384900952Y-136605714D01*
X384996190Y-136653333D01*
X385043809Y-136748571D01*
X385043809Y-136843809D01*
X384567619Y-136939047D01*
X385472380Y-137272380D02*
X385472380Y-136272380D01*
X385472380Y-136653333D02*
X385567619Y-136605714D01*
X385758095Y-136605714D01*
X385853333Y-136653333D01*
X385900952Y-136700952D01*
X385948571Y-136796190D01*
X385948571Y-137081904D01*
X385900952Y-137177142D01*
X385853333Y-137224761D01*
X385758095Y-137272380D01*
X385567619Y-137272380D01*
X385472380Y-137224761D01*
X386329523Y-137224761D02*
X386424761Y-137272380D01*
X386615238Y-137272380D01*
X386710476Y-137224761D01*
X386758095Y-137129523D01*
X386758095Y-137081904D01*
X386710476Y-136986666D01*
X386615238Y-136939047D01*
X386472380Y-136939047D01*
X386377142Y-136891428D01*
X386329523Y-136796190D01*
X386329523Y-136748571D01*
X386377142Y-136653333D01*
X386472380Y-136605714D01*
X386615238Y-136605714D01*
X386710476Y-136653333D01*
X387186666Y-137177142D02*
X387234285Y-137224761D01*
X387186666Y-137272380D01*
X387139047Y-137224761D01*
X387186666Y-137177142D01*
X387186666Y-137272380D01*
X388091428Y-137224761D02*
X387996190Y-137272380D01*
X387805714Y-137272380D01*
X387710476Y-137224761D01*
X387662857Y-137177142D01*
X387615238Y-137081904D01*
X387615238Y-136796190D01*
X387662857Y-136700952D01*
X387710476Y-136653333D01*
X387805714Y-136605714D01*
X387996190Y-136605714D01*
X388091428Y-136653333D01*
X388662857Y-137272380D02*
X388567619Y-137224761D01*
X388520000Y-137177142D01*
X388472380Y-137081904D01*
X388472380Y-136796190D01*
X388520000Y-136700952D01*
X388567619Y-136653333D01*
X388662857Y-136605714D01*
X388805714Y-136605714D01*
X388900952Y-136653333D01*
X388948571Y-136700952D01*
X388996190Y-136796190D01*
X388996190Y-137081904D01*
X388948571Y-137177142D01*
X388900952Y-137224761D01*
X388805714Y-137272380D01*
X388662857Y-137272380D01*
X389424761Y-137272380D02*
X389424761Y-136605714D01*
X389424761Y-136700952D02*
X389472380Y-136653333D01*
X389567619Y-136605714D01*
X389710476Y-136605714D01*
X389805714Y-136653333D01*
X389853333Y-136748571D01*
X389853333Y-137272380D01*
X389853333Y-136748571D02*
X389900952Y-136653333D01*
X389996190Y-136605714D01*
X390139047Y-136605714D01*
X390234285Y-136653333D01*
X390281904Y-136748571D01*
X390281904Y-137272380D01*
D11*
M02*
