M48
;DRILL file {KiCad (5.0.2)-1} date 10/15/2019 9:32:36 PM
;FORMAT={-:-/ absolute / metric / decimal}
FMAT,2
METRIC,TZ
T1C0.300
T2C0.400
T3C0.700
T4C1.470
T5C1.750
T6C3.048
T7C3.988
%
G90
G05
T1
X175.3Y-76.2
X364.7Y-74.3
X379.Y-79.6
X230.1Y-40.
X352.Y-75.4
X352.7Y-80.9
T2
X63.86Y-55.79
X83.24Y-55.78
X125.257Y-114.11
X147.674Y-112.048
X168.63Y-77.46
X188.472Y-76.58
X198.1Y-92.3
X206.64Y-76.11
X212.4Y-44.8
X219.1Y-93.3
X219.4Y-92.
X221.Y-40.2
X224.7Y-41.1
X233.97Y-55.195
X252.405Y-55.96
X272.29Y-55.125
X291.34Y-55.125
X303.85Y-111.
X329.97Y-73.486
X331.Y-110.24
X332.33Y-82.43
X339.487Y-74.163
X340.56Y-74.85
X341.53Y-75.656
X341.98Y-104.65
X342.23Y-76.51
X345.Y-51.995
X345.46Y-78.786
X345.79Y-72.7
X350.3Y-109.145
X351.425Y-80.638
X351.482Y-79.64
X351.7Y-69.29
X352.4Y-78.65
X352.41Y-70.1
X352.9Y-82.2
X353.04Y-72.095
X353.78Y-72.82
X358.97Y-70.1
X360.72Y-69.29
X366.416Y-72.184
X366.49Y-56.976
X367.53Y-72.15
X369.25Y-72.09
X369.3Y-105.7
X369.54Y-58.36
X370.425Y-70.
X370.45Y-72.13
X370.65Y-54.852
X371.672Y-71.963
X372.67Y-71.899
X375.75Y-86.255
X378.04Y-128.195
X383.33Y-87.824
X384.66Y-69.21
T4
X334.748Y-121.255
X336.058Y-119.795
X341.058Y-119.295
X341.097Y-118.715
X94.241Y-121.255
X95.551Y-119.795
X100.551Y-119.295
X100.591Y-118.715
X277.597Y-102.205
X278.907Y-100.745
X283.907Y-100.245
X283.947Y-99.665
X287.123Y-83.155
X288.433Y-81.695
X293.433Y-81.195
X293.472Y-80.615
X325.222Y-64.105
X326.532Y-62.645
X331.532Y-62.145
X331.572Y-61.565
X310.935Y-45.055
X312.245Y-43.595
X317.245Y-43.095
X317.285Y-42.515
X82.335Y-45.055
X83.645Y-43.595
X88.645Y-43.095
X88.685Y-42.515
X372.847Y-45.055
X374.157Y-43.595
X379.157Y-43.095
X379.197Y-42.515
X301.41Y-64.105
X302.72Y-62.645
X307.72Y-62.145
X307.76Y-61.565
X139.485Y-45.055
X140.795Y-43.595
X145.795Y-43.095
X145.835Y-42.515
X353.797Y-102.205
X355.107Y-100.745
X360.107Y-100.245
X360.147Y-99.665
X258.548Y-102.205
X259.858Y-100.745
X264.858Y-100.245
X264.897Y-99.665
X210.922Y-83.155
X212.232Y-81.695
X217.232Y-81.195
X217.272Y-80.615
X263.31Y-64.105
X264.62Y-62.645
X269.62Y-62.145
X269.66Y-61.565
X291.885Y-45.055
X293.195Y-43.595
X298.195Y-43.095
X298.235Y-42.515
X110.91Y-64.105
X112.22Y-62.645
X117.22Y-62.145
X117.26Y-61.565
X268.072Y-83.155
X269.382Y-81.695
X274.382Y-81.195
X274.423Y-80.615
X282.36Y-64.105
X283.67Y-62.645
X288.67Y-62.145
X288.71Y-61.565
X182.347Y-102.205
X183.657Y-100.745
X188.657Y-100.245
X188.697Y-99.665
X163.297Y-102.205
X164.607Y-100.745
X169.607Y-100.245
X169.647Y-99.665
X172.822Y-83.155
X174.132Y-81.695
X179.132Y-81.195
X179.172Y-80.615
X206.16Y-64.105
X207.47Y-62.645
X212.47Y-62.145
X212.51Y-61.565
X272.835Y-45.055
X274.145Y-43.595
X279.145Y-43.095
X279.185Y-42.515
X158.535Y-45.055
X159.845Y-43.595
X164.845Y-43.095
X164.885Y-42.515
X329.985Y-45.055
X331.295Y-43.595
X336.295Y-43.095
X336.335Y-42.515
X220.447Y-102.205
X221.757Y-100.745
X226.757Y-100.245
X226.797Y-99.665
X225.21Y-64.105
X226.52Y-62.645
X231.52Y-62.145
X231.56Y-61.565
X201.397Y-121.255
X202.707Y-119.795
X207.707Y-119.295
X207.748Y-118.715
X308.554Y-121.255
X309.864Y-119.795
X314.864Y-119.295
X314.904Y-118.715
X68.047Y-121.255
X69.358Y-119.795
X74.358Y-119.295
X74.397Y-118.715
X239.498Y-102.205
X240.807Y-100.745
X245.807Y-100.245
X245.847Y-99.665
X153.772Y-83.155
X155.082Y-81.695
X160.082Y-81.195
X160.123Y-80.615
X168.06Y-64.105
X169.37Y-62.645
X174.37Y-62.145
X174.41Y-61.565
X144.248Y-102.205
X145.558Y-100.745
X150.558Y-100.245
X150.597Y-99.665
X187.11Y-64.105
X188.42Y-62.645
X193.42Y-62.145
X193.46Y-61.565
X101.385Y-45.055
X102.695Y-43.595
X107.695Y-43.095
X107.735Y-42.515
X120.435Y-45.055
X121.745Y-43.595
X126.745Y-43.095
X126.785Y-42.515
X201.397Y-102.205
X202.707Y-100.745
X207.707Y-100.245
X207.748Y-99.665
X318.079Y-83.155
X319.389Y-81.695
X324.389Y-81.195
X324.429Y-80.615
X125.197Y-102.205
X126.507Y-100.745
X131.507Y-100.245
X131.547Y-99.665
X115.672Y-83.155
X116.983Y-81.695
X121.982Y-81.195
X122.022Y-80.615
X129.96Y-64.105
X131.27Y-62.645
X136.27Y-62.145
X136.31Y-61.565
X215.685Y-45.055
X216.995Y-43.595
X221.995Y-43.095
X222.035Y-42.515
X149.01Y-64.105
X150.32Y-62.645
X155.32Y-62.145
X155.36Y-61.565
X229.972Y-83.155
X231.282Y-81.695
X236.282Y-81.195
X236.322Y-80.615
X96.623Y-83.155
X97.932Y-81.695
X102.932Y-81.195
X102.972Y-80.615
X177.585Y-45.055
X178.895Y-43.595
X183.895Y-43.095
X183.935Y-42.515
X372.847Y-121.255
X374.157Y-119.795
X379.157Y-119.295
X379.197Y-118.715
X282.36Y-121.255
X283.67Y-119.795
X288.67Y-119.295
X288.71Y-118.715
X329.985Y-102.205
X331.295Y-100.745
X336.295Y-100.245
X336.335Y-99.665
X106.147Y-102.205
X107.457Y-100.745
X112.457Y-100.245
X112.497Y-99.665
X372.847Y-64.105
X374.157Y-62.645
X379.157Y-62.145
X379.197Y-61.565
X68.047Y-64.105
X69.358Y-62.645
X74.358Y-62.145
X74.397Y-61.565
X244.26Y-64.105
X245.57Y-62.645
X250.57Y-62.145
X250.61Y-61.565
X134.722Y-83.155
X136.032Y-81.695
X141.032Y-81.195
X141.072Y-80.615
X191.873Y-83.155
X193.183Y-81.695
X198.183Y-81.195
X198.222Y-80.615
X65.666Y-83.155
X66.976Y-81.695
X71.976Y-81.195
X72.016Y-80.615
X91.86Y-64.105
X93.17Y-62.645
X98.17Y-62.145
X98.21Y-61.565
X120.435Y-121.255
X121.745Y-119.795
X126.745Y-119.295
X126.785Y-118.715
X303.791Y-102.205
X305.101Y-100.745
X310.101Y-100.245
X310.141Y-99.665
X75.191Y-102.205
X76.501Y-100.745
X81.501Y-100.245
X81.541Y-99.665
X353.797Y-64.105
X355.107Y-62.645
X360.107Y-62.145
X360.147Y-61.565
X353.797Y-45.055
X355.107Y-43.595
X360.107Y-43.095
X360.147Y-42.515
X234.735Y-45.055
X236.045Y-43.595
X241.045Y-43.095
X241.085Y-42.515
X63.285Y-45.055
X64.595Y-43.595
X69.595Y-43.095
X69.635Y-42.515
X249.022Y-83.155
X250.332Y-81.695
X255.332Y-81.195
X255.373Y-80.615
X196.635Y-45.055
X197.945Y-43.595
X202.945Y-43.095
X202.985Y-42.515
X253.785Y-45.055
X255.095Y-43.595
X260.095Y-43.095
X260.135Y-42.515
X353.797Y-121.255
X355.107Y-119.795
X360.107Y-119.295
X360.147Y-118.715
T5
X316.809Y-85.695
X326.969Y-85.695
X123.927Y-104.745
X134.088Y-104.745
X114.402Y-85.695
X124.562Y-85.695
X128.69Y-66.645
X138.85Y-66.645
X214.415Y-47.595
X224.575Y-47.595
X147.74Y-66.645
X157.9Y-66.645
X228.702Y-85.695
X238.862Y-85.695
X95.352Y-85.695
X105.512Y-85.695
X176.315Y-47.595
X186.475Y-47.595
X371.577Y-123.795
X381.737Y-123.795
X281.09Y-123.795
X291.25Y-123.795
X328.715Y-104.745
X338.875Y-104.745
X104.877Y-104.745
X115.037Y-104.745
X371.577Y-66.645
X381.737Y-66.645
X66.778Y-66.645
X76.938Y-66.645
X242.99Y-66.645
X253.15Y-66.645
X133.452Y-85.695
X143.612Y-85.695
X190.602Y-85.695
X200.762Y-85.695
X64.396Y-85.695
X74.556Y-85.695
X90.59Y-66.645
X100.75Y-66.645
X119.165Y-123.795
X129.325Y-123.795
X302.521Y-104.745
X312.681Y-104.745
X73.921Y-104.745
X84.081Y-104.745
X352.527Y-66.645
X362.688Y-66.645
X352.527Y-47.595
X362.688Y-47.595
X233.465Y-47.595
X243.625Y-47.595
X62.015Y-47.595
X72.175Y-47.595
X247.752Y-85.695
X257.912Y-85.695
X195.365Y-47.595
X205.525Y-47.595
X252.515Y-47.595
X262.675Y-47.595
X352.527Y-123.795
X362.688Y-123.795
X333.477Y-123.795
X343.637Y-123.795
X92.971Y-123.795
X103.131Y-123.795
X276.327Y-104.745
X286.488Y-104.745
X285.852Y-85.695
X296.012Y-85.695
X323.952Y-66.645
X334.113Y-66.645
X309.665Y-47.595
X319.825Y-47.595
X81.065Y-47.595
X91.225Y-47.595
X371.577Y-47.595
X381.737Y-47.595
X300.14Y-66.645
X310.3Y-66.645
X138.215Y-47.595
X148.375Y-47.595
X352.527Y-104.745
X362.688Y-104.745
X257.277Y-104.745
X267.438Y-104.745
X209.653Y-85.695
X219.812Y-85.695
X262.04Y-66.645
X272.2Y-66.645
X290.615Y-47.595
X300.775Y-47.595
X109.64Y-66.645
X119.8Y-66.645
X266.803Y-85.695
X276.962Y-85.695
X281.09Y-66.645
X291.25Y-66.645
X181.077Y-104.745
X191.237Y-104.745
X162.028Y-104.745
X172.188Y-104.745
X171.552Y-85.695
X181.713Y-85.695
X204.89Y-66.645
X215.05Y-66.645
X271.565Y-47.595
X281.725Y-47.595
X157.265Y-47.595
X167.425Y-47.595
X328.715Y-47.595
X338.875Y-47.595
X219.177Y-104.745
X229.337Y-104.745
X223.94Y-66.645
X234.1Y-66.645
X200.127Y-123.795
X210.287Y-123.795
X307.284Y-123.795
X317.444Y-123.795
X66.778Y-123.795
X76.938Y-123.795
X238.227Y-104.745
X248.387Y-104.745
X152.502Y-85.695
X162.662Y-85.695
X166.79Y-66.645
X176.95Y-66.645
X142.977Y-104.745
X153.137Y-104.745
X185.84Y-66.645
X196.Y-66.645
X100.115Y-47.595
X110.275Y-47.595
X119.165Y-47.595
X129.325Y-47.595
X200.127Y-104.745
X210.287Y-104.745
T6
X148.058Y-116.81
X262.358Y-116.81
X309.951Y-78.71
X333.827Y-78.71
X67.063Y-97.76
X90.939Y-97.76
T7
X357.607Y-104.745
X262.358Y-104.745
X214.732Y-85.695
X267.12Y-66.645
X295.695Y-47.595
X114.72Y-66.645
X271.882Y-85.695
X286.17Y-66.645
X186.157Y-104.745
X167.107Y-104.745
X176.632Y-85.695
X209.97Y-66.645
X276.645Y-47.595
X162.345Y-47.595
X333.795Y-47.595
X224.257Y-104.745
X229.02Y-66.645
X148.058Y-132.05
X205.207Y-123.795
X262.358Y-132.05
X312.364Y-123.795
X71.858Y-123.795
X243.307Y-104.745
X157.582Y-85.695
X171.87Y-66.645
X148.058Y-104.745
X190.92Y-66.645
X105.195Y-47.595
X124.245Y-47.595
X205.207Y-104.745
X309.951Y-93.95
X321.889Y-85.695
X333.827Y-93.95
X129.007Y-104.745
X119.482Y-85.695
X133.77Y-66.645
X219.495Y-47.595
X152.82Y-66.645
X233.782Y-85.695
X100.432Y-85.695
X181.395Y-47.595
X376.657Y-123.795
X286.17Y-123.795
X333.795Y-104.745
X109.957Y-104.745
X376.657Y-66.645
X71.858Y-66.645
X248.07Y-66.645
X138.532Y-85.695
X195.683Y-85.695
X69.476Y-85.695
X95.67Y-66.645
X124.245Y-123.795
X307.601Y-104.745
X67.063Y-113.
X79.001Y-104.745
X90.939Y-113.
X357.607Y-66.645
X357.607Y-47.595
X238.545Y-47.595
X67.095Y-47.595
X252.832Y-85.695
X200.445Y-47.595
X257.595Y-47.595
X357.607Y-123.795
X338.558Y-123.795
X98.051Y-123.795
X281.407Y-104.745
X290.933Y-85.695
X329.032Y-66.645
X314.745Y-47.595
X86.145Y-47.595
X376.657Y-47.595
X305.22Y-66.645
X143.295Y-47.595
T3
X220.75Y-34.65G85X220.75Y-37.15
G05
X228.05Y-34.65G85X228.05Y-37.15
G05
T0
M30
